<svg width="1024" height="1024" viewBox="0 0 1024 1024" fill="none" xmlns="http://www.w3.org/2000/svg">
<path d="M0 0H1024V1024H0V0Z" fill="#FAFAFA"/>
<ellipse cx="518" cy="498.586" rx="201" ry="201.5" fill="#B5E0E6"/>
<path d="M822 501.086C822 670.086 684.775 807.086 515.5 807.086C346.225 807.086 209 670.086 209 501.086C209 332.087 346.225 195.086 515.5 195.086C684.775 195.086 822 332.087 822 501.086ZM232.355 501.086C232.355 657.208 359.123 783.77 515.5 783.77C671.877 783.77 798.645 657.208 798.645 501.086C798.645 344.965 671.877 218.403 515.5 218.403C359.123 218.403 232.355 344.965 232.355 501.086Z" fill="#B5E0E6"/>
<path d="M754.262 574.718C754.262 571.717 756.695 569.285 759.695 569.285H777.477C780.478 569.285 782.91 571.717 782.91 574.718V574.718C782.91 577.719 780.478 580.151 777.477 580.151H759.695C756.695 580.151 754.262 577.719 754.262 574.718V574.718Z" fill="#45AFBE"/>
<path d="M753.275 615.714C753.275 612.714 755.707 610.281 758.708 610.281H808.101C811.102 610.281 813.534 612.714 813.534 615.714V615.714C813.534 618.715 811.102 621.147 808.101 621.147H758.708C755.707 621.147 753.275 618.715 753.275 615.714V615.714Z" fill="#45AFBE"/>
<path d="M795.752 553.479C795.752 550.478 798.185 548.046 801.186 548.046H814.028C817.029 548.046 819.461 550.478 819.461 553.479V553.479C819.461 556.48 817.029 558.912 814.028 558.912H801.186C798.185 558.912 795.752 556.48 795.752 553.479V553.479Z" fill="#45AFBE"/>
<path d="M805.594 550.168C807.564 552.431 807.327 555.863 805.064 557.833L783.277 576.801C781.013 578.771 777.582 578.534 775.611 576.27V576.27C773.641 574.007 773.878 570.575 776.142 568.605L797.929 549.638C800.192 547.667 803.624 547.905 805.594 550.168V550.168Z" fill="#45AFBE"/>
<circle cx="834.773" cy="553.479" r="22.2268" fill="#45AFBE"/>
<circle cx="834.773" cy="553.479" r="13.3361" fill="#FAFAFA"/>
<path d="M752.287 656.434C752.287 659.434 754.719 661.867 757.72 661.867H775.501C778.502 661.867 780.935 659.434 780.935 656.434V656.434C780.935 653.433 778.502 651 775.501 651H757.72C754.719 651 752.287 653.433 752.287 656.434V656.434Z" fill="#45AFBE"/>
<path d="M793.777 677.673C793.777 680.674 796.209 683.106 799.21 683.106H812.052C815.053 683.106 817.485 680.674 817.485 677.673V677.673C817.485 674.672 815.053 672.24 812.052 672.24H799.21C796.209 672.24 793.777 674.672 793.777 677.673V677.673Z" fill="#45AFBE"/>
<path d="M803.619 680.984C805.589 678.721 805.351 675.289 803.088 673.318L781.301 654.351C779.038 652.381 775.606 652.618 773.636 654.881V654.881C771.665 657.145 771.903 660.577 774.166 662.547L795.953 681.514C798.216 683.485 801.648 683.247 803.619 680.984V680.984Z" fill="#45AFBE"/>
<circle cx="22.2268" cy="22.2268" r="22.2268" transform="matrix(1 0 0 -1 810.57 699.9)" fill="#45AFBE"/>
<circle cx="13.3361" cy="13.3361" r="13.3361" transform="matrix(1 0 0 -1 819.461 691.009)" fill="#FAFAFA"/>
<circle cx="22.2268" cy="22.2268" r="22.2268" transform="matrix(1 0 0 -1 809.583 637.941)" fill="#45AFBE"/>
<circle cx="13.3361" cy="13.3361" r="13.3361" transform="matrix(1 0 0 -1 818.473 629.051)" fill="#FAFAFA"/>
<path d="M478.65 635.472L453.953 674.492L450.805 678.69C450.03 679.723 450.004 681.136 450.739 682.197L453.31 685.912C453.725 686.511 454.343 686.938 455.049 687.115L477.744 692.788C479.681 693.273 480.613 695.478 479.61 697.205L474.81 705.473C473.554 707.635 473.771 710.35 475.355 712.285L479.594 717.465C480.856 719.009 481.27 721.079 480.697 722.989L479.654 726.466C479.033 728.534 479.572 730.777 481.065 732.337L487.492 739.057C488.77 740.392 489.36 742.242 489.094 744.07L486.626 760.993C486.55 761.514 486.539 762.044 486.616 762.565C487.951 771.581 493.537 777.603 502.533 779.326L544.493 785.62C546.905 785.982 549.02 787.424 550.238 789.537L573.853 830.516C575.431 833.255 578.466 834.809 581.609 834.478C596.676 832.896 619.922 830.432 622.383 830.08C623.702 829.892 632.742 823.486 643.074 816.244C662.406 802.693 680.09 786.044 693.009 766.285L697.415 759.547C698.069 758.546 698.242 757.306 697.885 756.165L693.509 742.161C689.423 732.469 689.756 726.656 693.509 716.97L738.457 655.723V575.213L706.845 510.508L619.42 493.22L534.464 510.508C502.681 524.65 494.448 539.537 481.613 575.213L478.65 635.472Z" fill="#45AFBE"/>
<path d="M749.324 610.285C744.109 708.08 687.523 746.609 612.506 746.609C537.489 746.609 476.181 679.869 476.181 604.852C478.547 538.054 518.971 488.971 612.506 484.329C706.04 479.687 753.276 536.192 749.324 610.285Z" fill="#45AFBE"/>
<rect x="554.715" y="556.937" width="116.567" height="115.58" rx="18" fill="#FAFAFA"/>
<path d="M584.351 645.35V601.391L599.662 585.585H642.14V645.35H584.351Z" fill="#45AFBE"/>
<rect x="518.164" y="570.767" width="30.6236" height="12.8422" rx="6.42109" fill="#FAFAFA"/>
<rect x="518.164" y="609.293" width="30.6236" height="12.8422" rx="6.42109" fill="#FAFAFA"/>
<rect x="518.164" y="648.808" width="30.6236" height="12.8422" rx="6.42109" fill="#FAFAFA"/>
<rect x="676.222" y="570.767" width="30.6236" height="12.8422" rx="6.42109" fill="#FAFAFA"/>
<rect x="676.222" y="609.293" width="30.6236" height="12.8422" rx="6.42109" fill="#FAFAFA"/>
<rect x="676.222" y="648.808" width="30.6236" height="12.8422" rx="6.42109" fill="#FAFAFA"/>
<rect x="567.557" y="711.656" width="30.6236" height="12.8422" rx="6.42109" transform="rotate(-90 567.557 711.656)" fill="#FAFAFA"/>
<rect x="606.075" y="710.866" width="30.6236" height="12.8422" rx="6.42109" transform="rotate(-90 606.075 710.866)" fill="#FAFAFA"/>
<rect x="645.582" y="710.055" width="30.6236" height="12.8422" rx="6.42109" transform="rotate(-90 645.582 710.055)" fill="#FAFAFA"/>
<rect x="567.557" y="552.61" width="30.6236" height="12.8422" rx="6.42109" transform="rotate(-90 567.557 552.61)" fill="#FAFAFA"/>
<rect x="606.075" y="551.82" width="30.6236" height="12.8422" rx="6.42109" transform="rotate(-90 606.075 551.82)" fill="#FAFAFA"/>
<rect x="645.582" y="551.01" width="30.6236" height="12.8422" rx="6.42109" transform="rotate(-90 645.582 551.01)" fill="#FAFAFA"/>
<path d="M505.054 326.054H404.787H284.762C284.762 265.221 334.076 215.907 394.908 215.907C455.74 215.907 505.054 265.221 505.054 326.054Z" fill="#45AFBE"/>
<circle cx="360.827" cy="281.106" r="15.8058" transform="rotate(180 360.827 281.106)" fill="#FAFAFA"/>
<circle cx="428.001" cy="281.106" r="15.8058" transform="rotate(180 428.001 281.106)" fill="#FAFAFA"/>
<path d="M445.783 480.654H393.92H342.058H290.75C287.988 480.654 285.75 482.892 285.75 485.654V493.387C285.75 498.357 289.779 502.387 294.75 502.387H314.802C316.276 502.387 317.526 503.46 317.795 504.91C319.025 511.535 320.536 515.331 323.192 520.201C323.824 521.361 323.655 522.799 322.747 523.758L312.519 534.554C309.166 538.093 309.241 543.66 312.689 547.108L327.791 562.209C331.305 565.724 337.004 565.724 340.519 562.209L351.271 551.457C352.243 550.485 353.749 550.305 354.946 550.979C360.773 554.26 364.957 555.635 371.156 556.778C372.601 557.044 373.669 558.292 373.669 559.762V576.861C373.669 581.831 377.698 585.861 382.669 585.861H404.183C409.154 585.861 413.183 581.831 413.183 576.861V559.803C413.183 558.315 414.276 557.06 415.741 556.798C423.327 555.44 428.126 553.339 434.808 548.787C436.019 547.963 437.651 548.093 438.686 549.129L451.187 561.629C454.92 565.362 461.05 565.095 464.444 561.051L475.453 547.935C478.69 544.078 478.133 538.316 474.218 535.15L460.688 524.211C459.315 523.102 459.201 521.058 460.385 519.749C464.742 514.928 467.084 510.994 469.301 504.486C469.724 503.244 470.879 502.387 472.191 502.387H493.585C498.555 502.387 502.585 498.357 502.585 493.387V485.654C502.585 482.892 500.346 480.654 497.585 480.654H445.783Z" fill="#45AFBE"/>
<path d="M438.867 480.654H398.85H350.948C350.948 504.659 370.629 524.12 394.908 524.12C419.186 524.12 438.867 504.659 438.867 480.654Z" fill="#FAFAFA"/>
<rect x="257.102" y="336.426" width="275.613" height="133.361" rx="19" fill="#45AFBE"/>
<rect x="352.924" y="373.965" width="83.968" height="15.8058" rx="7.90288" fill="#FAFAFA"/>
<path d="M352.924 414.467C352.924 410.103 356.462 406.564 360.827 406.564H428.989C433.354 406.564 436.892 410.103 436.892 414.467V414.467C436.892 418.832 433.354 422.37 428.989 422.37H360.827C356.462 422.37 352.924 418.832 352.924 414.467V414.467Z" fill="#FAFAFA"/>
<path d="M250.049 382.855L211.719 403.044C208.807 404.578 205.203 403.474 203.649 400.572V400.572C202.077 397.635 203.204 393.98 206.157 392.438L250.048 369.519L250.049 382.855Z" fill="#45AFBE"/>
<rect x="202.769" y="391.746" width="12.8422" height="64.2109" rx="6.42109" fill="#45AFBE"/>
<circle cx="208.696" cy="463.86" r="24.6965" fill="#45AFBE"/>
<circle cx="208.696" cy="464.848" r="15.8058" fill="#FAFAFA"/>
<path d="M539.251 368.038L577.58 347.849C580.493 346.315 584.097 347.419 585.65 350.321V350.321C587.222 353.258 586.095 356.913 583.142 358.455L539.251 381.374L539.251 368.038Z" fill="#45AFBE"/>
<rect x="586.53" y="359.147" width="12.8422" height="64.2109" rx="6.42109" transform="rotate(180 586.53 359.147)" fill="#45AFBE"/>
<circle cx="580.603" cy="287.033" r="24.6965" transform="rotate(180 580.603 287.033)" fill="#45AFBE"/>
<circle cx="580.603" cy="286.045" r="15.8058" transform="rotate(180 580.603 286.045)" fill="#FAFAFA"/>
<rect x="400.341" y="209.98" width="12.8422" height="50.3808" rx="6.42109" transform="rotate(180 400.341 209.98)" fill="#45AFBE"/>
<circle cx="394.414" cy="151.696" r="24.6965" transform="rotate(180 394.414 151.696)" fill="#45AFBE"/>
<circle cx="394.414" cy="150.708" r="15.8058" transform="rotate(180 394.414 150.708)" fill="#FAFAFA"/>
</svg>
