<svg width="883" height="928" viewBox="0 0 883 928" fill="none" xmlns="http://www.w3.org/2000/svg">
<circle cx="438" cy="487" r="264" fill="#B5E0E6"/>
<path d="M836 490.5C836 712.242 656.242 892 434.5 892C212.758 892 33 712.242 33 490.5C33 268.758 212.758 89 434.5 89C656.242 89 836 268.758 836 490.5ZM63.5934 490.5C63.5934 695.346 229.654 861.407 434.5 861.407C639.346 861.407 805.407 695.346 805.407 490.5C805.407 285.654 639.346 119.593 434.5 119.593C229.654 119.593 63.5934 285.654 63.5934 490.5Z" fill="#B5E0E6"/>
<path d="M747.44 586.822C747.44 582.889 750.628 579.701 754.561 579.701H777.867C781.8 579.701 784.989 582.889 784.989 586.822V586.822C784.989 590.755 781.8 593.943 777.867 593.943H754.561C750.628 593.943 747.44 590.755 747.44 586.822V586.822Z" fill="#45AFBE"/>
<path d="M746.146 640.555C746.146 636.622 749.334 633.434 753.267 633.434H818.006C821.939 633.434 825.127 636.622 825.127 640.555V640.555C825.127 644.488 821.939 647.677 818.006 647.677H753.267C749.334 647.677 746.146 644.488 746.146 640.555V640.555Z" fill="#45AFBE"/>
<path d="M801.821 558.984C801.821 555.051 805.009 551.863 808.942 551.863H825.774C829.707 551.863 832.896 555.051 832.896 558.984V558.984C832.896 562.917 829.707 566.105 825.774 566.105H808.942C805.009 566.105 801.821 562.917 801.821 558.984V558.984Z" fill="#45AFBE"/>
<path d="M814.721 554.644C817.303 557.611 816.992 562.109 814.025 564.691L785.469 589.552C782.503 592.134 778.005 591.823 775.422 588.857V588.857C772.84 585.89 773.151 581.392 776.117 578.81L804.674 553.949C807.64 551.367 812.138 551.678 814.721 554.644V554.644Z" fill="#45AFBE"/>
<circle cx="852.965" cy="558.984" r="29.1326" fill="#45AFBE"/>
<circle cx="852.964" cy="558.984" r="17.4795" fill="white"/>
<path d="M744.851 693.926C744.851 697.859 748.039 701.047 751.972 701.047H775.278C779.211 701.047 782.399 697.859 782.399 693.926V693.926C782.399 689.993 779.211 686.805 775.278 686.805H751.972C748.039 686.805 744.851 689.993 744.851 693.926V693.926Z" fill="#45AFBE"/>
<path d="M799.231 721.764C799.231 725.697 802.42 728.885 806.353 728.885H823.185C827.118 728.885 830.306 725.697 830.306 721.764V721.764C830.306 717.831 827.118 714.643 823.185 714.643H806.353C802.42 714.643 799.231 717.831 799.231 721.764V721.764Z" fill="#45AFBE"/>
<path d="M812.131 726.104C814.713 723.137 814.402 718.639 811.436 716.057L782.879 691.196C779.913 688.614 775.415 688.925 772.832 691.891V691.891C770.25 694.858 770.561 699.356 773.528 701.938L802.084 726.799C805.05 729.381 809.548 729.07 812.131 726.104V726.104Z" fill="#45AFBE"/>
<circle cx="29.1326" cy="29.1326" r="29.1326" transform="matrix(1 0 0 -1 821.243 750.896)" fill="#45AFBE"/>
<circle cx="17.4795" cy="17.4795" r="17.4795" transform="matrix(1 0 0 -1 832.896 739.243)" fill="white"/>
<circle cx="29.1326" cy="29.1326" r="29.1326" transform="matrix(1 0 0 -1 819.948 669.688)" fill="#45AFBE"/>
<circle cx="17.4795" cy="17.4795" r="17.4795" transform="matrix(1 0 0 -1 831.601 658.035)" fill="white"/>
<path d="M386.196 666.451L353.827 717.595L349.297 723.634C348.523 724.667 348.496 726.08 349.231 727.142L353.183 732.851C353.598 733.45 354.216 733.877 354.922 734.054L386.211 741.876C388.148 742.36 389.08 744.566 388.078 746.293L380.515 759.318C379.259 761.48 379.476 764.194 381.06 766.13L388.061 774.687C389.324 776.23 389.737 778.3 389.164 780.21L387.2 786.756C386.579 788.825 387.118 791.067 388.611 792.628L398.415 802.877C399.692 804.212 400.283 806.062 400.016 807.89L396.614 831.215C396.538 831.736 396.529 832.267 396.602 832.789C398.288 844.741 405.628 852.726 417.5 855L473.683 863.427C476.094 863.789 478.21 865.231 479.427 867.345L511.784 923.494C513.363 926.232 516.396 927.786 519.54 927.456C539.196 925.393 571.272 921.997 574.587 921.523C576.7 921.221 593.94 908.738 610.905 896.965C630.3 883.506 648.1 867.052 661.019 847.293L673.252 828.584C673.906 827.584 674.078 826.343 673.722 825.202L667.811 806.288C662.455 793.585 662.891 785.966 667.811 773.271L726.724 692.994V587.47L685.291 502.661L570.702 480.003L459.351 502.661C417.694 521.198 406.903 540.71 390.08 587.47L386.196 666.451Z" fill="#45AFBE"/>
<path d="M740.967 633.439C734.131 761.618 659.964 812.119 561.64 812.119C463.315 812.119 382.96 724.642 382.96 626.318C386.06 538.767 439.045 474.434 561.64 468.35C684.235 462.265 746.146 536.326 740.967 633.439Z" fill="#45AFBE"/>
<rect x="485.895" y="563.516" width="152.784" height="151.489" rx="18" fill="white"/>
<path d="M524.738 679.399V621.781L544.807 601.065H600.483V679.399H524.738Z" fill="#45AFBE"/>
<rect x="437.987" y="581.643" width="40.1382" height="16.8322" rx="8.41608" fill="white"/>
<rect x="437.987" y="632.139" width="40.1382" height="16.8322" rx="8.41608" fill="white"/>
<rect x="437.987" y="683.931" width="40.1382" height="16.8322" rx="8.41608" fill="white"/>
<rect x="645.153" y="581.643" width="40.1382" height="16.8322" rx="8.41608" fill="white"/>
<rect x="645.153" y="632.139" width="40.1382" height="16.8322" rx="8.41608" fill="white"/>
<rect x="645.153" y="683.931" width="40.1382" height="16.8322" rx="8.41608" fill="white"/>
<rect x="502.727" y="766.305" width="40.1382" height="16.8322" rx="8.41608" transform="rotate(-90 502.727 766.305)" fill="white"/>
<rect x="553.212" y="765.27" width="40.1382" height="16.8322" rx="8.41608" transform="rotate(-90 553.212 765.27)" fill="white"/>
<rect x="604.993" y="764.207" width="40.1382" height="16.8322" rx="8.41608" transform="rotate(-90 604.993 764.207)" fill="white"/>
<rect x="502.727" y="557.845" width="40.1382" height="16.8322" rx="8.41608" transform="rotate(-90 502.727 557.845)" fill="white"/>
<rect x="553.212" y="556.81" width="40.1382" height="16.8322" rx="8.41608" transform="rotate(-90 553.212 556.81)" fill="white"/>
<rect x="604.993" y="555.748" width="40.1382" height="16.8322" rx="8.41608" transform="rotate(-90 604.993 555.748)" fill="white"/>
<path d="M420.804 260.898H289.384H132.068C132.068 181.166 196.704 116.53 276.436 116.53C356.168 116.53 420.804 181.166 420.804 260.898Z" fill="#45AFBE"/>
<circle cx="231.766" cy="201.986" r="20.7165" transform="rotate(180 231.766 201.986)" fill="white"/>
<circle cx="319.811" cy="201.986" r="20.7165" transform="rotate(180 319.811 201.986)" fill="white"/>
<path d="M343.117 463.532H275.141H207.165H138.362C135.601 463.532 133.362 465.77 133.362 468.532V483.017C133.362 487.988 137.392 492.017 142.362 492.017H172.236C173.71 492.017 174.962 493.093 175.222 494.544C176.911 503.995 178.976 509.1 182.77 515.972C183.408 517.128 183.238 518.568 182.33 519.527L166.577 536.154C163.224 539.694 163.299 545.26 166.747 548.708L190.443 572.403C193.957 575.918 199.656 575.918 203.171 572.403L219.754 555.82C220.726 554.848 222.234 554.666 223.427 555.348C231.643 560.048 237.296 561.88 246.082 563.448C247.529 563.706 248.598 564.956 248.598 566.426V592.426C248.598 597.397 252.627 601.426 257.598 601.426H291.389C296.36 601.426 300.389 597.397 300.389 592.426V566.467C300.389 564.979 301.482 563.722 302.949 563.471C313.606 561.654 320.049 558.824 329.386 552.387C330.592 551.555 332.222 551.688 333.258 552.724L352.357 571.823C356.091 575.556 362.221 575.289 365.615 571.245L383.836 549.535C387.073 545.678 386.516 539.916 382.601 536.75L361.859 519.98C360.486 518.87 360.369 516.824 361.566 515.527C367.874 508.695 371.076 503.382 374.162 494.116C374.577 492.872 375.732 492.017 377.045 492.017H408.567C413.537 492.017 417.567 487.988 417.567 483.017V468.532C417.567 465.77 415.328 463.532 412.567 463.532H343.117Z" fill="#45AFBE"/>
<path d="M334.053 463.532H281.603H218.817C218.817 494.996 244.614 520.502 276.435 520.502C308.257 520.502 334.053 494.996 334.053 463.532Z" fill="white"/>
<rect x="95.814" y="274.494" width="361.244" height="174.796" rx="19" fill="#45AFBE"/>
<rect x="221.408" y="323.696" width="110.056" height="20.7165" rx="10.3583" fill="white"/>
<path d="M221.408 376.782C221.408 371.061 226.045 366.423 231.766 366.423H321.106C326.827 366.423 331.464 371.061 331.464 376.782V376.782C331.464 382.502 326.827 387.14 321.106 387.14H231.766C226.045 387.14 221.408 382.502 221.408 376.782V376.782Z" fill="white"/>
<path d="M86.5695 335.348L36.3308 361.809C32.5139 363.82 27.79 362.372 25.7541 358.569V358.569C23.6937 354.72 25.1706 349.929 29.0407 347.908L86.5691 317.869L86.5695 335.348Z" fill="#45AFBE"/>
<rect x="24.6011" y="347.001" width="16.8322" height="84.1608" rx="8.41608" fill="#45AFBE"/>
<circle cx="32.3695" cy="441.52" r="32.3695" fill="#45AFBE"/>
<circle cx="32.3693" cy="442.815" r="20.7165" fill="white"/>
<path d="M465.625 315.927L515.864 289.466C519.68 287.456 524.404 288.903 526.44 292.706V292.706C528.501 296.555 527.024 301.346 523.154 303.367L465.625 333.406L465.625 315.927Z" fill="#45AFBE"/>
<rect x="527.594" y="304.274" width="16.8322" height="84.1608" rx="8.41608" transform="rotate(180 527.594 304.274)" fill="#45AFBE"/>
<circle cx="519.825" cy="209.755" r="32.3695" transform="rotate(180 519.825 209.755)" fill="#45AFBE"/>
<circle cx="519.825" cy="208.46" r="20.7165" transform="rotate(180 519.825 208.46)" fill="white"/>
<rect x="283.557" y="108.762" width="16.8322" height="66.0339" rx="8.41608" transform="rotate(180 283.557 108.762)" fill="#45AFBE"/>
<circle cx="275.789" cy="32.3695" r="32.3695" transform="rotate(180 275.789 32.3695)" fill="#45AFBE"/>
<circle cx="275.788" cy="31.0745" r="20.7165" transform="rotate(180 275.788 31.0745)" fill="white"/>
</svg>
