<svg width="1024" height="1024" viewBox="0 0 1024 1024" fill="none" xmlns="http://www.w3.org/2000/svg">
<path d="M0 0H1024V1024H0V0Z" fill="#FAFAFA"/>
<rect x="156" y="257" width="742" height="480.683" rx="29" fill="#45AFBE"/>
<rect x="179.597" y="283.219" width="693.932" height="428.245" rx="15" fill="#B5E0E6"/>
<rect x="407.164" y="444.398" width="105.75" height="14.8575" fill="#45AFBE"/>
<rect x="498.057" y="372.732" width="165.18" height="14.8575" fill="#45AFBE"/>
<rect x="498.057" y="456.633" width="83.9011" height="14.8575" transform="rotate(-90 498.057 456.633)" fill="#45AFBE"/>
<circle cx="314.625" cy="418.247" r="106.187" fill="#258EA6"/>
<path d="M420.813 418.247C420.813 439.249 414.585 459.779 402.917 477.242C391.249 494.704 374.665 508.315 355.261 516.352C335.858 524.389 314.507 526.492 293.909 522.394C273.311 518.297 254.39 508.184 239.54 493.333C224.689 478.483 214.576 459.562 210.478 438.963C206.381 418.365 208.484 397.014 216.521 377.611C224.558 358.208 238.168 341.624 255.631 329.956C273.093 318.288 293.623 312.06 314.625 312.06L314.625 418.247H420.813Z" fill="#45AFBE"/>
<rect x="650.12" y="347.288" width="180.038" height="62.0518" rx="31.0259" fill="#45AFBE"/>
<rect x="657.111" y="353.405" width="166.928" height="48.9423" rx="24.4711" fill="#FAFAFA"/>
<rect x="650.12" y="418.953" width="180.038" height="62.0518" rx="31.0259" fill="#45AFBE"/>
<rect x="657.111" y="425.071" width="166.928" height="48.9423" rx="24.4711" fill="#FAFAFA"/>
<circle cx="798.257" cy="378.314" r="21.4123" fill="#258EA6"/>
<circle cx="682.893" cy="449.979" r="21.4123" fill="#258EA6"/>
<rect x="208.438" y="652.908" width="621.392" height="29.715" rx="14.8575" fill="#FAFAFA"/>
<rect x="202.32" y="649.412" width="295.402" height="36.7067" rx="18.3534" fill="#45AFBE"/>
<circle cx="493.789" cy="668.203" r="24.9081" fill="#258EA6"/>
<rect x="244.271" y="620.571" width="156.441" height="14.8575" rx="6" fill="#45AFBE"/>
<rect x="265.246" y="616.201" width="20.9753" height="28.841" rx="4" transform="rotate(-90 265.246 616.201)" fill="#45AFBE"/>
<rect x="299.331" y="616.201" width="31.4629" height="28.841" rx="4" transform="rotate(-90 299.331 616.201)" fill="#45AFBE"/>
<rect x="333.416" y="616.201" width="55.0601" height="28.841" rx="4" transform="rotate(-90 333.416 616.201)" fill="#45AFBE"/>
<rect x="367.5" y="616.201" width="37.5807" height="28.841" rx="4" transform="rotate(-90 367.5 616.201)" fill="#45AFBE"/>
<path d="M572.965 553.593C572.637 556.924 572.177 563.985 572.965 565.584L574.442 570.58L570.502 576.575V590.065V606.053L577.89 625.538H582.322L587.739 613.547V579.573L582.322 570.58L587.739 563.086L586.262 552.094L582.322 548.097L576.412 545.1L572.965 553.593Z" fill="#FAFAFA"/>
<path d="M611.029 550.024C606.254 550.024 614.828 554.624 611.029 556.755C610.637 554.827 610.715 564.242 609.702 562.515C614.466 560.094 607.797 557.95 613.242 558.018C618.687 558.086 622.234 545.714 626.924 548.253C631.615 550.793 635.503 554.412 638.203 558.753C640.904 563.094 642.323 568.007 642.322 573.006H657.975C660.464 573.008 662.85 573.917 664.609 575.533C666.368 577.149 667.356 579.34 667.356 581.625V616.098C667.356 618.384 666.367 620.576 664.607 622.192C662.846 623.809 660.458 624.717 657.969 624.717H620.417C617.927 624.717 615.539 623.809 613.779 622.192C612.018 620.576 611.029 618.384 611.029 616.098V601.734C606.676 601.739 612.167 601.101 608.184 599.486C608.266 597.533 618.204 595.492 618.204 593.32L611.029 592.972C614.709 594.926 606.467 595.989 611.029 595.989V581.625C611.029 579.339 612.018 577.147 613.779 575.531C615.539 573.914 617.927 573.006 620.417 573.006H636.064C636.064 566.911 633.426 561.065 628.731 556.755C624.036 552.445 617.669 550.024 611.029 550.024ZM641.696 578.752C640.465 584.271 637.496 589.337 633.157 593.32C628.818 597.304 623.3 600.03 617.288 601.16V616.098C617.288 616.86 617.618 617.591 618.204 618.13C618.791 618.669 619.587 618.971 620.417 618.971H657.969C658.798 618.971 659.594 618.669 660.181 618.13C660.768 617.591 661.098 616.86 661.098 616.098V581.625C661.098 580.863 660.768 580.132 660.181 579.593C659.594 579.055 658.798 578.752 657.969 578.752H641.696ZM635.275 578.752H620.417C619.587 578.752 618.791 579.055 618.204 579.593C617.618 580.132 617.288 580.863 617.288 581.625V595.265C621.618 594.235 625.569 592.161 628.731 589.258C631.894 586.354 634.153 582.727 635.275 578.752ZM583.373 539.251C583.892 539.668 584.247 540.231 584.381 540.853C584.516 541.474 584.423 542.119 584.117 542.687C584.064 542.855 584.037 543.029 584.036 543.204C584.036 543.566 584.136 544.256 585.081 545.117C585.538 545.537 585.889 545.836 586.27 546.163C586.583 546.427 586.915 546.703 587.334 547.082C588.148 547.795 589.005 548.634 589.775 549.685C591.371 551.886 592.254 554.638 592.254 558.642C592.254 563.543 590.276 567.721 587.19 570.283L587.591 570.708C589.343 572.685 590.363 575.247 591.002 577.775C592.254 582.774 592.254 588.784 592.254 592.972V593.116C592.254 609.129 589.882 618.213 587.272 623.407C585.957 626.021 584.562 627.687 583.354 628.733C582.863 629.165 582.321 629.547 581.739 629.871C581.473 630.018 581.194 630.147 580.907 630.256C580.907 630.256 580.2 630.462 579.736 630.462C579.273 630.462 578.566 630.256 578.566 630.256C578.275 630.153 577.996 630.024 577.734 629.871C577.152 629.547 576.61 629.165 576.119 628.733C574.911 627.681 573.515 626.021 572.201 623.407C569.591 618.213 567.219 609.129 567.219 593.116V592.972C567.219 588.778 567.219 582.774 568.471 577.775C569.109 575.247 570.129 572.685 571.882 570.708C572.007 570.565 572.145 570.421 572.282 570.283C569.197 567.721 567.219 563.543 567.219 558.642C567.219 556.769 567.764 554.534 568.515 552.472C569.266 550.403 570.317 548.266 571.531 546.542C572.977 544.301 575.011 542.423 576.588 541.159C577.453 540.461 578.355 539.803 579.292 539.188L579.48 539.073L579.536 539.033L579.555 539.021L579.567 539.016C580.141 538.664 580.825 538.497 581.514 538.54C582.202 538.582 582.855 538.832 583.373 539.251ZM579.736 567.261C582.158 567.255 585.995 564.79 585.995 558.642C585.995 555.465 585.313 553.908 584.562 552.874C584.105 552.27 583.578 551.713 582.991 551.213L582.215 550.547C581.708 550.11 581.113 549.605 580.65 549.185C579.966 548.563 579.378 547.858 578.904 547.088C578.107 547.857 577.406 548.705 576.814 549.616C575.937 550.851 575.086 552.546 574.454 554.293C573.803 556.074 573.478 557.648 573.478 558.642C573.478 564.802 577.327 567.261 579.736 567.261ZM576.732 574.339C575.844 575.333 575.105 576.919 574.567 579.068C573.49 583.366 573.478 588.767 573.478 593.116C573.478 608.704 575.8 616.857 577.884 620.999C578.572 622.361 579.217 623.269 579.736 623.872C580.476 622.985 581.098 622.021 581.589 620.999C583.673 616.857 585.995 608.704 585.995 593.116C585.995 588.767 585.982 583.366 584.9 579.068C584.361 576.919 583.623 575.333 582.74 574.339C582.395 573.91 581.941 573.564 581.418 573.332C580.895 573.1 580.317 572.988 579.736 573.006H579.724C579.145 572.989 578.57 573.102 578.049 573.334C577.528 573.566 577.076 573.911 576.732 574.339Z" fill="#45AFBE"/>
<rect x="598.41" y="545.1" width="84.542" height="85.3628" rx="9" fill="#45AFBE"/>
<rect x="606.618" y="555.77" width="65.6637" height="64.0221" rx="4" fill="#FAFAFA"/>
<circle cx="665.715" cy="558.232" r="27.0863" fill="#FAFAFA"/>
<path d="M696.905 559.463C696.905 576.916 682.757 591.064 665.304 591.064C647.852 591.064 633.704 576.916 633.704 559.463C633.704 542.011 647.852 527.863 665.304 527.863C682.757 527.863 696.905 542.011 696.905 559.463ZM641.402 559.463C641.402 572.664 652.104 583.365 665.304 583.365C678.505 583.365 689.206 572.664 689.206 559.463C689.206 546.263 678.505 535.562 665.304 535.562C652.104 535.562 641.402 546.263 641.402 559.463Z" fill="#45AFBE"/>
<rect x="741.228" y="545.92" width="71.4093" height="65.6637" fill="#FAFAFA"/>
<path d="M769.226 607.845H780.535L782.231 599.363C783.362 598.892 784.423 598.398 785.415 597.882C786.402 597.362 787.414 596.725 788.451 595.971L796.65 598.515L802.304 588.903L795.802 583.248C795.99 581.929 796.084 580.704 796.084 579.573C796.084 578.442 795.99 577.217 795.802 575.898L802.304 570.243L796.65 560.631L788.451 563.175C787.414 562.421 786.402 561.784 785.415 561.264C784.423 560.748 783.362 560.254 782.231 559.783L780.535 551.301H769.226L767.53 559.783C766.399 560.254 765.338 560.748 764.346 561.264C763.359 561.784 762.347 562.421 761.31 563.175L753.111 560.631L747.457 570.243L753.959 575.898C753.771 577.217 753.677 578.442 753.677 579.573C753.677 580.704 753.771 581.929 753.959 583.248L747.457 588.903L753.111 598.515L761.31 595.971C762.347 596.725 763.359 597.362 764.346 597.882C765.338 598.398 766.399 598.892 767.53 599.363L769.226 607.845ZM774.881 590.882C771.771 590.882 769.109 589.773 766.897 587.557C764.68 585.344 763.572 582.683 763.572 579.573C763.572 576.463 764.68 573.8 766.897 571.583C769.109 569.371 771.771 568.264 774.881 568.264C777.99 568.264 780.654 569.371 782.87 571.583C785.083 573.8 786.189 576.463 786.189 579.573C786.189 582.683 785.083 585.344 782.87 587.557C780.654 589.773 777.99 590.882 774.881 590.882ZM735.3 630.462C732.19 630.462 729.527 629.356 727.31 627.143C725.098 624.927 723.991 622.264 723.991 619.154V539.992C723.991 536.882 725.098 534.219 727.31 532.003C729.527 529.79 732.19 528.684 735.3 528.684H814.461C817.571 528.684 820.234 529.79 822.451 532.003C824.664 534.219 825.77 536.882 825.77 539.992V619.154C825.77 622.264 824.664 624.927 822.451 627.143C820.234 629.356 817.571 630.462 814.461 630.462H735.3Z" fill="#45AFBE"/>
</svg>
