<svg width="904" height="586" viewBox="0 0 904 586" fill="none" xmlns="http://www.w3.org/2000/svg">
<rect width="904" height="585.63" rx="29" fill="#45AFBE"/>
<rect x="28.749" y="31.9435" width="845.437" height="521.743" rx="15" fill="#B5E0E6"/>
<rect x="306" y="228.312" width="128.839" height="18.1013" fill="#45AFBE"/>
<rect x="416.737" y="141" width="201.244" height="18.1013" fill="#45AFBE"/>
<rect x="416.737" y="243.219" width="102.219" height="18.1013" transform="rotate(-90 416.737 243.219)" fill="#45AFBE"/>
<circle cx="193.258" cy="196.452" r="129.371" fill="#258EA6"/>
<path d="M322.629 196.452C322.629 222.039 315.041 247.052 300.826 268.327C286.61 289.602 266.405 306.184 242.766 315.976C219.126 325.767 193.114 328.329 168.019 323.337C142.923 318.346 119.871 306.024 101.779 287.931C83.6858 269.839 71.3644 246.787 66.3725 221.691C61.3807 196.596 63.9427 170.584 73.7345 146.944C83.5263 123.305 100.108 103.1 121.383 88.8842C142.658 74.6687 167.671 67.0813 193.258 67.0813L193.258 196.452H322.629Z" fill="#45AFBE"/>
<rect x="602" y="110" width="219.345" height="75.5995" rx="37.7998" fill="#45AFBE"/>
<rect x="610.518" y="117.453" width="203.373" height="59.6278" rx="29.8139" fill="white"/>
<rect x="602" y="197.312" width="219.345" height="75.5995" rx="37.7998" fill="#45AFBE"/>
<rect x="610.518" y="204.766" width="203.373" height="59.6278" rx="29.8139" fill="white"/>
<circle cx="782.481" cy="147.8" r="26.0872" fill="#258EA6"/>
<circle cx="641.929" cy="235.112" r="26.0872" fill="#258EA6"/>
<rect x="63.8872" y="482.346" width="757.06" height="36.2026" rx="18.1013" fill="white"/>
<rect x="56.4336" y="478.087" width="359.896" height="44.7208" rx="22.3604" fill="#45AFBE"/>
<circle cx="411.539" cy="500.98" r="30.3463" fill="#258EA6"/>
<rect x="107.543" y="442.949" width="190.596" height="18.1013" rx="6" fill="#45AFBE"/>
<rect x="133.098" y="437.625" width="25.5548" height="35.1378" rx="4" transform="rotate(-90 133.098 437.625)" fill="#45AFBE"/>
<rect x="174.624" y="437.625" width="38.3322" height="35.1378" rx="4" transform="rotate(-90 174.624 437.625)" fill="#45AFBE"/>
<rect x="216.151" y="437.625" width="67.0813" height="35.1378" rx="4" transform="rotate(-90 216.151 437.625)" fill="#45AFBE"/>
<rect x="257.677" y="437.625" width="45.7856" height="35.1378" rx="4" transform="rotate(-90 257.677 437.625)" fill="#45AFBE"/>
<path d="M508 361.348C507.6 365.406 507.04 374.009 508 375.957L509.8 382.043L505 389.348V405.783V425.261L514 449H519.4L526 434.391V393L519.4 382.043L526 372.913L524.2 359.522L519.4 354.652L512.2 351L508 361.348Z" fill="white"/>
<path d="M554.375 357C548.557 357 559.003 362.604 554.375 365.201C553.897 362.852 553.992 374.321 552.758 372.217C558.562 369.268 550.437 366.656 557.071 366.739C563.705 366.822 568.025 351.749 573.74 354.843C579.455 357.936 584.192 362.346 587.482 367.635C590.772 372.924 592.502 378.909 592.5 385H611.57C614.602 385.002 617.509 386.109 619.653 388.078C621.796 390.047 623 392.716 623 395.5V437.5C623 440.285 621.795 442.955 619.65 444.925C617.505 446.894 614.596 448 611.563 448H565.813C562.779 448 559.87 446.894 557.725 444.925C555.58 442.955 554.375 440.285 554.375 437.5V420C549.071 420.006 555.761 419.229 550.909 417.261C551.008 414.881 563.117 412.395 563.117 409.749L554.375 409.325C558.859 411.705 548.816 413 554.375 413V395.5C554.375 392.715 555.58 390.044 557.725 388.075C559.87 386.106 562.779 385 565.813 385H584.875C584.875 377.574 581.662 370.452 575.942 365.201C570.222 359.95 562.464 357 554.375 357ZM591.738 392C590.238 398.724 586.62 404.895 581.333 409.749C576.047 414.602 569.324 417.923 562 419.3V437.5C562 438.428 562.402 439.318 563.117 439.975C563.832 440.631 564.801 441 565.813 441H611.563C612.574 441 613.543 440.631 614.258 439.975C614.973 439.318 615.375 438.428 615.375 437.5V395.5C615.375 394.572 614.973 393.681 614.258 393.025C613.543 392.369 612.574 392 611.563 392H591.738ZM583.914 392H565.813C564.801 392 563.832 392.369 563.117 393.025C562.402 393.681 562 394.572 562 395.5V412.118C567.275 410.863 572.089 408.336 575.942 404.799C579.795 401.262 582.548 396.843 583.914 392ZM520.68 343.875C521.313 344.383 521.745 345.069 521.909 345.826C522.073 346.583 521.96 347.369 521.588 348.061C521.523 348.266 521.49 348.478 521.488 348.691C521.488 349.132 521.61 349.972 522.762 351.022C523.318 351.533 523.745 351.897 524.211 352.296C524.592 352.618 524.996 352.954 525.507 353.416C526.498 354.284 527.543 355.306 528.481 356.587C530.425 359.268 531.5 362.621 531.5 367.5C531.5 373.471 529.091 378.56 525.331 381.682L525.819 382.2C527.954 384.608 529.197 387.73 529.975 390.81C531.5 396.9 531.5 404.222 531.5 409.325V409.5C531.5 429.009 528.61 440.076 525.431 446.404C523.829 449.589 522.129 451.619 520.657 452.893C520.059 453.42 519.399 453.885 518.69 454.279C518.365 454.458 518.026 454.615 517.676 454.748C517.676 454.748 516.814 455 516.25 455C515.686 455 514.824 454.748 514.824 454.748C514.47 454.623 514.13 454.466 513.81 454.279C513.101 453.885 512.441 453.42 511.843 452.893C510.371 451.612 508.671 449.589 507.07 446.404C503.89 440.076 501 429.009 501 409.5V409.325C501 404.215 501 396.9 502.525 390.81C503.303 387.73 504.546 384.608 506.681 382.2C506.833 382.025 507.001 381.85 507.169 381.682C503.41 378.56 501 373.471 501 367.5C501 365.218 501.663 362.495 502.578 359.982C503.493 357.462 504.774 354.858 506.254 352.758C508.015 350.028 510.493 347.739 512.415 346.199C513.468 345.348 514.567 344.547 515.709 343.798L515.937 343.658L516.006 343.609L516.029 343.595L516.044 343.588C516.743 343.16 517.577 342.956 518.415 343.008C519.254 343.06 520.05 343.365 520.68 343.875ZM516.25 378C519.201 377.993 523.875 374.99 523.875 367.5C523.875 363.629 523.044 361.732 522.129 360.472C521.573 359.736 520.931 359.058 520.215 358.449L519.27 357.637C518.652 357.105 517.928 356.489 517.363 355.978C516.529 355.22 515.813 354.36 515.236 353.423C514.265 354.36 513.411 355.393 512.689 356.503C511.622 358.008 510.585 360.073 509.814 362.201C509.021 364.371 508.625 366.289 508.625 367.5C508.625 375.004 513.314 378 516.25 378ZM512.59 386.624C511.507 387.835 510.608 389.767 509.952 392.385C508.64 397.621 508.625 404.201 508.625 409.5C508.625 428.491 511.454 438.424 513.993 443.471C514.832 445.13 515.617 446.236 516.25 446.971C517.151 445.891 517.909 444.716 518.507 443.471C521.046 438.424 523.875 428.491 523.875 409.5C523.875 404.201 523.86 397.621 522.541 392.385C521.885 389.767 520.985 387.835 519.91 386.624C519.489 386.101 518.936 385.679 518.299 385.396C517.661 385.113 516.958 384.977 516.25 385H516.235C515.529 384.979 514.829 385.116 514.194 385.399C513.559 385.682 513.009 386.102 512.59 386.624Z" fill="#45AFBE"/>
<rect x="539" y="351" width="103" height="104" rx="9" fill="#45AFBE"/>
<rect x="549" y="364" width="80" height="78" rx="4" fill="white"/>
<circle cx="621" cy="367" r="33" fill="white"/>
<path d="M659 368.5C659 389.763 641.763 407 620.5 407C599.237 407 582 389.763 582 368.5C582 347.237 599.237 330 620.5 330C641.763 330 659 347.237 659 368.5ZM591.38 368.5C591.38 384.583 604.417 397.62 620.5 397.62C636.583 397.62 649.62 384.583 649.62 368.5C649.62 352.417 636.583 339.38 620.5 339.38C604.417 339.38 591.38 352.417 591.38 368.5Z" fill="#45AFBE"/>
<rect x="713" y="352" width="87" height="80" fill="white"/>
<path d="M747.111 427.444H760.889L762.956 417.111C764.333 416.537 765.626 415.935 766.834 415.306C768.037 414.672 769.27 413.896 770.533 412.978L780.522 416.078L787.411 404.367L779.489 397.478C779.719 395.87 779.833 394.378 779.833 393C779.833 391.622 779.719 390.13 779.489 388.522L787.411 381.633L780.522 369.922L770.533 373.022C769.27 372.104 768.037 371.328 766.834 370.694C765.626 370.065 764.333 369.463 762.956 368.889L760.889 358.556H747.111L745.044 368.889C743.667 369.463 742.374 370.065 741.166 370.694C739.963 371.328 738.73 372.104 737.467 373.022L727.478 369.922L720.589 381.633L728.511 388.522C728.281 390.13 728.167 391.622 728.167 393C728.167 394.378 728.281 395.87 728.511 397.478L720.589 404.367L727.478 416.078L737.467 412.978C738.73 413.896 739.963 414.672 741.166 415.306C742.374 415.935 743.667 416.537 745.044 417.111L747.111 427.444ZM754 406.778C750.211 406.778 746.969 405.428 744.273 402.727C741.572 400.031 740.222 396.789 740.222 393C740.222 389.211 741.572 385.966 744.273 383.266C746.969 380.57 750.211 379.222 754 379.222C757.789 379.222 761.034 380.57 763.734 383.266C766.43 385.966 767.778 389.211 767.778 393C767.778 396.789 766.43 400.031 763.734 402.727C761.034 405.428 757.789 406.778 754 406.778ZM705.778 455C701.989 455 698.744 453.652 696.044 450.956C693.348 448.256 692 445.011 692 441.222V344.778C692 340.989 693.348 337.744 696.044 335.044C698.744 332.348 701.989 331 705.778 331H802.222C806.011 331 809.256 332.348 811.956 335.044C814.652 337.744 816 340.989 816 344.778V441.222C816 445.011 814.652 448.256 811.956 450.956C809.256 453.652 806.011 455 802.222 455H705.778Z" fill="#45AFBE"/>
</svg>
