<svg width="1024" height="1024" viewBox="0 0 1024 1024" fill="none" xmlns="http://www.w3.org/2000/svg">
<rect width="1024" height="1024" fill="#FAFAFA"/>
<rect x="288" y="289.42" width="501" height="513" rx="93" fill="#B5E0E6"/>
<rect x="172" y="167" width="367.676" height="370.757" rx="13" fill="#45AFBE"/>
<rect x="184.324" y="184.459" width="343.027" height="337.892" rx="13" fill="#FAFAFA"/>
<rect x="202.811" y="335.432" width="290.649" height="170.486" rx="13" fill="#B5E0E6"/>
<path d="M202.811 348.432C202.811 341.253 208.631 335.432 215.811 335.432H480.46C487.639 335.432 493.46 341.253 493.46 348.432V389.865H202.811V348.432Z" fill="#A3CFD6"/>
<path d="M172 182.054C172 174.874 177.82 169.054 185 169.054H526.676C533.855 169.054 539.676 174.874 539.676 182.054V223.487H172V182.054Z" fill="#45AFBE"/>
<rect x="202.811" y="252.243" width="156.108" height="42.1081" rx="13" fill="#B5E0E6"/>
<rect x="202.811" y="300.513" width="92.4324" height="21.5676" rx="10.7838" fill="#B5E0E6"/>
<rect x="230.541" y="410.405" width="129.405" height="17.4595" rx="8.72973" fill="#FAFAFA"/>
<rect x="370.216" y="410.405" width="129.405" height="66.7568" rx="12" fill="#FAFAFA"/>
<rect x="230.541" y="437.108" width="129.405" height="17.4595" rx="8.72973" fill="#FAFAFA"/>
<rect x="230.541" y="463.811" width="129.405" height="17.4595" rx="8.72973" fill="#FAFAFA"/>
<rect x="385.622" y="252.243" width="114" height="59.5676" rx="13" fill="#B5E0E6"/>
<rect x="526.324" y="522.351" width="367.676" height="370.757" rx="13" fill="#45AFBE"/>
<rect x="538.648" y="539.811" width="343.027" height="337.892" rx="13" fill="#FAFAFA"/>
<rect x="558.41" y="751.434" width="304.922" height="110.403" rx="13" fill="#B5E0E6"/>
<path d="M526.324 537.405C526.324 530.226 532.145 524.405 539.324 524.405H881C888.18 524.405 894 530.226 894 537.405V578.838H526.324V537.405Z" fill="#45AFBE"/>
<rect x="572.541" y="667.162" width="178.703" height="17.4595" rx="8.72973" fill="#B5E0E6"/>
<rect x="572.541" y="693.865" width="139.676" height="17.4595" rx="8.72973" fill="#B5E0E6"/>
<rect x="572.541" y="720.568" width="223.892" height="17.4595" rx="8.72973" fill="#B5E0E6"/>
<rect x="777.946" y="604.514" width="80.1081" height="80.1081" rx="13" fill="#B5E0E6"/>
<rect x="572.541" y="604.514" width="137.622" height="53.4054" rx="13" fill="#B5E0E6"/>
<path d="M558.41 761.806C558.41 754.626 564.23 748.806 571.41 748.806H850.332C857.512 748.806 863.332 754.626 863.332 761.806V783.854H558.41V761.806Z" fill="#A3CFD6"/>
<path d="M467.348 400.269L445.182 378.076C441.276 374.165 434.938 374.165 431.032 378.076L383.604 425.561C379.705 429.465 379.705 435.79 383.604 439.694L404.447 460.563C405.266 461.382 405.54 462.6 405.15 463.691L398.803 481.485C398.377 482.68 397.246 483.477 395.977 483.477H365C359.477 483.477 355 487.954 355 493.477V562.335C355 567.858 359.477 572.335 365 572.335H398.092L405.788 595.448L382.578 618.686C378.679 622.59 378.679 628.915 382.578 632.819L431.032 681.331C434.938 685.242 441.276 685.242 445.182 681.331L467.348 659.138L488.895 669.411V697.42C488.895 702.943 493.372 707.42 498.895 707.42H570.21C575.732 707.42 580.21 702.943 580.21 697.42V669.411L600.73 659.138L622.896 681.331C626.802 685.242 633.14 685.242 637.046 681.331L685.5 632.819C689.399 628.915 689.399 622.59 685.5 618.686L662.29 595.448L672.038 572.335H700C705.523 572.335 710 567.858 710 562.335V493.477C710 487.954 705.523 483.477 700 483.477H672.038L662.29 461.905L684.995 440.713C689.13 436.854 689.244 430.337 685.248 426.336L637.046 378.076C633.14 374.165 626.802 374.165 622.896 378.076L600.73 400.269L575.079 392.051V359.42C575.079 353.897 570.602 349.42 565.079 349.42H498.895C493.372 349.42 488.895 353.897 488.895 359.42V392.051L467.348 400.269Z" fill="#45AFBE"/>
<ellipse cx="533" cy="529.92" rx="117" ry="119.5" fill="#FAFAFA"/>
<path d="M504.391 548.81H453.922L445.953 563.42H436.656L473.844 499.67H484.469L521.656 563.42H512.359L504.391 548.81ZM500.406 542.17L479.156 504.982L457.906 542.17H500.406ZM532.281 499.67H580.177C584.133 499.67 587.468 499.85 590.179 500.209C592.918 500.541 595.174 501.053 596.944 501.745C598.715 502.437 600.071 503.294 601.012 504.318C601.98 505.342 602.686 506.545 603.128 507.929C603.571 509.312 603.82 510.862 603.875 512.577C603.958 514.293 604 516.188 604 518.263C604 520.422 603.945 522.414 603.834 524.24C603.751 526.066 603.433 527.726 602.879 529.22C602.354 530.687 601.496 531.987 600.306 533.122C599.144 534.229 597.47 535.156 595.284 535.903C593.126 536.65 590.373 537.217 587.025 537.604C583.705 537.992 579.61 538.185 574.74 538.185H540.25V563.42H532.281V499.67ZM540.25 531.545H574.74C578.281 531.545 581.256 531.489 583.663 531.379C586.098 531.24 588.104 531.005 589.681 530.673C591.258 530.341 592.476 529.871 593.333 529.262C594.191 528.653 594.814 527.851 595.201 526.855C595.616 525.859 595.851 524.669 595.907 523.285C595.99 521.874 596.031 520.2 596.031 518.263C596.031 516.465 595.99 514.915 595.907 513.615C595.851 512.315 595.616 511.222 595.201 510.336C594.814 509.451 594.191 508.745 593.333 508.219C592.476 507.694 591.258 507.293 589.681 507.016C588.104 506.712 586.098 506.518 583.663 506.435C581.256 506.352 578.281 506.31 574.74 506.31H540.25V531.545ZM614.625 499.67H622.594V563.42H614.625V499.67Z" fill="#45AFBE"/>
<path d="M504.391 548.81L508.78 546.416L507.359 543.81H504.391V548.81ZM453.922 548.81V543.81H450.954L449.532 546.416L453.922 548.81ZM445.953 563.42V568.42H448.921L450.343 565.814L445.953 563.42ZM436.656 563.42L432.337 560.9L427.951 568.42H436.656V563.42ZM473.844 499.67V494.67H470.972L469.525 497.15L473.844 499.67ZM484.469 499.67L488.788 497.15L487.341 494.67H484.469V499.67ZM521.656 563.42V568.42H530.361L525.975 560.9L521.656 563.42ZM512.359 563.42L507.97 565.814L509.391 568.42H512.359V563.42ZM500.406 542.17V547.17H509.022L504.747 539.689L500.406 542.17ZM479.156 504.982L483.497 502.501L479.156 494.904L474.815 502.501L479.156 504.982ZM457.906 542.17L453.565 539.689L449.29 547.17H457.906V542.17ZM504.391 543.81H453.922V553.81H504.391V543.81ZM449.532 546.416L441.564 561.025L450.343 565.814L458.311 551.205L449.532 546.416ZM445.953 558.42H436.656V568.42H445.953V558.42ZM440.975 565.939L478.163 502.189L469.525 497.15L432.337 560.9L440.975 565.939ZM473.844 504.67H484.469V494.67H473.844V504.67ZM480.15 502.189L517.337 565.939L525.975 560.9L488.788 497.15L480.15 502.189ZM521.656 558.42H512.359V568.42H521.656V558.42ZM516.749 561.025L508.78 546.416L500.001 551.205L507.97 565.814L516.749 561.025ZM504.747 539.689L483.497 502.501L474.815 507.463L496.065 544.65L504.747 539.689ZM474.815 502.501L453.565 539.689L462.247 544.65L483.497 507.463L474.815 502.501ZM457.906 547.17H500.406V537.17H457.906V547.17ZM532.281 499.67V494.67H527.281V499.67H532.281ZM590.179 500.209L589.522 505.166L589.55 505.17L589.578 505.173L590.179 500.209ZM601.012 504.318L597.33 507.701L597.355 507.728L597.379 507.754L601.012 504.318ZM603.875 512.577L598.878 512.739L598.879 512.779L598.881 512.819L603.875 512.577ZM603.834 524.24L598.843 523.938L598.841 523.975L598.839 524.013L603.834 524.24ZM602.879 529.22L598.191 527.484L598.182 527.508L598.173 527.533L602.879 529.22ZM600.306 533.122L603.754 536.743L603.757 536.741L600.306 533.122ZM595.284 535.903L593.667 531.171L593.658 531.174L593.649 531.178L595.284 535.903ZM587.025 537.604L586.45 532.637L586.445 532.638L587.025 537.604ZM540.25 538.185V533.185H535.25V538.185H540.25ZM540.25 563.42V568.42H545.25V563.42H540.25ZM532.281 563.42H527.281V568.42H532.281V563.42ZM540.25 531.545H535.25V536.545H540.25V531.545ZM583.663 531.379L583.893 536.373L583.92 536.372L583.947 536.371L583.663 531.379ZM595.201 526.855L590.586 524.932L590.563 524.987L590.541 525.043L595.201 526.855ZM595.907 523.285L590.915 522.992L590.913 523.039L590.911 523.086L595.907 523.285ZM595.907 513.615L590.911 513.828L590.914 513.881L590.917 513.933L595.907 513.615ZM595.201 510.336L590.62 512.34L590.646 512.4L590.674 512.458L595.201 510.336ZM589.681 507.016L588.734 511.925L588.775 511.933L588.817 511.941L589.681 507.016ZM583.663 506.435L583.491 511.432L583.493 511.432L583.663 506.435ZM540.25 506.31V501.31H535.25V506.31H540.25ZM532.281 504.67H580.177V494.67H532.281V504.67ZM580.177 504.67C584.001 504.67 587.101 504.845 589.522 505.166L590.837 495.253C587.835 494.854 584.265 494.67 580.177 494.67V504.67ZM589.578 505.173C592.069 505.475 593.878 505.915 595.125 506.402L598.764 497.088C596.469 496.191 593.768 495.608 590.781 495.246L589.578 505.173ZM595.125 506.402C596.433 506.913 597.058 507.406 597.33 507.701L604.693 500.935C603.084 499.183 600.997 497.96 598.764 497.088L595.125 506.402ZM597.379 507.754C597.817 508.216 598.145 508.761 598.366 509.453L607.891 506.405C607.227 504.33 606.144 502.468 604.644 500.882L597.379 507.754ZM598.366 509.453C598.645 510.324 598.835 511.405 598.878 512.739L608.873 512.416C608.805 510.319 608.497 508.301 607.891 506.405L598.366 509.453ZM598.881 512.819C598.96 514.44 599 516.253 599 518.263H609C609 516.124 608.957 514.146 608.87 512.336L598.881 512.819ZM599 518.263C599 520.338 598.947 522.228 598.843 523.938L608.825 524.542C608.943 522.6 609 520.505 609 518.263H599ZM598.839 524.013C598.776 525.398 598.54 526.539 598.191 527.484L607.568 530.957C608.325 528.913 608.726 526.735 608.829 524.467L598.839 524.013ZM598.173 527.533C597.924 528.226 597.514 528.875 596.856 529.503L603.757 536.741C605.478 535.099 606.783 533.148 607.586 530.908L598.173 527.533ZM596.858 529.501C596.396 529.941 595.447 530.563 593.667 531.171L596.901 540.634C599.493 539.748 601.892 538.516 603.754 536.743L596.858 529.501ZM593.649 531.178C591.955 531.764 589.59 532.274 586.45 532.637L587.6 542.571C591.155 542.16 594.297 541.535 596.92 540.628L593.649 531.178ZM586.445 532.638C583.383 532.995 579.495 533.185 574.74 533.185V543.185C579.724 543.185 584.027 542.988 587.604 542.571L586.445 532.638ZM574.74 533.185H540.25V543.185H574.74V533.185ZM535.25 538.185V563.42H545.25V538.185H535.25ZM540.25 558.42H532.281V568.42H540.25V558.42ZM537.281 563.42V499.67H527.281V563.42H537.281ZM540.25 536.545H574.74V526.545H540.25V536.545ZM574.74 536.545C578.326 536.545 581.383 536.489 583.893 536.373L583.433 526.384C581.129 526.49 578.237 526.545 574.74 526.545V536.545ZM583.947 536.371C586.519 536.224 588.798 535.969 590.711 535.566L588.651 525.78C587.41 526.042 585.677 526.256 583.379 526.387L583.947 536.371ZM590.711 535.566C592.638 535.16 594.594 534.499 596.227 533.339L590.44 525.184C590.358 525.243 589.879 525.522 588.651 525.78L590.711 535.566ZM596.227 533.339C597.896 532.155 599.125 530.559 599.861 528.667L590.541 525.043C590.513 525.115 590.494 525.138 590.493 525.139C590.491 525.141 590.489 525.144 590.483 525.15C590.477 525.156 590.464 525.168 590.44 525.184L596.227 533.339ZM599.817 528.778C600.514 527.104 600.83 525.301 600.903 523.485L590.911 523.086C590.873 524.036 590.718 524.613 590.586 524.932L599.817 528.778ZM600.898 523.579C600.989 522.042 601.031 520.265 601.031 518.263H591.031C591.031 520.135 590.991 521.707 590.915 522.992L600.898 523.579ZM601.031 518.263C601.031 516.395 600.988 514.734 600.897 513.296L590.917 513.933C590.991 515.097 591.031 516.534 591.031 518.263H601.031ZM600.902 513.402C600.828 511.648 600.501 509.862 599.728 508.214L590.674 512.458C590.732 512.582 590.875 512.981 590.911 513.828L600.902 513.402ZM599.782 508.332C598.967 506.47 597.638 504.993 595.946 503.956L590.721 512.482C590.755 512.503 590.734 512.496 590.695 512.451C590.676 512.43 590.659 512.408 590.645 512.385C590.631 512.363 590.623 512.347 590.62 512.34L599.782 508.332ZM595.946 503.956C594.33 502.966 592.418 502.42 590.545 502.091L588.817 511.941C590.098 512.165 590.622 512.422 590.721 512.482L595.946 503.956ZM590.629 502.106C588.7 501.734 586.411 501.526 583.833 501.438L583.493 511.432C585.785 511.51 587.508 511.689 588.734 511.925L590.629 502.106ZM583.835 501.438C581.351 501.352 578.315 501.31 574.74 501.31V511.31C578.248 511.31 581.161 511.351 583.491 511.432L583.835 501.438ZM574.74 501.31H540.25V511.31H574.74V501.31ZM535.25 506.31V531.545H545.25V506.31H535.25ZM614.625 499.67V494.67H609.625V499.67H614.625ZM622.594 499.67H627.594V494.67H622.594V499.67ZM622.594 563.42V568.42H627.594V563.42H622.594ZM614.625 563.42H609.625V568.42H614.625V563.42ZM614.625 504.67H622.594V494.67H614.625V504.67ZM617.594 499.67V563.42H627.594V499.67H617.594ZM622.594 558.42H614.625V568.42H622.594V558.42ZM619.625 563.42V499.67H609.625V563.42H619.625Z" fill="#45AFBE"/>
</svg>
