<svg width="3211" height="2934" viewBox="0 0 3211 2934" fill="none" xmlns="http://www.w3.org/2000/svg">
<path d="M3210.99 2933.33H0V9.34601e-05H3210.99V2933.33Z" fill="white"/>
<path d="M2566.24 2641.19C2566.24 2641.19 3388.33 612.387 1879.69 749.72C1233.53 808.547 1354.16 1165.37 1068.78 1499.25C883.798 1715.67 528.026 1538.63 394.703 1727.73C261.38 1916.85 418.056 2456.08 473.015 2641.19H2566.24Z" fill="#E5F0F8"/>
<path d="M2066.24 840H2054.23" stroke="#51D4E7" stroke-width="8.00885" stroke-miterlimit="10"/>
<path d="M2030.32 840H1632.36C1613.89 840 1598.93 854.96 1598.93 873.427V939.027C1598.93 957.48 1583.97 972.454 1565.51 972.454H950.678" stroke="#51D4E7" stroke-width="8.00885" stroke-miterlimit="10" stroke-dasharray="23.91 23.91"/>
<path d="M938.724 972.454H926.709" stroke="#51D4E7" stroke-width="8.00885" stroke-miterlimit="10"/>
<path d="M2524.93 747.453H2034.47C2028.67 747.453 2023.96 754.706 2023.96 763.666V801.227V1135.36H2535.44V801.227V763.666C2535.44 754.706 2530.73 747.453 2524.93 747.453Z" fill="#51D4E7"/>
<path d="M2030.79 783.907V1126.87H2528.6V783.907H2030.79Z" fill="white"/>
<path d="M2493.15 778.6L2515.79 755.973" stroke="white" stroke-width="3.62887" stroke-miterlimit="10" stroke-linecap="round" stroke-linejoin="round"/>
<path d="M2515.79 778.6L2493.15 755.973" stroke="white" stroke-width="3.62887" stroke-miterlimit="10" stroke-linecap="round" stroke-linejoin="round"/>
<path d="M2146.32 891.747H2145.79L2088.52 985.613H2146.32V891.747ZM2146.32 1007.89H2066.24V981.907L2141.01 861.507H2171.77V985.613H2198.29V1007.89H2171.77V1049.25H2146.32V1007.89Z" fill="#51D4E7"/>
<path d="M2239.12 955.387C2239.12 961.573 2239.53 968.92 2240.32 977.4C2241.12 985.88 2242.83 994.053 2245.48 1001.93C2248.13 1009.79 2252.07 1016.48 2257.29 1021.93C2262.51 1027.41 2269.52 1030.16 2278.37 1030.16C2287.21 1030.16 2294.23 1027.41 2299.45 1021.93C2304.65 1016.48 2308.6 1009.79 2311.25 1001.93C2313.91 994.053 2315.64 985.88 2316.41 977.4C2317.21 968.92 2317.63 961.573 2317.63 955.387C2317.63 951.133 2317.49 946.32 2317.21 940.92C2316.96 935.547 2316.33 930.067 2315.36 924.48C2314.39 918.92 2313.03 913.547 2311.25 908.32C2309.49 903.093 2307.13 898.413 2304.23 894.267C2301.31 890.107 2297.73 886.8 2293.48 884.32C2289.25 881.84 2284.2 880.613 2278.37 880.613C2272.55 880.613 2267.49 881.84 2263.27 884.32C2259.01 886.8 2255.43 890.107 2252.52 894.267C2249.6 898.413 2247.25 903.093 2245.48 908.32C2243.72 913.547 2242.36 918.92 2241.39 924.48C2240.41 930.067 2239.79 935.547 2239.53 940.92C2239.27 946.32 2239.12 951.133 2239.12 955.387ZM2213.68 955.387C2213.68 948.493 2214.03 941.333 2214.73 933.907C2215.44 926.493 2216.72 919.2 2218.57 912.027C2220.43 904.867 2222.91 898.027 2226 891.493C2229.08 884.947 2233.08 879.227 2237.93 874.373C2242.79 869.52 2248.55 865.64 2255.17 862.693C2261.8 859.787 2269.52 858.347 2278.37 858.347C2287.21 858.347 2294.95 859.787 2301.57 862.693C2308.2 865.64 2313.96 869.52 2318.81 874.373C2323.67 879.227 2327.65 884.947 2330.75 891.493C2333.83 898.027 2336.31 904.867 2338.17 912.027C2340.03 919.2 2341.29 926.493 2342.01 933.907C2342.72 941.333 2343.07 948.493 2343.07 955.387C2343.07 965.293 2342.19 975.88 2340.41 987.213C2338.64 998.52 2335.39 1009.03 2330.61 1018.76C2325.84 1028.49 2319.24 1036.52 2310.85 1042.89C2302.45 1049.25 2291.63 1052.43 2278.37 1052.43C2265.12 1052.43 2254.29 1049.25 2245.89 1042.89C2237.49 1036.52 2230.92 1028.49 2226.13 1018.76C2221.36 1009.03 2218.08 998.52 2216.33 987.213C2214.56 975.88 2213.68 965.293 2213.68 955.387Z" fill="#51D4E7"/>
<path d="M2441.19 891.747H2440.65L2383.37 985.613H2441.19V891.747ZM2441.19 1007.89H2361.11V981.907L2435.88 861.507H2466.63V985.613H2493.15V1007.89H2466.63V1049.25H2441.19V1007.89Z" fill="#51D4E7"/>
<path d="M1668.47 2589H1358.05V2169.39H1668.47V2589Z" fill="#363545"/>
<path d="M2305.2 2347.27H721.329C626.949 2347.27 550.438 2270.76 550.438 2176.37V1264.53C550.438 1170.15 626.949 1093.64 721.329 1093.64H2305.2C2399.59 1093.64 2476.09 1170.15 2476.09 1264.53V2176.37C2476.09 2270.76 2399.59 2347.27 2305.2 2347.27Z" fill="#363545"/>
<path d="M1146.73 2552.97H1879.8C1886.37 2552.97 1891.69 2558.31 1891.69 2564.88V2623.4C1891.69 2629.97 1886.37 2635.29 1879.8 2635.29H1146.73C1140.16 2635.29 1134.83 2629.97 1134.83 2623.4V2564.88C1134.83 2558.31 1140.16 2552.97 1146.73 2552.97Z" fill="#363545"/>
<path d="M1721.24 2589H1410.83V2169.39H1721.24V2589Z" fill="#19697B"/>
<path d="M2357.97 2347.27H774.103C679.723 2347.27 603.211 2270.76 603.211 2176.37V1264.53C603.211 1170.15 679.723 1093.64 774.103 1093.64H2357.97C2452.36 1093.64 2528.87 1170.15 2528.87 1264.53V2176.37C2528.87 2270.76 2452.36 2347.27 2357.97 2347.27Z" fill="#19697B"/>
<path d="M774.104 2283.2C715.204 2283.2 667.284 2235.28 667.284 2176.37V1264.53C667.284 1205.63 715.204 1157.71 774.104 1157.71H2357.97C2416.87 1157.71 2464.79 1205.63 2464.79 1264.53V2176.37C2464.79 2235.28 2416.87 2283.2 2357.97 2283.2H774.104Z" fill="#E5F0F8"/>
<path d="M2424.71 1264.56V2176.41C2424.71 2213.13 2394.8 2243.04 2358 2243.04H774.125C737.324 2243.04 707.412 2213.13 707.412 2176.41V1264.56C707.412 1227.76 737.324 1197.84 774.125 1197.84H2358C2394.8 1197.84 2424.71 1227.76 2424.71 1264.56Z" fill="white"/>
<path d="M1199.5 2552.97H1932.57C1939.15 2552.97 1944.47 2558.31 1944.47 2564.88V2623.4C1944.47 2629.97 1939.15 2635.29 1932.57 2635.29H1199.5C1192.93 2635.29 1187.61 2629.97 1187.61 2623.4V2564.88C1187.61 2558.31 1192.93 2552.97 1199.5 2552.97Z" fill="#19697B"/>
<path d="M2424.71 1264.56V1290.31H707.412V1264.56C707.412 1227.76 737.324 1197.84 774.125 1197.84H2358C2394.8 1197.84 2424.71 1227.76 2424.71 1264.56Z" fill="#51D4E7"/>
<path d="M1121.01 1479.81H745.914C738.025 1479.81 731.629 1473.41 731.629 1465.52V1325.01C731.629 1317.12 738.025 1310.72 745.914 1310.72H1121.01C1128.9 1310.72 1135.29 1317.12 1135.29 1325.01V1465.52C1135.29 1473.41 1128.9 1479.81 1121.01 1479.81Z" fill="#E5F0F8"/>
<path d="M1105.86 2220.27H761.061C744.806 2220.27 731.629 2207.08 731.629 2190.83V1531.92C731.629 1515.67 744.806 1502.49 761.061 1502.49H1105.86C1122.11 1502.49 1135.29 1515.67 1135.29 1531.92V2190.83C1135.29 2207.08 1122.11 2220.27 1105.86 2220.27Z" fill="#E5F0F8"/>
<path d="M1183.08 1616.85H2380.69C2389.35 1616.85 2396.35 1609.85 2396.35 1601.2V1326.39C2396.35 1317.73 2389.35 1310.72 2380.69 1310.72H1183.08C1174.43 1310.72 1167.42 1317.73 1167.42 1326.39V1601.2C1167.42 1609.85 1174.43 1616.85 1183.08 1616.85Z" fill="#E5F0F8"/>
<path d="M1415.37 1347.53L1401.83 1374.63H1201.89V1580.05H1514.77V1374.63H1493.31V1347.53H1415.37Z" fill="white"/>
<path d="M2362 1368.04H1555.35V1347.53H2362V1368.04Z" fill="white"/>
<path d="M2362 1410.45H1555.35V1389.93H2362V1410.45Z" fill="white"/>
<path d="M2362 1452.85H1555.35V1432.33H2362V1452.85Z" fill="white"/>
<path d="M2362 1495.25H1555.35V1474.73H2362V1495.25Z" fill="white"/>
<path d="M2362 1537.65H1555.35V1517.13H2362V1537.65Z" fill="white"/>
<path d="M1909 1580.05H1555.35V1559.53H1909V1580.05Z" fill="white"/>
<path d="M2377.83 1813.48H1186.21C1175.98 1813.48 1167.69 1805.19 1167.69 1794.96V1663.56C1167.69 1653.32 1175.98 1645.03 1186.21 1645.03H2377.83C2388.05 1645.03 2396.35 1653.32 2396.35 1663.56V1794.96C2396.35 1805.19 2388.05 1813.48 2377.83 1813.48Z" fill="#E5F0F8"/>
<path d="M1342.08 1792.43H1201.89V1666.08H1342.08V1792.43Z" fill="white"/>
<path d="M1393.77 1693.61H1366.24V1666.08H1393.77V1693.61Z" fill="white"/>
<path d="M1393.77 1743.03H1366.24V1715.49H1393.77V1743.03Z" fill="white"/>
<path d="M1393.77 1792.43H1366.24V1764.89H1393.77V1792.43Z" fill="white"/>
<path d="M2362 1679.85H1417.13V1666.08H2362V1679.85Z" fill="white"/>
<path d="M2362 1778.65H1417.13V1764.89H2362V1778.65Z" fill="white"/>
<path d="M2362 1729.25H1417.13V1715.49H2362V1729.25Z" fill="white"/>
<path d="M2377.83 2016.87H1186.21C1175.98 2016.87 1167.69 2008.57 1167.69 1998.35V1866.95C1167.69 1856.71 1175.98 1848.41 1186.21 1848.41H2377.83C2388.05 1848.41 2396.35 1856.71 2396.35 1866.95V1998.35C2396.35 2008.57 2388.05 2016.87 2377.83 2016.87Z" fill="#E5F0F8"/>
<path d="M1342.08 1995.81H1201.89V1869.48H1342.08V1995.81Z" fill="white"/>
<path d="M1393.77 1897.01H1366.24V1869.48H1393.77V1897.01Z" fill="white"/>
<path d="M1393.77 1946.41H1366.24V1918.88H1393.77V1946.41Z" fill="white"/>
<path d="M1393.77 1995.81H1366.24V1968.28H1393.77V1995.81Z" fill="white"/>
<path d="M2362 1883.24H1417.13V1869.48H2362V1883.24Z" fill="white"/>
<path d="M2362 1982.05H1417.13V1968.28H2362V1982.05Z" fill="white"/>
<path d="M2362 1932.64H1417.13V1918.88H2362V1932.64Z" fill="white"/>
<path d="M2377.83 2220.27H1186.21C1175.98 2220.27 1167.69 2211.97 1167.69 2201.73V2070.33C1167.69 2060.11 1175.98 2051.81 1186.21 2051.81H2377.83C2388.05 2051.81 2396.35 2060.11 2396.35 2070.33V2201.73C2396.35 2211.97 2388.05 2220.27 2377.83 2220.27Z" fill="#E5F0F8"/>
<path d="M1342.08 2199.2H1201.89V2072.87H1342.08V2199.2Z" fill="white"/>
<path d="M1393.77 2100.4H1366.24V2072.87H1393.77V2100.4Z" fill="white"/>
<path d="M1393.77 2149.8H1366.24V2122.27H1393.77V2149.8Z" fill="white"/>
<path d="M1393.77 2199.2H1366.24V2171.67H1393.77V2199.2Z" fill="white"/>
<path d="M2362 2086.63H1417.13V2072.87H2362V2086.63Z" fill="white"/>
<path d="M2362 2185.44H1417.13V2171.67H2362V2185.44Z" fill="white"/>
<path d="M2362 2136.04H1417.13V2122.27H2362V2136.04Z" fill="white"/>
<path d="M969.401 1351.85H764.412V1335.05H969.401V1351.85Z" fill="white"/>
<path d="M1030.44 1385.32H764.412V1368.53H1030.44V1385.32Z" fill="white"/>
<path d="M891.787 1418.8H764.412V1402H891.787V1418.8Z" fill="white"/>
<path d="M812.957 1452.28H764.412V1435.48H812.957V1452.28Z" fill="white"/>
<path d="M1106.68 1452.28H1058.13V1435.48H1106.68V1452.28Z" fill="white"/>
<path d="M887.094 1556.71H772.758V1534.29H887.094V1556.71Z" fill="white"/>
<path d="M1095.34 1606.4H805.638V1591.08H1095.34V1606.4Z" fill="white"/>
<path d="M792.094 1610.43H772.758V1591.08H792.094V1610.43Z" fill="white"/>
<path d="M1095.34 1640.4H805.638V1625.09H1095.34V1640.4Z" fill="white"/>
<path d="M792.094 1644.43H772.758V1625.09H792.094V1644.43Z" fill="white"/>
<path d="M1095.34 1674.41H805.638V1659.09H1095.34V1674.41Z" fill="white"/>
<path d="M792.094 1678.43H772.758V1659.09H792.094V1678.43Z" fill="white"/>
<path d="M1095.34 1708.41H805.638V1693.09H1095.34V1708.41Z" fill="white"/>
<path d="M792.094 1712.43H772.758V1693.09H792.094V1712.43Z" fill="white"/>
<path d="M1095.34 1742.41H805.638V1727.09H1095.34V1742.41Z" fill="white"/>
<path d="M792.094 1746.43H772.758V1727.09H792.094V1746.43Z" fill="white"/>
<path d="M1095.34 1776.41H805.638V1761.09H1095.34V1776.41Z" fill="white"/>
<path d="M792.094 1780.43H772.758V1761.09H792.094V1780.43Z" fill="white"/>
<path d="M1095.34 1810.41H805.638V1795.09H1095.34V1810.41Z" fill="white"/>
<path d="M792.094 1814.44H772.758V1795.09H792.094V1814.44Z" fill="white"/>
<path d="M1095.34 1844.43H805.638V1829.11H1095.34V1844.43Z" fill="white"/>
<path d="M792.094 1848.44H772.758V1829.11H792.094V1848.44Z" fill="white"/>
<path d="M1095.34 1878.43H805.638V1863.11H1095.34V1878.43Z" fill="white"/>
<path d="M792.094 1882.44H772.758V1863.11H792.094V1882.44Z" fill="white"/>
<path d="M1095.34 1912.43H805.638V1897.11H1095.34V1912.43Z" fill="white"/>
<path d="M792.094 1916.44H772.758V1897.11H792.094V1916.44Z" fill="white"/>
<path d="M1095.34 1946.43H805.638V1931.11H1095.34V1946.43Z" fill="white"/>
<path d="M792.094 1950.44H772.758V1931.11H792.094V1950.44Z" fill="white"/>
<path d="M1095.34 1980.43H805.638V1965.11H1095.34V1980.43Z" fill="white"/>
<path d="M792.094 1984.44H772.758V1965.11H792.094V1984.44Z" fill="white"/>
<path d="M1095.34 2014.43H805.638V1999.11H1095.34V2014.43Z" fill="white"/>
<path d="M792.094 2018.45H772.758V1999.11H792.094V2018.45Z" fill="white"/>
<path d="M1095.34 2048.44H805.638V2033.12H1095.34V2048.44Z" fill="white"/>
<path d="M792.094 2052.45H772.758V2033.12H792.094V2052.45Z" fill="white"/>
<path d="M1095.34 2082.44H805.638V2067.12H1095.34V2082.44Z" fill="white"/>
<path d="M792.094 2086.45H772.758V2067.12H792.094V2086.45Z" fill="white"/>
<path d="M1095.34 2116.44H805.638V2101.12H1095.34V2116.44Z" fill="white"/>
<path d="M792.094 2120.45H772.758V2101.12H792.094V2120.45Z" fill="white"/>
<path d="M1095.34 2150.44H805.638V2135.12H1095.34V2150.44Z" fill="white"/>
<path d="M792.094 2154.45H772.758V2135.12H792.094V2154.45Z" fill="white"/>
<path d="M1095.34 2184.44H805.638V2169.12H1095.34V2184.44Z" fill="white"/>
<path d="M792.094 2188.47H772.758V2169.12H792.094V2188.47Z" fill="white"/>
<path d="M503.787 2645.27C503.787 2645.27 467.048 2498.71 375.467 2453.48C283.885 2408.25 186.14 2470.17 210.959 2535.28C232.361 2591.43 320.367 2522.4 388.84 2549.55C457.313 2576.69 468.107 2645.27 468.107 2645.27H503.787Z" fill="#45AFBE"/>
<path d="M228.663 2496.24C228.663 2496.24 326.954 2440.23 399.879 2492.01C472.804 2543.8 495.882 2645.27 495.882 2645.27" stroke="#B5E0E6" stroke-width="4.12672" stroke-miterlimit="10"/>
<path d="M244.516 2470.04L267.384 2480.01" stroke="#B5E0E6" stroke-width="4.12672" stroke-miterlimit="10"/>
<path d="M277.543 2448.68L323.092 2470.04" stroke="#B5E0E6" stroke-width="4.12672" stroke-miterlimit="10"/>
<path d="M345.978 2448.68L369.675 2476.67" stroke="#B5E0E6" stroke-width="4.12672" stroke-miterlimit="10"/>
<path d="M390.895 2467.44L401.547 2493.21" stroke="#B5E0E6" stroke-width="4.12672" stroke-miterlimit="10"/>
<path d="M255.95 2531.91L291.056 2473.83" stroke="#B5E0E6" stroke-width="4.12672" stroke-miterlimit="10"/>
<path d="M317.97 2523.59L350.167 2471.88" stroke="#B5E0E6" stroke-width="4.12672" stroke-miterlimit="10"/>
<path d="M372.664 2515.67L421.068 2509.64" stroke="#B5E0E6" stroke-width="4.12672" stroke-miterlimit="10"/>
<path d="M429.016 2544.99L456.762 2554.09" stroke="#B5E0E6" stroke-width="4.12672" stroke-miterlimit="10"/>
<path d="M547.63 2640.65C547.63 2640.65 573.554 2149.41 338.926 2212.72C104.296 2276.03 521.95 2540.77 521.594 2640.65H547.63Z" fill="#B5E0E6"/>
<path d="M538.148 2640.65C538.148 2640.65 529.956 2384 362.705 2257.09" stroke="#45AFBE" stroke-width="4.12672" stroke-miterlimit="10"/>
<path d="M436.061 2331.51L431.881 2243" stroke="#45AFBE" stroke-width="4.12672" stroke-miterlimit="10"/>
<path d="M304.84 2294.84L417.888 2309.57" stroke="#45AFBE" stroke-width="4.12672" stroke-miterlimit="10"/>
<path d="M348.804 2370.37L468.33 2384.29" stroke="#45AFBE" stroke-width="4.12672" stroke-miterlimit="10"/>
<path d="M408.566 2445.23L500.888 2458.27" stroke="#45AFBE" stroke-width="4.12672" stroke-miterlimit="10"/>
<path d="M509.744 2375.28L488.584 2426.69" stroke="#45AFBE" stroke-width="4.12672" stroke-miterlimit="10"/>
<path d="M474.974 2291.84L456.934 2364.23" stroke="#45AFBE" stroke-width="4.12672" stroke-miterlimit="10"/>
<path d="M529.498 2461.11L512.64 2494.71" stroke="#45AFBE" stroke-width="4.12672" stroke-miterlimit="10"/>
<path d="M456.934 2514.61L523.09 2535.47" stroke="#45AFBE" stroke-width="4.12672" stroke-miterlimit="10"/>
<path d="M2707.2 2645.27C2707.2 2645.27 2743.93 2498.71 2835.52 2453.48C2927.09 2408.25 3024.84 2470.17 3000.03 2535.28C2978.61 2591.43 2890.61 2522.4 2822.15 2549.55C2753.67 2576.69 2742.88 2645.27 2742.88 2645.27H2707.2Z" fill="#45AFBE"/>
<path d="M2982.32 2496.24C2982.32 2496.24 2884.03 2440.23 2811.11 2492.01C2738.17 2543.8 2715.09 2645.27 2715.09 2645.27" stroke="#B5E0E6" stroke-width="4.12672" stroke-miterlimit="10"/>
<path d="M2966.47 2470.04L2943.6 2480.01" stroke="#B5E0E6" stroke-width="4.12672" stroke-miterlimit="10"/>
<path d="M2933.44 2448.68L2887.89 2470.04" stroke="#B5E0E6" stroke-width="4.12672" stroke-miterlimit="10"/>
<path d="M2865 2448.68L2841.31 2476.67" stroke="#B5E0E6" stroke-width="4.12672" stroke-miterlimit="10"/>
<path d="M2820.09 2467.44L2809.43 2493.21" stroke="#B5E0E6" stroke-width="4.12672" stroke-miterlimit="10"/>
<path d="M2955.03 2531.91L2919.92 2473.83" stroke="#B5E0E6" stroke-width="4.12672" stroke-miterlimit="10"/>
<path d="M2893.01 2523.59L2860.81 2471.88" stroke="#B5E0E6" stroke-width="4.12672" stroke-miterlimit="10"/>
<path d="M2838.32 2515.67L2789.91 2509.64" stroke="#B5E0E6" stroke-width="4.12672" stroke-miterlimit="10"/>
<path d="M2781.96 2544.99L2754.21 2554.09" stroke="#B5E0E6" stroke-width="4.12672" stroke-miterlimit="10"/>
<path d="M2663.35 2640.65C2663.35 2640.65 2637.43 2149.41 2872.05 2212.72C3106.68 2276.03 2689.03 2540.77 2689.39 2640.65H2663.35Z" fill="#B5E0E6"/>
<path d="M2672.83 2640.65C2672.83 2640.65 2681.03 2384 2848.28 2257.09" stroke="#45AFBE" stroke-width="4.12672" stroke-miterlimit="10"/>
<path d="M2774.92 2331.51L2779.09 2243" stroke="#45AFBE" stroke-width="4.12672" stroke-miterlimit="10"/>
<path d="M2906.15 2294.84L2793.09 2309.57" stroke="#45AFBE" stroke-width="4.12672" stroke-miterlimit="10"/>
<path d="M2862.17 2370.37L2742.65 2384.29" stroke="#45AFBE" stroke-width="4.12672" stroke-miterlimit="10"/>
<path d="M2802.41 2445.23L2710.09 2458.27" stroke="#45AFBE" stroke-width="4.12672" stroke-miterlimit="10"/>
<path d="M2701.24 2375.28L2722.4 2426.69" stroke="#45AFBE" stroke-width="4.12672" stroke-miterlimit="10"/>
<path d="M2736.01 2291.84L2754.05 2364.23" stroke="#45AFBE" stroke-width="4.12672" stroke-miterlimit="10"/>
<path d="M2681.48 2461.11L2698.35 2494.71" stroke="#45AFBE" stroke-width="4.12672" stroke-miterlimit="10"/>
<path d="M2754.05 2514.61L2687.89 2535.47" stroke="#45AFBE" stroke-width="4.12672" stroke-miterlimit="10"/>
<path d="M519.489 1254.96V1461.49C519.489 1480.13 504.372 1495.25 485.725 1495.25H468.045C449.399 1495.25 434.281 1510.37 434.281 1529.01V2014.67C434.281 2033.32 449.399 2048.44 468.045 2048.44C486.693 2048.44 501.809 2063.55 501.809 2082.2V2263.25C501.809 2281.91 516.927 2297.01 535.573 2297.01H816.203" stroke="#51D4E7" stroke-width="8.00885" stroke-miterlimit="10" stroke-dasharray="24.03 24.03"/>
<path d="M2262.57 2038.17V1783.16H2277.31C2281.85 1783.16 2285.55 1779.48 2285.55 1774.93V1761.93C2285.55 1757.39 2281.85 1753.69 2277.31 1753.69H2107.43C2102.88 1753.69 2099.19 1757.39 2099.19 1761.93V1774.93C2099.19 1779.48 2102.88 1783.16 2107.43 1783.16H2122.16V2038.17C2008.49 2069.01 1924.88 2172.87 1924.88 2296.29C1924.88 2444.03 2044.64 2563.77 2192.37 2563.77C2340.09 2563.77 2459.85 2444.03 2459.85 2296.29C2459.85 2172.87 2376.24 2069.01 2262.57 2038.17Z" fill="#51D4E7"/>
<path d="M1951.96 2268.8C1950.48 2279.61 1949.68 2290.61 1949.68 2301.76C1949.68 2435.57 2058.55 2544.45 2192.37 2544.45C2326.19 2544.45 2435.07 2435.57 2435.07 2301.76C2435.07 2290.61 2434.25 2279.61 2432.77 2268.8H1951.96Z" fill="#4A97A2"/>
<path d="M2454.39 2356.8H1930.35C1926.8 2356.8 1923.92 2353.92 1923.92 2350.37C1923.92 2346.83 1926.8 2343.95 1930.35 2343.95H2454.39C2457.93 2343.95 2460.81 2346.83 2460.81 2350.37C2460.81 2353.92 2457.93 2356.8 2454.39 2356.8Z" fill="#363545"/>
<path d="M1911.97 2641.19H1898.65L1976.97 2348.72L1989.4 2352.04L1911.97 2641.19Z" fill="#363545"/>
<path d="M2472.77 2641.19L2395.33 2352.04L2407.76 2348.72L2485.19 2637.87L2472.77 2641.19Z" fill="#363545"/>
<path d="M2198.8 2639.52H2185.93V2350.37H2198.8V2639.52Z" fill="#363545"/>
<path d="M2142.09 2436.71C2142.09 2444.84 2135.49 2451.44 2127.36 2451.44C2119.23 2451.44 2112.63 2444.84 2112.63 2436.71C2112.63 2428.57 2119.23 2421.97 2127.36 2421.97C2135.49 2421.97 2142.09 2428.57 2142.09 2436.71Z" fill="#F9ECB8"/>
<path d="M2263.69 2394.24C2263.69 2401.08 2258.15 2406.63 2251.31 2406.63C2244.47 2406.63 2238.92 2401.08 2238.92 2394.24C2238.92 2387.39 2244.47 2381.84 2251.31 2381.84C2258.15 2381.84 2263.69 2387.39 2263.69 2394.24Z" fill="#F9ECB8"/>
<path d="M2260.84 2289.36C2260.84 2298.93 2253.08 2306.69 2243.51 2306.69C2233.93 2306.69 2226.17 2298.93 2226.17 2289.36C2226.17 2279.79 2233.93 2272.01 2243.51 2272.01C2253.08 2272.01 2260.84 2279.79 2260.84 2289.36Z" fill="#F9ECB8"/>
<path d="M2152.49 2254.68C2152.49 2262.35 2146.29 2268.56 2138.63 2268.56C2130.97 2268.56 2124.76 2262.35 2124.76 2254.68C2124.76 2247.03 2130.97 2240.81 2138.63 2240.81C2146.29 2240.81 2152.49 2247.03 2152.49 2254.68Z" fill="#4A97A2"/>
<path d="M2288.57 2233.88C2288.57 2241.55 2282.37 2247.75 2274.71 2247.75C2267.05 2247.75 2260.84 2241.55 2260.84 2233.88C2260.84 2226.23 2267.05 2220.01 2274.71 2220.01C2282.37 2220.01 2288.57 2226.23 2288.57 2233.88Z" fill="#4A97A2"/>
<path d="M2368.76 2313.63C2368.76 2322.72 2361.39 2330.09 2352.28 2330.09C2343.19 2330.09 2335.81 2322.72 2335.81 2313.63C2335.81 2304.53 2343.19 2297.16 2352.28 2297.16C2361.39 2297.16 2368.76 2304.53 2368.76 2313.63Z" fill="#F9ECB8"/>
<path d="M2107.16 2158.73C2107.16 2165.77 2101.45 2171.48 2094.43 2171.48C2087.39 2171.48 2081.68 2165.77 2081.68 2158.73C2081.68 2151.71 2087.39 2146 2094.43 2146C2101.45 2146 2107.16 2151.71 2107.16 2158.73Z" fill="#4A97A2"/>
<path d="M2073.63 2261.61C2073.63 2269.28 2067.41 2275.49 2059.75 2275.49C2052.09 2275.49 2045.88 2269.28 2045.88 2261.61C2045.88 2253.96 2052.09 2247.75 2059.75 2247.75C2067.41 2247.75 2073.63 2253.96 2073.63 2261.61Z" fill="#4A97A2"/>
<path d="M2230.77 2148.93C2230.77 2154.35 2226.39 2158.73 2220.97 2158.73C2215.56 2158.73 2211.17 2154.35 2211.17 2148.93C2211.17 2143.53 2215.56 2139.15 2220.97 2139.15C2226.39 2139.15 2230.77 2143.53 2230.77 2148.93Z" fill="#4A97A2"/>
<path d="M2198.8 2070.93C2198.8 2078.03 2193.04 2083.79 2185.93 2083.79C2178.84 2083.79 2173.08 2078.03 2173.08 2070.93C2173.08 2063.83 2178.84 2058.07 2185.93 2058.07C2193.04 2058.07 2198.8 2063.83 2198.8 2070.93Z" fill="#4A97A2"/>
<path d="M2343.61 2171.48C2343.61 2176.99 2339.16 2181.44 2333.65 2181.44C2328.15 2181.44 2323.68 2176.99 2323.68 2171.48C2323.68 2165.97 2328.15 2161.51 2333.65 2161.51C2339.16 2161.51 2343.61 2165.97 2343.61 2171.48Z" fill="#4A97A2"/>
<path d="M2352.28 2402.91C2352.28 2409.84 2346.65 2415.47 2339.72 2415.47C2332.77 2415.47 2327.15 2409.84 2327.15 2402.91C2327.15 2395.96 2332.77 2390.33 2339.72 2390.33C2346.65 2390.33 2352.28 2395.96 2352.28 2402.91Z" fill="#F9ECB8"/>
<path d="M2303.53 2406.63C2303.53 2411.53 2299.56 2415.51 2294.64 2415.51C2289.73 2415.51 2285.76 2411.53 2285.76 2406.63C2285.76 2401.72 2289.73 2397.73 2294.64 2397.73C2299.56 2397.73 2303.53 2401.72 2303.53 2406.63Z" fill="#F9ECB8"/>
<path d="M2118.69 2319.69C2118.69 2323.04 2115.97 2325.76 2112.63 2325.76C2109.28 2325.76 2106.56 2323.04 2106.56 2319.69C2106.56 2316.35 2109.28 2313.63 2112.63 2313.63C2115.97 2313.63 2118.69 2316.35 2118.69 2319.69Z" fill="#F9ECB8"/>
<path d="M2300.71 2375.77C2300.71 2379.12 2298 2381.84 2294.64 2381.84C2291.29 2381.84 2288.57 2379.12 2288.57 2375.77C2288.57 2372.43 2291.29 2369.71 2294.64 2369.71C2298 2369.71 2300.71 2372.43 2300.71 2375.77Z" fill="#F9ECB8"/>
<path d="M2122.16 1783.16H2262.57L2122.16 1800.49V1783.16Z" fill="#19697B"/>
<path d="M2234.84 2031.05C2230.05 2031.05 2226.17 2027.17 2226.17 2022.39V1819.57C2226.17 1814.79 2230.05 1810.91 2234.84 1810.91C2239.63 1810.91 2243.51 1814.79 2243.51 1819.57V2022.39C2243.51 2027.17 2239.63 2031.05 2234.84 2031.05Z" fill="white"/>
<path d="M1530.36 2601.68H1528C1511.85 2601.68 1498.64 2614.89 1498.64 2631.04C1498.64 2632.44 1498.77 2633.79 1498.96 2635.12H1476.88C1476.95 2633.79 1476.95 2632.39 1476.95 2631.04C1476.95 2366.64 1262.58 2152.35 998.186 2152.35C733.788 2152.35 519.49 2366.64 519.49 2631.04C519.49 2632.39 519.49 2633.79 519.554 2635.12H497.472C497.663 2633.79 497.79 2632.44 497.79 2631.04C497.79 2614.89 484.582 2601.68 468.435 2601.68H466.01C467.478 2574.37 470.987 2547.69 476.476 2521.65L478.9 2522.29C494.472 2526.51 510.682 2517.12 514.831 2501.56C519.042 2485.92 509.662 2469.71 494.09 2465.56L491.728 2464.92C500.152 2439.15 510.554 2414.25 522.68 2390.39L524.723 2391.6C538.699 2399.71 556.76 2394.85 564.864 2380.81C572.904 2366.84 568.055 2348.77 554.078 2340.73L552.1 2339.59C566.906 2317.05 583.307 2295.68 601.304 2275.71L602.836 2277.24C614.258 2288.65 632.958 2288.65 644.38 2277.24C655.804 2265.81 655.804 2247.11 644.38 2235.69L642.847 2234.16C662.887 2216.16 684.203 2199.76 706.794 2185.01L707.879 2186.93C715.984 2200.91 733.982 2205.76 748.02 2197.65C761.996 2189.61 766.847 2171.56 758.742 2157.57L757.594 2155.53C781.46 2143.41 806.35 2133.01 832.068 2124.59L832.706 2126.95C836.919 2142.52 853.064 2151.89 868.699 2147.68C884.271 2143.53 893.651 2127.33 889.44 2111.69L888.802 2109.33C914.839 2103.84 941.579 2100.33 968.828 2098.87V2101.29C968.828 2117.44 982.039 2130.64 998.186 2130.64C1014.4 2130.64 1027.6 2117.44 1027.6 2101.29V2098.87C1054.86 2100.33 1081.59 2103.91 1107.57 2109.33L1106.93 2111.69C1102.78 2127.33 1112.1 2143.53 1127.73 2147.68C1143.31 2151.89 1159.52 2142.52 1163.73 2126.95L1164.37 2124.59C1190.15 2133.01 1215.04 2143.41 1238.84 2155.53L1237.63 2157.57C1229.59 2171.56 1234.44 2189.61 1248.41 2197.65C1262.39 2205.76 1280.45 2200.91 1288.56 2186.93L1289.64 2185.01C1312.23 2199.76 1333.61 2216.23 1353.59 2234.16L1352.05 2235.69C1340.63 2247.11 1340.63 2265.75 1352.05 2277.24C1363.48 2288.65 1382.17 2288.65 1393.6 2277.24L1395.13 2275.71C1413.07 2295.68 1429.53 2317.05 1444.27 2339.59L1442.36 2340.73C1428.32 2348.77 1423.47 2366.84 1431.57 2380.81C1439.68 2394.85 1457.73 2399.71 1471.71 2391.6L1473.69 2390.45C1485.88 2414.25 1496.21 2439.15 1504.71 2464.92L1502.35 2465.56C1486.71 2469.71 1477.39 2485.92 1481.53 2501.56C1485.75 2517.12 1501.96 2526.51 1517.53 2522.29L1519.89 2521.65C1525.39 2547.69 1528.89 2574.37 1530.36 2601.68Z" fill="#088CFC"/>
<path d="M1476.95 2631.04C1476.95 2632.39 1476.95 2633.79 1476.88 2635.12H1223.59C1223.65 2633.79 1223.65 2632.39 1223.65 2631.04C1223.65 2506.72 1122.5 2405.57 998.185 2405.57C873.869 2405.57 772.717 2506.72 772.717 2631.04C772.717 2632.39 772.717 2633.79 772.781 2635.12H519.553C519.489 2633.79 519.489 2632.39 519.489 2631.04C519.489 2366.64 733.788 2152.35 998.185 2152.35C1262.58 2152.35 1476.95 2366.64 1476.95 2631.04Z" fill="#2EC6FC"/>
<path d="M598.877 2555.87L669.97 2569.27C689.208 2466.73 755.476 2380.6 845.412 2334.12L803.048 2274.76C698.35 2332.35 621.593 2434.68 598.877 2555.87Z" fill="#045E73"/>
<path d="M1193.36 2274.77L1150.99 2334.13C1240.94 2380.61 1307.23 2466.73 1326.46 2569.27L1397.56 2555.87C1374.84 2434.69 1298.07 2332.36 1193.36 2274.77Z" fill="#45AFBE"/>
<path d="M998.185 2224.65C927.487 2224.65 861.004 2242.88 803.048 2274.76L845.412 2334.12C891.225 2310.44 943.159 2297.01 998.185 2297.01C1053.22 2297.01 1105.16 2310.44 1150.99 2334.13L1193.36 2274.77C1135.39 2242.88 1068.89 2224.65 998.185 2224.65Z" fill="#4A97A2"/>
<path d="M1223.65 2631.04C1223.65 2632.39 1223.65 2633.79 1223.59 2635.12H772.781C772.717 2633.79 772.717 2632.39 772.717 2631.04C772.717 2506.72 873.869 2405.57 998.185 2405.57C1122.5 2405.57 1223.65 2506.72 1223.65 2631.04Z" fill="#088CFC"/>
<path d="M1069.66 2633.83C1069.66 2634.25 1069.66 2634.69 1069.64 2635.12H926.73C926.709 2634.69 926.709 2634.25 926.709 2633.83C926.709 2594.43 958.776 2562.36 998.185 2562.36C1037.59 2562.36 1069.66 2594.43 1069.66 2633.83Z" fill="#B5E0E6"/>
<path d="M1008.12 2436.16C1008.12 2441.64 1003.68 2446.08 998.207 2446.08C992.733 2446.08 988.296 2441.64 988.296 2436.16C988.296 2430.69 992.733 2426.25 998.207 2426.25C1003.68 2426.25 1008.12 2430.69 1008.12 2436.16Z" fill="#2EC6FC"/>
<path d="M940.868 2444.53C942.74 2449.67 940.088 2455.36 934.944 2457.23C929.8 2459.11 924.113 2456.45 922.24 2451.31C920.368 2446.16 923.02 2440.48 928.164 2438.6C933.308 2436.73 938.996 2439.39 940.868 2444.53Z" fill="#2EC6FC"/>
<path d="M880.533 2475.39C884.052 2479.59 883.505 2485.84 879.312 2489.35C875.118 2492.87 868.866 2492.32 865.348 2488.13C861.829 2483.93 862.376 2477.68 866.569 2474.17C870.762 2470.65 877.014 2471.2 880.533 2475.39Z" fill="#2EC6FC"/>
<path d="M834.393 2525.03C839.133 2527.76 840.757 2533.83 838.02 2538.56C835.284 2543.31 829.221 2544.93 824.481 2542.19C819.74 2539.45 818.116 2533.39 820.853 2528.65C823.591 2523.91 829.652 2522.28 834.393 2525.03Z" fill="#2EC6FC"/>
<path d="M808.011 2587.44C813.4 2588.4 817 2593.53 816.05 2598.93C815.099 2604.32 809.959 2607.92 804.568 2606.97C799.178 2606.01 795.578 2600.88 796.528 2595.48C797.479 2590.09 802.62 2586.49 808.011 2587.44Z" fill="#2EC6FC"/>
<path d="M1191.85 2606.96C1186.46 2607.92 1181.32 2604.32 1180.37 2598.92C1179.42 2593.53 1183.02 2588.39 1188.41 2587.44C1193.8 2586.49 1198.94 2590.09 1199.89 2595.48C1200.84 2600.88 1197.24 2606.01 1191.85 2606.96Z" fill="#2EC6FC"/>
<path d="M1171.93 2542.19C1167.19 2544.92 1161.13 2543.31 1158.39 2538.56C1155.66 2533.83 1157.28 2527.76 1162.02 2525.03C1166.76 2522.28 1172.83 2523.91 1175.56 2528.65C1178.3 2533.39 1176.67 2539.45 1171.93 2542.19Z" fill="#2EC6FC"/>
<path d="M1131.07 2488.13C1127.55 2492.32 1121.3 2492.87 1117.1 2489.35C1112.91 2485.83 1112.36 2479.59 1115.88 2475.39C1119.4 2471.2 1125.65 2470.65 1129.84 2474.16C1134.04 2477.68 1134.59 2483.93 1131.07 2488.13Z" fill="#2EC6FC"/>
<path d="M1074.17 2451.31C1072.3 2456.45 1066.61 2459.11 1061.47 2457.23C1056.33 2455.36 1053.67 2449.67 1055.55 2444.53C1057.42 2439.39 1063.11 2436.73 1068.25 2438.6C1073.39 2440.48 1076.05 2446.16 1074.17 2451.31Z" fill="#2EC6FC"/>
<path d="M1279.61 1555.4C1387.41 1390.99 1608.17 1345.05 1772.49 1452.84C1936.91 1560.63 1982.84 1781.21 1875.15 1945.63C1767.25 2110.13 1546.68 2156.07 1382.27 2048.27C1217.86 1940.48 1171.82 1719.91 1279.61 1555.4ZM1361.27 2080.15C1542.95 2199.2 1787.76 2148.31 1906.92 1966.61C2026.08 1784.84 1975.08 1540.13 1793.4 1420.97C1611.61 1301.81 1366.91 1352.72 1247.75 1534.49C1128.59 1716.17 1179.49 1960.99 1361.27 2080.15Z" fill="#B5E0E6"/>
<path d="M1295.84 1565.99C1397.75 1410.55 1606.45 1367.15 1761.89 1469.07C1917.33 1570.97 1960.73 1779.59 1858.92 1935.03C1756.91 2090.56 1548.31 2133.96 1392.87 2032.05C1237.42 1930.13 1193.92 1721.53 1295.84 1565.99ZM1382.27 2048.27C1546.68 2156.07 1767.25 2110.13 1875.15 1945.63C1982.84 1781.21 1936.91 1560.63 1772.49 1452.84C1608.17 1345.05 1387.41 1390.99 1279.61 1555.4C1171.82 1719.91 1217.86 1940.48 1382.27 2048.27Z" fill="#45AFBE"/>
<path d="M1392.87 2032.05C1548.31 2133.96 1756.91 2090.56 1858.92 1935.03C1960.73 1779.59 1917.33 1570.97 1761.89 1469.07C1606.45 1367.15 1397.75 1410.55 1295.84 1565.99C1193.92 1721.53 1237.42 1930.13 1392.87 2032.05Z" fill="white"/>
<path d="M1244.35 2222.05L1261.92 2234.27L1378.28 2056.67L1360.01 2045.52L1244.35 2222.05Z" fill="#B5E0E6"/>
<path d="M998.196 2618.83C998.26 2618.88 998.326 2618.88 998.39 2618.95C1010.11 2626.68 1025.87 2623.4 1033.61 2611.61L1274.99 2243.36L1261.92 2234.27L1253.94 2228.68L1244.35 2222.05L1233.21 2214.32L991.054 2583.73C983.384 2595.39 986.546 2611.03 998.196 2618.83Z" fill="#B5E0E6"/>
<path d="M998.196 2618.83C998.26 2618.76 998.326 2618.63 998.391 2618.49L1253.94 2228.68L1244.35 2222.05L1233.21 2214.32L991.054 2583.73C983.384 2595.39 986.546 2611.03 998.196 2618.83Z" fill="#B5E0E6"/>
<mask id="mask0_89_3773" style="mask-type:luminance" maskUnits="userSpaceOnUse" x="1240" y="1413" width="674" height="675">
<path d="M1392.87 2032.05C1548.31 2133.96 1756.91 2090.56 1858.92 1935.03C1960.73 1779.59 1917.33 1570.97 1761.89 1469.07C1606.45 1367.15 1397.75 1410.55 1295.84 1565.99C1193.92 1721.53 1237.42 1930.13 1392.87 2032.05Z" fill="white"/>
</mask>
<g mask="url(#mask0_89_3773)">
<path d="M1311.31 1571.36V1564.13L1353.01 1541.56V1552.6L1325.16 1567.75L1353.01 1582.89V1593.93L1311.31 1571.36Z" fill="#E5F0F8"/>
<path d="M1534.33 1576.27H1368.48V1559.23H1534.33V1576.27Z" fill="#E5F0F8"/>
<path d="M1477.16 1642.11H1311.31V1625.08H1477.16V1642.11Z" fill="#E5F0F8"/>
<path d="M1512.49 1687.99H1346.64V1670.95H1512.49V1687.99Z" fill="#E5F0F8"/>
<path d="M1512.49 1814.23H1346.64V1797.19H1512.49V1814.23Z" fill="#E5F0F8"/>
<path d="M1512.49 1853.28H1346.64V1836.24H1512.49V1853.28Z" fill="#E5F0F8"/>
<path d="M1903.81 1731.67H1403.63V1714.63H1903.81V1731.67Z" fill="#E5F0F8"/>
<path d="M2161.56 1894.77H1404.39V1877.73H2161.56V1894.77Z" fill="#E5F0F8"/>
<path d="M2161.56 2025.41H1404.39V2008.37H2161.56V2025.41Z" fill="#E5F0F8"/>
<path d="M1546.75 2069.8H1403.63V2052.76H1546.75V2069.8Z" fill="#E5F0F8"/>
<path d="M2161.56 1936.48H1404.39V1919.44H2161.56V1936.48Z" fill="#E5F0F8"/>
<path d="M1765.16 1978.17H1403.63V1961.13H1765.16V1978.17Z" fill="#E5F0F8"/>
<path d="M1557 1770.93H1403.63V1753.89H1557V1770.93Z" fill="#E5F0F8"/>
</g>
<path d="M2822.93 2692.21H388.784C374.784 2692.21 363.435 2680.85 363.435 2666.85V2660.47C363.435 2646.47 374.784 2635.11 388.784 2635.11H2822.93C2836.93 2635.11 2848.28 2646.47 2848.28 2660.47V2666.85C2848.28 2680.85 2836.93 2692.21 2822.93 2692.21Z" fill="#009BB0"/>
<path d="M1026.55 840H418.619C411.422 840 405.587 849 405.587 860.107V906.654V1320.81H1039.58V906.654V860.107C1039.58 849 1033.75 840 1026.55 840Z" fill="#088CFC"/>
<path d="M414.062 885.187V1310.28H1031.1V885.187H414.062Z" fill="white"/>
<path d="M987.16 878.613L1015.21 850.573" stroke="white" stroke-width="4.49801" stroke-miterlimit="10" stroke-linecap="round" stroke-linejoin="round"/>
<path d="M1015.21 878.613L987.16 850.573" stroke="white" stroke-width="4.49801" stroke-miterlimit="10" stroke-linecap="round" stroke-linejoin="round"/>
<path d="M787.328 1040.09H656.599C671.168 1005.79 695.048 983.48 721.963 983.48C748.928 983.48 772.757 1005.79 787.328 1040.09Z" fill="#045E73"/>
<path d="M802.454 1119.21C802.454 1194.2 766.433 1254.96 721.962 1254.96C677.542 1254.96 641.472 1194.2 641.472 1119.21C641.472 1096.49 644.76 1075.05 650.628 1056.28H793.297C799.166 1075.05 802.454 1096.49 802.454 1119.21Z" fill="#045E73"/>
<path d="M741.771 1000.13C741.753 1000.13 741.733 1000.13 741.713 1000.13C738.922 1000.11 736.682 997.813 736.711 995.027C736.739 992.253 737.942 927.347 781.247 926.573C781.277 926.573 781.305 926.573 781.334 926.573C784.087 926.573 786.346 928.787 786.395 931.547C786.443 934.347 784.218 936.64 781.422 936.693C747.918 937.28 746.837 994.56 746.831 995.133C746.798 997.907 744.539 1000.13 741.771 1000.13Z" fill="#045E73"/>
<path d="M702.155 1000.13C699.387 1000.13 697.128 997.907 697.093 995.133C697.089 994.56 696.009 937.28 662.505 936.693C659.708 936.64 657.483 934.347 657.532 931.547C657.58 928.787 659.839 926.573 662.592 926.573C662.621 926.573 662.649 926.573 662.679 926.573C705.984 927.347 707.187 992.253 707.215 995.027C707.244 997.813 705.005 1000.11 702.213 1000.13C702.193 1000.13 702.175 1000.13 702.155 1000.13Z" fill="#045E73"/>
<path d="M776.825 1106.55C775.293 1106.55 773.787 1105.85 772.792 1104.55C771.101 1102.32 771.537 1099.15 773.761 1097.45L819.96 1062.4L837.881 1015.11C838.871 1012.49 841.792 1011.19 844.405 1012.17C847.017 1013.16 848.332 1016.08 847.343 1018.69L828.908 1067.35C828.575 1068.24 827.992 1069.01 827.236 1069.59L779.879 1105.52C778.963 1106.21 777.892 1106.55 776.825 1106.55Z" fill="#045E73"/>
<path d="M668.335 1106.55C667.269 1106.55 666.198 1106.21 665.282 1105.52L617.929 1069.59C617.174 1069.01 616.591 1068.24 616.257 1067.35L597.823 1018.69C596.834 1016.08 598.149 1013.16 600.761 1012.17C603.383 1011.2 606.295 1012.51 607.285 1015.11L625.205 1062.4L671.398 1097.45C673.623 1099.15 674.059 1102.32 672.369 1104.55C671.374 1105.85 669.862 1106.55 668.335 1106.55Z" fill="#045E73"/>
<path d="M842.612 1268.89C840.571 1268.89 838.647 1267.65 837.881 1265.63L819.96 1218.35L773.761 1183.28C771.537 1181.6 771.101 1178.43 772.792 1176.2C774.48 1173.97 777.655 1173.53 779.879 1175.23L827.236 1211.16C827.992 1211.73 828.575 1212.51 828.908 1213.4L847.343 1262.04C848.332 1264.65 847.017 1267.59 844.405 1268.57C843.815 1268.79 843.208 1268.89 842.612 1268.89Z" fill="#045E73"/>
<path d="M602.554 1268.89C601.958 1268.89 601.351 1268.79 600.761 1268.57C598.149 1267.59 596.834 1264.65 597.823 1262.04L616.257 1213.4C616.591 1212.51 617.174 1211.73 617.929 1211.16L665.282 1175.23C667.515 1173.53 670.681 1173.97 672.369 1176.2C674.059 1178.41 673.623 1181.6 671.398 1183.28L625.205 1218.35L607.285 1265.63C606.519 1267.65 604.594 1268.89 602.554 1268.89Z" fill="#045E73"/>
<path d="M526.255 1792.43C526.255 1843.23 485.076 1884.4 434.282 1884.4C383.487 1884.4 342.31 1843.23 342.31 1792.43C342.31 1741.63 383.487 1700.45 434.282 1700.45C485.076 1700.45 526.255 1741.63 526.255 1792.43Z" fill="#045E73"/>
<path d="M480.768 1745.93L387.796 1838.91" stroke="white" stroke-width="16.9615" stroke-miterlimit="10"/>
<path d="M387.796 1745.93L480.768 1838.91" stroke="white" stroke-width="16.9615" stroke-miterlimit="10"/>
<path d="M1398.68 1349.33L1398.31 1293.08L1464.29 1302.83L1398.68 1349.33Z" fill="#145564"/>
<path d="M1755.75 1082.53L1761.71 1065.08C1761.71 1065.08 1772.43 1048.39 1775.63 1041.93C1777.44 1038.29 1783.31 1029 1784.81 1027.84C1786.01 1026.93 1789.51 1027.28 1789.81 1028.72C1790.21 1030.6 1787.27 1040.99 1786.19 1045.08C1785.16 1048.97 1782.08 1060.64 1782.08 1060.64C1782.08 1060.64 1804.63 1040.16 1811.79 1032.87C1815.81 1028.77 1827.07 1016.28 1830.11 1018.91C1832.43 1020.89 1822.32 1034.95 1818.92 1039.79C1815.79 1044.24 1806.51 1057.68 1806.51 1057.68C1806.51 1057.68 1822.24 1041.33 1827.48 1035.88C1831.29 1031.91 1841.17 1018.65 1844.65 1021.49C1848.11 1024.29 1837.43 1036.64 1834.32 1041.16C1829.93 1047.53 1816.8 1066.68 1816.8 1066.68C1816.8 1066.68 1833.64 1049.93 1839.25 1044.36C1842.36 1041.27 1850.41 1030.88 1853.49 1033.75C1856.63 1036.67 1847.15 1046.09 1844.41 1049.61C1839.72 1055.65 1825.67 1073.77 1825.67 1073.77C1825.67 1073.77 1838.16 1062.01 1842.33 1058.09C1844.11 1056.41 1849.57 1051.59 1851.16 1053.37C1853.33 1055.83 1846.44 1062.89 1844.4 1065.52L1827.47 1087.17C1826.11 1088.93 1824.53 1090.51 1822.81 1091.88L1794.15 1120.67L1755.75 1082.53Z" fill="#FFE0D7"/>
<path d="M1533.27 1283.84L1756.61 1425.27C1763.03 1427.96 1769.11 1431.69 1774.55 1436.63C1800.12 1459.87 1802.01 1499.43 1778.77 1525.01C1755.53 1550.59 1715.97 1552.48 1690.39 1529.24L1432.92 1394.28L1533.27 1283.84Z" fill="#B86B76"/>
<path d="M1794.76 1491.65C1795.17 1488.77 1795.45 1485.84 1795.45 1482.85C1795.45 1448.29 1767.44 1420.28 1732.88 1420.28C1698.32 1420.28 1670.31 1448.29 1670.31 1482.85L1674.01 1762.24H1778.13L1794.76 1491.65Z" fill="#B86B76"/>
<path d="M1414.88 1393.07L1554.76 1560.4C1579.47 1589.93 1623.83 1593.89 1653.37 1569.2C1682.91 1544.51 1686.87 1500.13 1662.17 1470.6L1522.28 1303.28C1497.59 1273.73 1453.23 1269.77 1423.68 1294.47C1394.15 1319.16 1390.19 1363.53 1414.88 1393.07Z" fill="#E7888B"/>
<path d="M1529.35 1015.33L1595.52 1045.12L1586.4 1313.91L1398.31 1316.83L1369.8 1040.33L1461.67 1010.41L1529.35 1015.33Z" fill="#E5F0F8"/>
<path d="M1529.33 976.507V1018.48C1529.33 1018.48 1526.83 1027.55 1505.48 1027.64C1484.19 1027.68 1461.67 1013.56 1461.67 1013.56L1468.25 921.773L1529.33 976.507Z" fill="#FFE0D7"/>
<path d="M1529.35 1012.73L1485.76 967.467L1529.35 966.893V1012.73Z" fill="#E89780"/>
<path d="M1547.2 892.08C1547.2 892.08 1547.2 917.813 1547.2 936.08V951.16C1547.2 963.093 1543.85 980.773 1530.44 984.867C1517.05 988.96 1498.63 983.373 1485.77 969.427C1472.92 955.44 1444.41 892.427 1484.05 869.147C1523.75 845.88 1546.28 885.907 1547.2 892.08Z" fill="#FFE0D7"/>
<path d="M1636.95 1259.95C1650.93 1271.41 1671.09 1270.88 1684.51 1259.57L1802.17 1123.41L1786.01 1106.39L1756.28 1074.97L1752.87 1071.31L1631.69 1207.73C1618.76 1223.53 1621.16 1247.01 1636.95 1259.95Z" fill="#4A97A2"/>
<path d="M1678.73 1509.32C1678.73 1474.76 1650.72 1446.75 1616.16 1446.75C1581.6 1446.75 1562.64 1461.16 1555.11 1495.63C1537.6 1575.63 1500.89 1788.72 1500.89 1788.72H1609.31L1678.04 1518.13C1678.45 1515.24 1678.73 1512.32 1678.73 1509.32Z" fill="#E7888B"/>
<path d="M1680.47 1261.65C1659.76 1273.4 1633.23 1266.07 1621.49 1245.37L1543.44 1107.79C1531.69 1087.08 1539.03 1060.55 1559.72 1048.81C1580.41 1037.07 1606.96 1044.4 1618.69 1065.09L1696.75 1202.68C1708.48 1223.37 1701.16 1249.92 1680.47 1261.65Z" fill="#4A97A2"/>
<path d="M1488.17 866.96C1488.17 866.96 1536.15 844.84 1547.21 859.373C1558.27 873.907 1539.84 878.973 1539.84 878.973C1539.84 878.973 1562.72 876.28 1561.83 891.707C1560.93 907.133 1503.69 886.067 1503.69 886.067C1503.69 886.067 1522.68 894.667 1511.69 901.493C1500.72 908.32 1488.17 899.413 1488.17 899.413C1488.17 899.413 1477.29 905.64 1479.07 934.227C1480.85 962.813 1463.79 969.12 1463.79 969.12C1463.79 969.12 1465.83 925.813 1457.47 914.253C1449.11 902.68 1461.39 859.733 1488.17 866.96Z" fill="#322A28"/>
<path d="M1481.76 940.853C1486.41 948.147 1487.65 953.28 1481.93 956.933C1476.21 960.587 1466.69 959.427 1462.04 952.133C1457.39 944.853 1458.25 935.973 1463.97 932.32C1469.69 928.667 1477.11 933.56 1481.76 940.853Z" fill="#FFE0D7"/>
<path d="M1466.81 940.294C1466.81 940.294 1472.69 939.413 1476.72 946.947C1476.72 946.947 1473.01 946.093 1468.49 946.947" stroke="#E89780" stroke-width="1.0543" stroke-miterlimit="10"/>
<path d="M1511.55 925.56C1511.55 928.32 1513 930.56 1514.79 930.56C1516.59 930.56 1518.03 928.32 1518.03 925.56C1518.03 922.787 1516.59 920.547 1514.79 920.547C1513 920.547 1511.55 922.787 1511.55 925.56Z" fill="#2C3447"/>
<path d="M1513.63 956.973C1513.63 956.973 1518.44 966.346 1530.61 964.146" stroke="#2C3447" stroke-width="1.32001" stroke-miterlimit="10"/>
<path d="M1525.31 927.48L1531.41 945.133C1532.04 946.92 1531.36 948.907 1529.77 949.933L1524.79 953.173" stroke="#2C3447" stroke-width="1.32001" stroke-miterlimit="10"/>
<path d="M1506.45 917.24C1506.45 917.24 1513.27 912.48 1519.77 915.493" stroke="#2C3447" stroke-width="1.32001" stroke-miterlimit="10"/>
<path d="M1545.01 925.56C1545.01 928.32 1543.56 930.56 1541.77 930.56C1539.97 930.56 1538.53 928.32 1538.53 925.56C1538.53 922.787 1539.97 920.547 1541.77 920.547C1543.56 920.547 1545.01 922.787 1545.01 925.56Z" fill="#2C3447"/>
<path d="M1548.01 916.973C1548.01 916.973 1543.29 912.48 1536.79 915.493" stroke="#2C3447" stroke-width="1.32001" stroke-miterlimit="10"/>
<path d="M1329 1277.43C1305.97 1271.47 1292.01 1247.73 1297.99 1224.69L1337.69 1071.57C1343.67 1048.55 1367.4 1034.59 1390.43 1040.56C1413.47 1046.53 1427.41 1070.27 1421.44 1093.29L1381.73 1246.41C1375.77 1269.45 1352.04 1283.41 1329 1277.43Z" fill="#4A97A2"/>
<path d="M1516.71 943.827C1515.85 946.36 1511.07 947.053 1506.01 945.36C1500.96 943.667 1497.56 940.24 1498.4 937.693C1499.25 935.147 1504.04 934.467 1509.09 936.16C1514.15 937.853 1517.55 941.28 1516.71 943.827Z" fill="#E89780"/>
<path d="M1547.2 936.08V945.88C1543.07 946.373 1539.68 945.227 1539.11 943.067C1538.48 940.52 1542.09 937.387 1547.2 936.08Z" fill="#E89780"/>
<path d="M1686.51 1804.13L1684.36 1762.24H1768.91L1770.25 1804.13H1686.51Z" fill="#FFE0D7"/>
<path d="M1769.69 1786.6L1684.36 1762.24H1768.91L1769.69 1786.6Z" fill="#E89780"/>
<path d="M1500.37 1830.61L1507.28 1788.72H1589.81L1579.31 1830.61H1500.37Z" fill="#FFE0D7"/>
<path d="M1517.15 1035.09H1501.84L1500.49 1038L1507.56 1043.25H1513.57L1518.6 1037.11L1517.15 1035.09Z" fill="#045E73"/>
<path d="M1584.77 1808.84L1507.28 1788.72H1589.81L1584.77 1808.84Z" fill="#E89780"/>
<path d="M1461.92 1009.93L1510.05 1027.64L1501.28 1047.73L1459.8 1014.35L1461.92 1009.93Z" fill="white"/>
<path d="M1529.33 1014.81L1531.64 1019.52L1519.16 1045.83L1510.05 1027.64L1529.33 1014.81Z" fill="white"/>
<path d="M1513.57 1043.25L1536.37 1220.25L1518.6 1243.17L1495.49 1222.39L1507.56 1043.25H1513.57Z" fill="#045E73"/>
<path d="M1412.61 1130.52L1387.29 1235.13" stroke="#2C3447" stroke-width="1.32001" stroke-miterlimit="10"/>
<path d="M1590.57 1194.03L1592.73 1130.52" stroke="#2C3447" stroke-width="1.32001" stroke-miterlimit="10"/>
<path d="M1500.37 1830.61L1492.95 1861.15H1603.71C1607.29 1845.52 1595.41 1830.61 1579.37 1830.61H1579.31H1500.37Z" fill="#403534"/>
<path d="M1686.51 1804.13V1837.39H1802.52L1802.37 1834.65C1801.49 1817.55 1787.37 1804.13 1770.25 1804.13H1686.51Z" fill="#403534"/>
<path d="M1771.92 1810.75C1771.92 1810.75 1774.44 1799.71 1780.68 1802.71C1786.91 1805.71 1772.31 1811.15 1772.31 1811.15L1780.99 1817.15" stroke="white" stroke-width="0.702368" stroke-miterlimit="10" stroke-linecap="round" stroke-linejoin="round"/>
<path d="M1771.92 1810.75C1771.92 1810.75 1769.39 1799.71 1763.16 1802.71C1756.92 1805.71 1771.52 1811.15 1771.52 1811.15L1762.84 1817.15" stroke="white" stroke-width="0.702368" stroke-miterlimit="10" stroke-linecap="round" stroke-linejoin="round"/>
<path d="M1578.52 1838.48C1578.52 1838.48 1581.04 1827.43 1587.28 1830.43C1593.52 1833.43 1578.92 1838.87 1578.92 1838.87L1587.6 1844.87" stroke="white" stroke-width="0.702368" stroke-miterlimit="10" stroke-linecap="round" stroke-linejoin="round"/>
<path d="M1578.52 1838.48C1578.52 1838.48 1576 1827.43 1569.76 1830.43C1563.52 1833.43 1578.12 1838.87 1578.12 1838.87L1569.44 1844.87" stroke="white" stroke-width="0.702368" stroke-miterlimit="10" stroke-linecap="round" stroke-linejoin="round"/>
<path d="M1536.32 1018.55C1536.32 1018.55 1540.84 1065.88 1548.17 1137.36C1555.51 1208.84 1555.03 1320.41 1578.11 1341.83C1578.11 1341.83 1601.89 1343.6 1650.05 1357.79C1650.05 1357.79 1636.59 1312.52 1620.09 1286.89C1603.6 1261.27 1595.52 1045.12 1595.52 1045.12L1536.32 1018.55Z" fill="#4A97A2"/>
<path d="M1540.23 1058.53L1545.81 1114.27L1528.05 1099.12L1529.33 1059.63L1540.23 1058.53Z" fill="#E5F0F8"/>
<path d="M1445.29 1015.75C1445.29 1015.75 1463.07 1092.41 1471.77 1163.49C1480.48 1234.57 1477.52 1303.32 1499.92 1345.05C1499.92 1345.05 1410.08 1361.23 1410.28 1397.45C1410.28 1397.45 1384.96 1369.52 1384.75 1331.27C1384.52 1293.01 1369.8 1040.33 1369.8 1040.33L1445.29 1015.75Z" fill="#4A97A2"/>
<path d="M1740.33 1419.07H1536.75L1589.88 1266.61H1793.47L1740.33 1419.07Z" fill="#2A6D77"/>
<path d="M1538.97 1411.67L1472.4 1352.79H1669.31L1742.56 1411.67H1538.97Z" fill="#89A5C7"/>
<path d="M1736.49 1415.69H1532.91L1586.04 1263.24H1789.63L1736.49 1415.69Z" fill="#2A6D77"/>
<path d="M1789.63 1263.24L1793.47 1266.61H1589.88L1536.75 1419.07L1532.91 1415.69L1586.04 1263.24H1789.63Z" fill="#89A5C7"/>
<path d="M1472.4 1352.79L1470.17 1360.19L1536.75 1419.07L1539.32 1411.67L1472.4 1352.79Z" fill="#363545"/>
<path d="M1696.27 1344.59C1696.27 1350.09 1686.16 1354.57 1673.69 1354.57C1661.23 1354.57 1651.12 1350.09 1651.12 1344.59C1651.12 1339.07 1661.23 1334.59 1673.69 1334.59C1686.16 1334.59 1696.27 1339.07 1696.27 1344.59Z" fill="#89A5C7"/>
<path d="M1513.56 1306.4L1483.43 1358.19L1483.59 1358.29C1497.41 1365.57 1526.41 1393.4 1536.89 1403.68C1539.31 1405.96 1542.76 1406.55 1545.76 1405.13L1574.23 1391.92C1578.71 1389.87 1582.04 1386.01 1583.47 1381.35L1589.71 1361.17C1590.28 1359.11 1588.44 1357.17 1586.4 1357.69L1570.21 1362.23C1567.89 1362.81 1565.43 1361.76 1564.44 1359.57L1555.24 1340.48L1581.47 1355.96C1582.96 1356.81 1584.91 1356.45 1585.96 1355.01L1587.41 1352.93C1588.47 1351.49 1588.24 1349.47 1586.85 1348.29L1545.39 1314.65L1514.96 1307.43C1514.96 1307.43 1514.48 1307.05 1513.56 1306.4Z" fill="#FFE0D7"/>
<path d="M1304.74 1218.53C1292.01 1237.72 1295.51 1262.71 1312.51 1273.92L1481.21 1370.64L1523.05 1298.72L1366.67 1201.96C1349.67 1190.75 1317.45 1199.25 1304.74 1218.53Z" fill="#4A97A2"/>
<path d="M1481.53 1273.04L1389.59 1216.15L1409.55 1143.21" stroke="#322A28" stroke-width="1.81635" stroke-miterlimit="10"/>
<path d="M2489.53 1763.71L2566.83 1762.4L2562.77 1681.23L2560.84 1642.43L2560.73 1640.49L2500.25 1615.07L2498.28 1642.49L2496.83 1662.48L2489.53 1763.71Z" fill="#FFE0D7"/>
<path d="M2640.69 2014.93L2673.2 2284C2674.21 2290.8 2674.19 2297.88 2672.8 2305.01C2666.27 2338.61 2633.73 2360.55 2600.15 2354.01C2566.55 2347.49 2553.68 2321.55 2547.65 2282.97C2536.07 2208.92 2495.61 1986.73 2495.61 1986.73L2640.69 2014.93Z" fill="#088CFC"/>
<path d="M2429.93 2001.4L2549.33 2009.4L2548.73 2141.68L2534.56 2162.64L2521.43 2290.16L2400.57 2280.51L2429.93 2001.4Z" fill="#088CFC"/>
<path d="M2527.17 1729.76C2498.81 1730.39 2485.01 1714.83 2482.04 1707.97L2494.37 1704.64L2563.83 1702.44L2572.25 1705.13C2568.69 1711.75 2556.15 1729.13 2527.17 1729.76Z" fill="#FFE0D7"/>
<path d="M2426.52 1906.21L2427.75 2022.2H2641.57L2640.59 1729.8L2565.67 1702.72C2564.83 1704.27 2563.91 1705.87 2562.8 1707.55L2562.52 1707.91C2558.45 1713.08 2550.69 1717.97 2528.93 1718.47C2510.81 1718.88 2501.93 1716.36 2496.89 1713.08L2496.83 1713.01C2494.09 1711.19 2491.93 1707.6 2490.67 1705.64L2420.51 1722.67L2425.27 1870.27L2426.52 1906.21Z" fill="white"/>
<path d="M2482.04 1707.97C2482.04 1707.97 2488.11 1816.19 2487.23 1878.72C2486.36 1941.28 2482.04 2099.33 2482.04 2099.33C2482.04 2099.33 2442.43 2100.17 2405.99 2092.8C2405.99 2092.8 2405.44 2021.19 2415.49 1971.8C2425.53 1922.43 2420.51 1722.67 2420.51 1722.67L2482.04 1707.97Z" fill="#045E73"/>
<path d="M2708.59 1965.95L2708.13 1966.12C2688.21 1973.93 2665.53 1964.03 2657.72 1944.11L2594.07 1781.83C2586.25 1761.91 2596.16 1739.23 2616.08 1731.41L2616.53 1731.23C2636.45 1723.41 2659.13 1733.32 2666.95 1753.24L2730.6 1915.53C2738.41 1935.44 2728.51 1958.13 2708.59 1965.95Z" fill="#045E73"/>
<path d="M2695.83 2557.11L2583.52 2557.03L2549.67 2295.68C2546.13 2261.61 2570.83 2231.12 2604.84 2227.53C2638.89 2224 2669.35 2248.69 2672.93 2282.71C2673.25 2285.65 2673.29 2288.55 2673.19 2291.47L2692.73 2520.87L2695.83 2557.11Z" fill="#088CFC"/>
<path d="M2521.85 2285.47L2493.01 2557.11H2382.68L2400.37 2283.97C2400.23 2281.09 2401.04 2277.88 2401.28 2274.91C2404.31 2240.8 2431.41 2215.32 2465.53 2218.29C2499.6 2221.32 2524.84 2251.35 2521.85 2285.47Z" fill="#088CFC"/>
<path d="M2496.01 1590.61C2496.01 1590.61 2489.79 1563.69 2501.87 1567.95C2513.96 1572.19 2496.01 1590.61 2496.01 1590.61Z" fill="#322A28"/>
<path d="M2572.25 1705.13C2572.25 1705.13 2543.01 1856.72 2542.04 1932.07C2541.05 2007.41 2541.05 2007.41 2541.05 2007.41L2544.4 2099.33C2544.4 2099.33 2625.87 2109.44 2654.35 2097.83C2654.35 2097.83 2656.33 1988.69 2648.76 1950.05C2641.2 1911.41 2640.59 1729.8 2640.59 1729.8L2572.25 1705.13Z" fill="#045E73"/>
<path d="M2494.69 1692.07L2538.15 1660.39L2496.83 1662.48L2494.69 1692.07Z" fill="#EA9D85"/>
<path d="M2557.24 2077.08C2557.24 2077.08 2616.53 2086.91 2644.16 2077.08" stroke="white" stroke-width="2.06961" stroke-miterlimit="10" stroke-linecap="round" stroke-linejoin="round"/>
<path d="M2499.96 1570.81C2499.96 1570.81 2493.57 1595.99 2489.03 1613.85L2485.28 1628.61C2482.32 1640.28 2481.2 1658.4 2493.31 1665.75C2505.37 1673.07 2524.79 1672.19 2540.83 1661.73C2556.87 1651.24 2600.4 1596.69 2567.41 1564.08C2534.37 1531.45 2502.4 1565.01 2499.96 1570.81Z" fill="#FFE0D7"/>
<path d="M2467.93 1737.84C2467.93 1737.84 2473.83 1832.44 2475.91 1874.31C2477.99 1916.16 2467.93 2063.49 2467.93 2063.49" stroke="white" stroke-width="2.06961" stroke-miterlimit="10" stroke-linecap="round" stroke-linejoin="round"/>
<path d="M2561.85 1668.55C2561.85 1668.55 2554.68 1650.85 2556.71 1642.13C2558.73 1633.41 2550.16 1621.92 2553.89 1608.63C2557.63 1595.33 2559.16 1589.72 2552.05 1589.29C2544.93 1588.85 2493.64 1592.25 2495.97 1568.57C2498.32 1544.88 2560.41 1531.31 2577.87 1574.76C2577.87 1574.76 2593.69 1576.48 2583.72 1609.04C2573.75 1641.61 2565.88 1646.2 2561.85 1668.55Z" fill="#322A28"/>
<path d="M2584.76 1719.99C2584.76 1719.99 2573.63 1812.63 2566.83 1858.4C2560.03 1904.16 2558.85 2016.96 2557.24 2058.75" stroke="white" stroke-width="2.06961" stroke-miterlimit="10" stroke-linecap="round" stroke-linejoin="round"/>
<path d="M2551.85 1634.79C2545.48 1640.76 2543 1645.47 2547.68 1650.47C2552.37 1655.45 2561.97 1656.69 2568.33 1650.72C2574.69 1644.75 2576.05 1635.85 2571.36 1630.85C2566.68 1625.87 2558.21 1628.81 2551.85 1634.79Z" fill="#FFE0D7"/>
<path d="M2526.51 1612.43C2525.83 1615.13 2523.84 1616.96 2522.09 1616.52C2520.35 1616.07 2519.48 1613.52 2520.17 1610.81C2520.85 1608.11 2522.83 1606.28 2524.59 1606.72C2526.33 1607.16 2527.2 1609.72 2526.51 1612.43Z" fill="#322A28"/>
<path d="M2493.79 1604.11C2493.09 1606.81 2493.96 1609.37 2495.71 1609.81C2497.47 1610.25 2499.44 1608.43 2500.12 1605.72C2500.81 1603.01 2499.95 1600.47 2498.2 1600.01C2496.45 1599.57 2494.47 1601.4 2493.79 1604.11Z" fill="#322A28"/>
<path d="M2516.93 1629C2517.13 1631.71 2521.64 1633.56 2527.01 1633.16C2532.37 1632.76 2536.55 1630.25 2536.35 1627.56C2536.15 1624.87 2531.64 1623 2526.28 1623.4C2520.92 1623.8 2516.73 1626.31 2516.93 1629Z" fill="#EA9D85"/>
<path d="M2489.03 1613.85L2486.59 1623.45C2490.52 1624.95 2494.12 1624.67 2495.21 1622.71C2496.45 1620.36 2493.69 1616.41 2489.03 1613.85Z" fill="#EA9D85"/>
<path d="M2563.31 1644.04C2559.11 1642.08 2555.25 1642 2555.25 1642C2561.07 1635.63 2566.6 1637.95 2566.6 1637.95" stroke="#EA9D85" stroke-width="2.01637" stroke-miterlimit="10" stroke-linecap="round" stroke-linejoin="round"/>
<path d="M2512.57 1610.88L2502.21 1626.64C2501.17 1628.23 2501.33 1630.33 2502.64 1631.75L2504.64 1633.92L2506.69 1636.15" stroke="#332B27" stroke-width="1.2898" stroke-miterlimit="10"/>
<path d="M2531.88 1607.93C2531.88 1607.93 2527.55 1600.73 2520.31 1600.85" stroke="#332B27" stroke-width="1.2898" stroke-miterlimit="10"/>
<path d="M2492.97 1594.96C2492.97 1594.96 2498.72 1591.73 2504.33 1596.32" stroke="#332B27" stroke-width="1.2898" stroke-miterlimit="10"/>
<path d="M2477.09 2599.56L2480.05 2557.11H2397.39L2394.16 2599.56H2477.09Z" fill="#FFE0D7"/>
<path d="M2372.23 1966.04L2371.75 1965.91C2351.12 1960.25 2338.87 1938.75 2344.52 1918.12L2390.59 1749.99C2396.24 1729.35 2417.75 1717.09 2438.37 1722.75L2438.84 1722.88C2459.48 1728.53 2471.73 1750.04 2466.08 1770.68L2420.01 1938.8C2414.36 1959.44 2392.85 1971.69 2372.23 1966.04Z" fill="#045E73"/>
<path d="M2395.93 2576.33L2480.05 2557.11H2397.39L2395.93 2576.33Z" fill="#EA9D85"/>
<path d="M2599.8 2599.56L2596.63 2557.04L2681.31 2557.11L2682.73 2599.56H2599.8Z" fill="#FFE0D7"/>
<path d="M2598.4 2580.76L2681.31 2557.11L2596.63 2557.04L2598.4 2580.76Z" fill="#EA9D85"/>
<path d="M2353.43 2635.27H2475.49L2475.71 2630.31L2477.2 2597.4H2394.13C2383.85 2597.4 2374.33 2603.44 2367.07 2609.73C2361.05 2615.12 2356.57 2622.19 2354.48 2630.31C2353.99 2631.91 2353.64 2633.59 2353.43 2635.27Z" fill="#322A28"/>
<path d="M2353.43 2635.27H2475.49L2475.71 2630.31H2354.48C2353.99 2631.91 2353.64 2633.59 2353.43 2635.27Z" fill="#FFF1F0"/>
<path d="M2391.64 2604.17C2391.64 2604.17 2402.19 2585.65 2409.29 2592.97C2416.4 2600.29 2391.64 2604.17 2391.64 2604.17Z" stroke="#FFF1F0" stroke-width="1.59703" stroke-miterlimit="10" stroke-linecap="round" stroke-linejoin="round"/>
<path d="M2395.35 2607.85L2391.64 2604.17M2391.64 2604.17C2391.64 2604.17 2381.08 2585.65 2373.97 2592.97C2366.88 2600.29 2391.64 2604.17 2391.64 2604.17Z" stroke="#FFF1F0" stroke-width="1.59703" stroke-miterlimit="10" stroke-linecap="round" stroke-linejoin="round"/>
<path d="M2388.8 2607.85L2391.64 2604.17" stroke="#FFF1F0" stroke-width="1.59703" stroke-miterlimit="10" stroke-linecap="round" stroke-linejoin="round"/>
<path d="M2722.84 2635.27H2600.77L2600.56 2630.31L2599.07 2597.4H2682.13C2692.41 2597.4 2701.92 2603.44 2709.2 2609.73C2715.21 2615.12 2719.69 2622.19 2721.79 2630.31C2722.28 2631.91 2722.63 2633.59 2722.84 2635.27Z" fill="#322A28"/>
<path d="M2722.84 2635.27H2600.77L2600.56 2630.31H2721.79C2722.28 2631.91 2722.63 2633.59 2722.84 2635.27Z" fill="#FFF1F0"/>
<path d="M2684.63 2605.29C2684.63 2605.29 2674.08 2586.77 2666.97 2594.09C2659.87 2601.41 2684.63 2605.29 2684.63 2605.29Z" stroke="#FFF1F0" stroke-width="1.59703" stroke-miterlimit="10" stroke-linecap="round" stroke-linejoin="round"/>
<path d="M2680.92 2608.99L2684.63 2605.29M2684.63 2605.29C2684.63 2605.29 2695.17 2586.77 2702.28 2594.09C2709.39 2601.41 2684.63 2605.29 2684.63 2605.29Z" stroke="#FFF1F0" stroke-width="1.59703" stroke-miterlimit="10" stroke-linecap="round" stroke-linejoin="round"/>
<path d="M2687.47 2608.99L2684.63 2605.29" stroke="#FFF1F0" stroke-width="1.59703" stroke-miterlimit="10" stroke-linecap="round" stroke-linejoin="round"/>
<path d="M2531.83 2189.29L2522.09 2156.83H2512.77L2497.95 2116.64" stroke="white" stroke-width="1.0493" stroke-miterlimit="10" stroke-linecap="round" stroke-linejoin="round"/>
<path d="M2684.63 2526.43H2589.05" stroke="white" stroke-width="1.0493" stroke-miterlimit="10" stroke-linecap="round" stroke-linejoin="round"/>
<path d="M2489.73 2526.43H2394.16" stroke="white" stroke-width="1.0493" stroke-miterlimit="10" stroke-linecap="round" stroke-linejoin="round"/>
<path d="M2514.92 1642.44L2499.63 1645.28C2499.63 1645.28 2501.45 1653.15 2509.11 1652.16C2516.76 1651.17 2514.92 1642.44 2514.92 1642.44Z" fill="white"/>
<path d="M2411.01 2071.59C2411.01 2071.59 2439.48 2081.08 2467.93 2073.55" stroke="white" stroke-width="2.06961" stroke-miterlimit="10" stroke-linecap="round" stroke-linejoin="round"/>
<path d="M2467.93 1908.91C2467.93 1911.83 2465.56 1914.2 2462.64 1914.2C2459.71 1914.2 2457.33 1911.83 2457.33 1908.91C2457.33 1905.97 2459.71 1903.6 2462.64 1903.6C2465.56 1903.6 2467.93 1905.97 2467.93 1908.91Z" fill="white"/>
<path d="M2467.93 1957.61C2467.93 1960.53 2465.56 1962.91 2462.64 1962.91C2459.71 1962.91 2457.33 1960.53 2457.33 1957.61C2457.33 1954.68 2459.71 1952.31 2462.64 1952.31C2465.56 1952.31 2467.93 1954.68 2467.93 1957.61Z" fill="white"/>
<path d="M2461.24 2041.09C2461.24 2044.01 2458.87 2046.39 2455.95 2046.39C2453.01 2046.39 2450.64 2044.01 2450.64 2041.09C2450.64 2038.16 2453.01 2035.79 2455.95 2035.79C2458.87 2035.79 2461.24 2038.16 2461.24 2041.09Z" fill="white"/>
<path d="M2316.19 2012.12H2498.59L2450.97 1875.53H2268.59L2316.19 2012.12Z" fill="#2A6D77"/>
<path d="M2496.6 2005.49L2556.24 1952.73H2379.81L2314.2 2005.49H2496.6Z" fill="#89A5C7"/>
<path d="M2319.63 2009.09H2502.03L2454.43 1872.51H2272.03L2319.63 2009.09Z" fill="#2A6D77"/>
<path d="M2272.03 1872.51L2268.59 1875.53H2450.97L2498.59 2012.12L2502.03 2009.09L2454.43 1872.51H2272.03Z" fill="#89A5C7"/>
<path d="M2556.24 1952.73L2558.23 1959.36L2498.59 2012.12L2496.27 2005.49L2556.24 1952.73Z" fill="#363545"/>
<path d="M2355.67 1945.37C2355.67 1950.32 2364.72 1954.33 2375.89 1954.33C2387.05 1954.33 2396.12 1950.32 2396.12 1945.37C2396.12 1940.44 2387.05 1936.43 2375.89 1936.43C2364.72 1936.43 2355.67 1940.44 2355.67 1945.37Z" fill="#89A5C7"/>
<path d="M2462.21 2031.15C2463.4 2034.37 2484.23 2034.2 2498.61 2029.33C2510.81 2025.23 2537.93 2012.72 2545.89 2008.99L2530.85 1960.07C2525.76 1960.95 2515.17 1961.72 2510.37 1962.85C2497.61 1965.85 2473.17 1976.31 2473.87 1981.08C2474.52 1985.8 2496.84 1981.32 2495.48 1983.55C2494.13 1985.77 2477.76 1994.6 2470.33 1995.23C2462.87 1995.91 2446.69 1994.72 2444.41 1998.43C2442.09 2002.19 2446.57 2006.83 2446.57 2006.83C2446.57 2006.83 2440.44 2005.65 2440.41 2009.63C2440.39 2013.59 2449.48 2017.79 2449.48 2017.79C2449.48 2017.79 2446.17 2016.76 2447.23 2021.12C2448.32 2025.53 2463.96 2027.13 2463.96 2027.13C2463.96 2027.13 2460.93 2027.93 2462.21 2031.15Z" fill="#FFE0D7"/>
<path d="M2527.87 1950.4L2681.71 1888.59C2700.2 1881.79 2721.64 1893.32 2729.4 1914.28C2737.12 1935.23 2728.29 1957.97 2709.8 1964.81L2549.53 2020.8L2527.87 1950.4Z" fill="#045E73"/>
<path d="M2544.23 1943.83L2642.57 1905.49L2613.27 1830.79" stroke="#332B27" stroke-width="1.81045" stroke-miterlimit="10"/>
<path d="M2649.6 1985.85L2563.55 2015.91" stroke="#332B27" stroke-width="1.81045" stroke-miterlimit="10"/>
<path d="M1111.61 869.573V853.6L1203.88 803.653V828.067L1142.24 861.587L1203.88 895.107V919.52L1111.61 869.573Z" fill="#E5F0F8"/>
<path d="M1231.96 939.493L1216.83 932.84L1273.73 760.587L1288.86 767.693L1231.96 939.493Z" fill="#E5F0F8"/>
<path d="M1396.27 853.6V869.573L1304 919.52V895.107L1365.64 861.587L1304 828.067V803.653L1396.27 853.6Z" fill="#E5F0F8"/>
<path d="M2694.95 1310.4C2705.33 1321.89 2704.44 1339.65 2692.92 1350.05C2681.4 1360.45 2663.65 1359.53 2653.27 1348.03C2642.87 1336.51 2643.76 1318.76 2655.28 1308.36C2666.8 1297.96 2684.55 1298.88 2694.95 1310.4ZM2707.29 1281.56C2701.99 1277.84 2696.16 1275.12 2690.09 1273.4C2689.01 1279.95 2683.16 1284.76 2676.37 1284.41C2669.6 1284.07 2664.28 1278.69 2663.88 1272.08C2657.68 1273.16 2651.6 1275.27 2645.95 1278.43C2649.8 1283.83 2649.09 1291.36 2644.05 1295.92C2639 1300.47 2631.43 1300.41 2626.45 1296.03C2622.73 1301.33 2620.03 1307.16 2618.31 1313.21C2624.85 1314.29 2629.67 1320.13 2629.32 1326.91C2628.97 1333.68 2623.57 1339.01 2616.96 1339.43C2618.05 1345.64 2620.17 1351.72 2623.32 1357.37C2628.71 1353.51 2636.27 1354.2 2640.83 1359.25C2645.39 1364.31 2645.32 1371.91 2640.92 1376.87C2646.23 1380.59 2652.05 1383.31 2658.11 1385.01C2659.2 1378.47 2665.05 1373.64 2671.83 1373.99C2678.6 1374.33 2683.92 1379.71 2684.33 1386.33C2690.53 1385.25 2696.6 1383.13 2702.25 1379.97C2698.4 1374.59 2699.11 1367.04 2704.16 1362.49C2709.2 1357.93 2716.77 1358 2721.75 1362.37C2725.47 1357.08 2728.19 1351.25 2729.89 1345.19C2723.35 1344.11 2718.55 1338.28 2718.89 1331.49C2719.24 1324.72 2724.63 1319.39 2731.24 1318.97C2730.16 1312.77 2728.05 1306.71 2724.89 1301.05C2719.48 1304.92 2711.95 1304.21 2707.39 1299.16C2702.81 1294.11 2702.88 1286.53 2707.29 1281.56Z" fill="white"/>
<path d="M2683.83 1458.07C2685.48 1451.09 2685.92 1444 2685.21 1437.05C2678.05 1438.6 2670.71 1434.53 2668.31 1427.43C2665.91 1420.32 2669.27 1412.67 2675.92 1409.55C2672.28 1403.61 2667.64 1398.23 2662.09 1393.69C2658.11 1399.84 2650.07 1402.19 2643.33 1398.84C2636.59 1395.51 2633.57 1387.69 2636.07 1380.79C2629.09 1379.13 2621.99 1378.69 2615.07 1379.41C2616.61 1386.57 2612.57 1393.89 2605.45 1396.29C2598.35 1398.69 2590.67 1395.32 2587.55 1388.68C2581.6 1392.33 2576.21 1396.97 2571.68 1402.52C2577.85 1406.48 2580.21 1414.53 2576.87 1421.29C2573.52 1428.03 2565.68 1431.05 2558.79 1428.56C2557.12 1435.52 2556.69 1442.63 2557.4 1449.55C2564.57 1448 2571.91 1452.05 2574.31 1459.17C2576.71 1466.28 2573.35 1473.93 2566.71 1477.05C2570.33 1482.99 2574.97 1488.37 2580.52 1492.91C2584.51 1486.75 2592.56 1484.41 2599.29 1487.75C2606.03 1491.09 2609.04 1498.91 2606.56 1505.8C2613.53 1507.47 2620.63 1507.89 2627.55 1507.19C2626 1500.01 2630.05 1492.71 2637.16 1490.31C2644.28 1487.91 2651.96 1491.28 2655.07 1497.92C2661 1494.29 2666.39 1489.65 2670.92 1484.09C2664.75 1480.11 2662.41 1472.05 2665.75 1465.32C2669.09 1458.56 2676.91 1455.55 2683.83 1458.07ZM2649.13 1457.09C2641.52 1472.45 2622.91 1478.76 2607.52 1471.13C2592.13 1463.52 2585.87 1444.88 2593.48 1429.52C2601.09 1414.15 2619.72 1407.84 2635.11 1415.45C2650.48 1423.08 2656.76 1441.71 2649.13 1457.09Z" fill="white"/>
<path d="M2602.69 847.96L2600.64 843.866C2600.64 843.853 2600.63 843.826 2600.63 843.813C2600.44 843.453 2600.31 843.08 2600.2 842.693C2600.16 842.587 2600.15 842.48 2600.12 842.36C2600.05 842.067 2600 841.76 2599.99 841.466C2599.97 841.346 2599.97 841.24 2599.96 841.133C2599.96 840.813 2599.97 840.493 2600 840.173C2600.01 840.093 2600.01 840.013 2600.03 839.933C2600.21 838.706 2600.72 837.546 2601.51 836.573C2601.56 836.506 2601.63 836.453 2601.68 836.387C2601.89 836.133 2602.13 835.907 2602.39 835.693C2602.45 835.64 2602.52 835.586 2602.59 835.533C2602.91 835.28 2603.24 835.053 2603.61 834.866L2621.11 826.12L2621.29 826.027L2627.32 823L2639.27 817.027L2641.6 815.853L2644.09 814.613L2648.77 812.28C2649.4 811.96 2650.07 811.787 2650.73 811.693C2653.52 811.307 2656.44 812.666 2657.75 815.266L2666.69 833.133C2667.21 834.173 2667.4 835.293 2667.33 836.4C2667.21 838.76 2665.91 841.026 2663.68 842.133L2638.89 854.546L2637.13 855.427L2622.25 862.866L2618.57 864.706C2617.21 865.386 2615.71 865.52 2614.29 865.24C2612.32 864.853 2610.51 863.626 2609.56 861.733L2604.72 852.04L2603.91 850.413L2602.69 847.96ZM2710.73 965.44L2734.76 953.413L2732.29 948.48L2725.25 952L2723.01 947.533L2730.05 944.013L2726.51 936.92L2717.05 941.653L2714.83 937.187L2724.27 932.453L2720.96 925.84L2707.76 932.453L2704.81 933.92L2694.43 939.12L2693.13 939.773L2653.89 861.36L2669.41 853.573C2679.01 848.76 2682.93 836.973 2678.13 827.427L2669.2 809.533C2664.39 799.973 2652.61 796.027 2643.04 800.827L2642.81 800.933L2638.83 802.933L2638.69 803L2606.68 819.04L2604.55 820.106L2597.89 823.44C2593.83 825.466 2590.8 828.747 2589.03 832.587C2589 832.613 2589 832.613 2589 832.613C2588.92 832.813 2588.83 833.013 2588.75 833.227C2587.25 836.72 2586.76 840.613 2587.45 844.413C2587.79 846.16 2588.36 847.92 2589.19 849.6L2589.44 850.08L2589.45 850.093L2593.25 857.68L2593.87 858.933L2598.13 867.453C2599.13 869.493 2600.49 871.28 2602.05 872.773C2602.99 873.666 2603.99 874.44 2605.04 875.106C2608.87 877.56 2613.49 878.626 2618.05 878.04C2620.19 877.786 2622.28 877.173 2624.31 876.16L2637.27 869.666L2638.91 868.84L2639.44 868.56L2693.92 977.4C2694.73 979.013 2696.69 979.667 2698.31 978.853L2702.6 976.706L2706.89 974.56C2708.51 973.747 2709.16 971.786 2708.36 970.173L2706.93 967.346L2709.71 965.946L2710.73 965.44Z" fill="#E5F0F8"/>
<path d="M1914.81 906.667C1914.81 896.44 1923.15 888.107 1933.37 888.107C1943.61 888.107 1951.93 896.44 1951.93 906.667V934.813H1933.37H1914.81V906.667ZM1980.92 934.813H1960.55V906.667C1960.55 891.68 1948.36 879.493 1933.37 879.493C1918.39 879.493 1906.2 891.68 1906.2 906.667V934.813H1885.83C1884.48 934.813 1883.39 935.907 1883.39 937.253V1011.97C1883.39 1013.32 1884.48 1014.4 1885.83 1014.4H1933.37H1980.92C1982.27 1014.4 1983.36 1013.32 1983.36 1011.97V937.253C1983.36 935.907 1982.27 934.813 1980.92 934.813Z" fill="white"/>
</svg>
