<svg width="1024" height="1024" viewBox="0 0 1024 1024" fill="none" xmlns="http://www.w3.org/2000/svg">
<path d="M0 0H1024V1024H0V0Z" fill="white"/>
<rect x="181.266" y="286.917" width="58.2385" height="351.963" fill="#45AFBE"/>
<path d="M679 286H737L737 455.351L679 510V468.84V286Z" fill="#45AFBE"/>
<path d="M181.265 638.673L210.384 588.237L463.332 734.277L463.333 801.567L434.213 784.713L181.265 638.673Z" fill="#45AFBE"/>
<rect width="47.457" height="335.142" transform="matrix(-0.707107 -0.707107 -0.707107 0.707107 753.209 534.761)" fill="#45AFBE"/>
<rect width="46.844" height="127.871" transform="matrix(1 0 0 -1 482.67 865.894)" fill="#45AFBE"/>
<rect x="487.734" y="864.628" width="46.844" height="117.743" transform="rotate(-90 487.734 864.628)" fill="#45AFBE"/>
<rect width="49.234" height="340.233" transform="matrix(-0.707107 -0.707107 -0.707107 0.707107 846.406 623.335)" fill="#45AFBE"/>
<rect x="431.945" y="176.564" width="58.2385" height="318.641" transform="rotate(-60 431.945 176.564)" fill="#45AFBE"/>
<rect width="58.2385" height="323.283" transform="matrix(-0.5 -0.866025 -0.866025 0.5 489.091 175.436)" fill="#45AFBE"/>
<path d="M601.679 462.664C601.679 541.574 537.95 605.543 459.336 605.543C380.721 605.543 316.992 541.574 316.992 462.664C316.992 383.755 380.721 319.786 459.336 319.786C537.95 319.786 601.679 383.755 601.679 462.664ZM360.294 462.664C360.294 517.569 404.636 562.078 459.336 562.078C514.035 562.078 558.377 517.569 558.377 462.664C558.377 407.759 514.035 363.25 459.336 363.25C404.636 363.25 360.294 407.759 360.294 462.664Z" fill="#45AFBE"/>
<path d="M717.997 502.739C751.913 467.782 807.746 466.938 842.704 500.854C877.661 534.77 878.505 590.603 844.589 625.56L788.027 570.683L717.997 502.739Z" fill="#45AFBE"/>
<circle cx="783.991" cy="559.509" r="40.5137" fill="white"/>
</svg>
