<svg width="1024" height="1024" viewBox="0 0 1024 1024" fill="none" xmlns="http://www.w3.org/2000/svg">
<path d="M0 0H1024V1024H0V0Z" fill="#FAFAFA"/>
<rect x="188.266" y="286.917" width="58.2385" height="351.963" fill="#45AFBE"/>
<path d="M686 286H744L744 455.351L686 510V468.84V286Z" fill="#45AFBE"/>
<path d="M188.265 638.673L217.384 588.237L470.332 734.277L470.333 801.567L441.213 784.713L188.265 638.673Z" fill="#45AFBE"/>
<rect width="47.457" height="335.142" transform="matrix(-0.707107 -0.707107 -0.707107 0.707107 760.209 534.761)" fill="#45AFBE"/>
<rect width="46.844" height="127.871" transform="matrix(1 0 0 -1 489.67 865.894)" fill="#45AFBE"/>
<rect x="494.734" y="864.628" width="46.844" height="117.743" transform="rotate(-90 494.734 864.628)" fill="#45AFBE"/>
<rect width="49.234" height="340.233" transform="matrix(-0.707107 -0.707107 -0.707107 0.707107 853.406 623.335)" fill="#45AFBE"/>
<rect x="438.945" y="176.564" width="58.2385" height="318.641" transform="rotate(-60 438.945 176.564)" fill="#45AFBE"/>
<rect width="58.2385" height="323.283" transform="matrix(-0.5 -0.866025 -0.866025 0.5 496.091 175.436)" fill="#45AFBE"/>
<path d="M608.679 462.664C608.679 541.574 544.95 605.543 466.336 605.543C387.721 605.543 323.992 541.574 323.992 462.664C323.992 383.755 387.721 319.786 466.336 319.786C544.95 319.786 608.679 383.755 608.679 462.664ZM367.294 462.664C367.294 517.569 411.636 562.078 466.336 562.078C521.035 562.078 565.377 517.569 565.377 462.664C565.377 407.759 521.035 363.25 466.336 363.25C411.636 363.25 367.294 407.759 367.294 462.664Z" fill="#45AFBE"/>
<path d="M724.997 502.739C758.913 467.782 814.746 466.938 849.704 500.854C884.661 534.77 885.505 590.603 851.589 625.56L795.027 570.683L724.997 502.739Z" fill="#45AFBE"/>
<circle cx="790.991" cy="559.509" r="40.5137" fill="#FAFAFA"/>
</svg>
