<svg width="1024" height="1024" viewBox="0 0 1024 1024" fill="none" xmlns="http://www.w3.org/2000/svg">
<path d="M0 0H1024V1024H0V0Z" fill="#FAFAFA"/>
<rect x="241.132" y="327.744" width="52.0617" height="314.634" fill="#45AFBE"/>
<path d="M686.076 326.924H737.924L737.924 478.314L686.076 527.167V490.373V326.924Z" fill="#45AFBE"/>
<path d="M241.131 642.192L267.162 597.106L493.282 727.656L493.282 787.81L467.251 772.743L241.131 642.192Z" fill="#45AFBE"/>
<rect width="42.4237" height="299.596" transform="matrix(-0.707107 -0.707107 -0.707107 0.707107 752.414 549.301)" fill="#45AFBE"/>
<rect width="41.8757" height="114.309" transform="matrix(1 0 0 -1 510.569 845.314)" fill="#45AFBE"/>
<rect x="515.096" y="844.183" width="41.8757" height="105.255" transform="rotate(-90 515.096 844.183)" fill="#45AFBE"/>
<rect width="44.0122" height="304.148" transform="matrix(-0.707107 -0.707107 -0.707107 0.707107 835.727 628.481)" fill="#45AFBE"/>
<rect x="465.224" y="229.095" width="52.0617" height="284.846" transform="rotate(-60 465.224 229.095)" fill="#45AFBE"/>
<rect width="52.0617" height="288.996" transform="matrix(-0.5 -0.866025 -0.866025 0.5 516.309 228.087)" fill="#45AFBE"/>
<path d="M616.956 484.851C616.956 555.392 559.985 612.576 489.709 612.576C419.433 612.576 362.463 555.392 362.463 484.851C362.463 414.311 419.433 357.127 489.709 357.127C559.985 357.127 616.956 414.311 616.956 484.851ZM401.172 484.851C401.172 533.933 440.811 573.722 489.709 573.722C538.607 573.722 578.247 533.933 578.247 484.851C578.247 435.77 538.607 395.981 489.709 395.981C440.811 395.981 401.172 435.77 401.172 484.851Z" fill="#45AFBE"/>
<path d="M720.937 520.676C751.256 489.426 801.167 488.672 832.417 518.991C863.667 549.309 864.421 599.221 834.103 630.471L783.539 581.414L720.937 520.676Z" fill="#45AFBE"/>
<circle cx="779.932" cy="571.425" r="36.2168" fill="#FAFAFA"/>
</svg>
