<svg width="1024" height="1024" viewBox="0 0 1024 1024" fill="none" xmlns="http://www.w3.org/2000/svg">
<rect width="1024" height="1024" fill="#FAFAFA"/>
<rect x="881.136" y="766.081" width="32.9742" height="227.317" rx="16.4871" transform="rotate(138.019 881.136 766.081)" fill="#45AFBE"/>
<circle cx="654.748" cy="535.604" r="114.585" fill="#45AFBE"/>
<circle cx="654.748" cy="535.604" r="82.4355" fill="#FAFAFA"/>
<rect x="325.737" y="402.058" width="19.9344" height="156.619" transform="rotate(57.8667 325.737 402.058)" fill="#45AFBE"/>
<rect x="447.382" y="540.329" width="19.9344" height="145.223" transform="rotate(151.709 447.382 540.329)" fill="#45AFBE"/>
<rect x="478.559" y="549.78" width="19.9344" height="181.44" transform="rotate(-154.171 478.559 549.78)" fill="#45AFBE"/>
<rect x="563.245" y="386.209" width="19.9344" height="54.6344" rx="6" transform="rotate(-29.1352 563.245 386.209)" fill="#45AFBE"/>
<rect x="778.31" y="335.286" width="19.9344" height="115.656" rx="6" transform="rotate(33.8206 778.31 335.286)" fill="#45AFBE"/>
<circle cx="799.011" cy="318.799" r="33.7985" fill="#45AFBE"/>
<circle cx="559.123" cy="358.368" r="33.7985" fill="#45AFBE"/>
<circle cx="454.43" cy="570.227" r="33.7985" fill="#45AFBE"/>
<circle cx="353.859" cy="394.639" r="33.7985" fill="#45AFBE"/>
<circle cx="175.799" cy="507.576" r="33.7985" fill="#45AFBE"/>
<circle cx="176.211" cy="507.164" r="21.021" fill="#FAFAFA"/>
<circle cx="354.272" cy="395.876" r="21.021" fill="#FAFAFA"/>
<circle cx="454.018" cy="570.639" r="21.021" fill="#FAFAFA"/>
<circle cx="559.536" cy="360.428" r="21.021" fill="#FAFAFA"/>
<circle cx="799.423" cy="318.386" r="21.021" fill="#FAFAFA"/>
</svg>
