<svg width="983" height="670" viewBox="0 0 983 670" fill="none" xmlns="http://www.w3.org/2000/svg">
<rect x="983" y="639.804" width="43.8534" height="302.316" rx="21.9267" transform="rotate(138.019 983 639.804)" fill="#45AFBE"/>
<circle cx="681.92" cy="333.286" r="152.39" fill="#45AFBE"/>
<circle cx="681.92" cy="333.286" r="109.633" fill="white"/>
<rect x="244.357" y="155.68" width="26.5114" height="208.292" transform="rotate(57.8667 244.357 155.68)" fill="#45AFBE"/>
<rect x="406.136" y="339.57" width="26.5114" height="193.136" transform="rotate(151.709 406.136 339.57)" fill="#45AFBE"/>
<rect x="447.6" y="352.139" width="26.5114" height="241.303" transform="rotate(-154.171 447.6 352.139)" fill="#45AFBE"/>
<rect x="560.227" y="134.601" width="26.5114" height="72.6599" rx="6" transform="rotate(-29.1352 560.227 134.601)" fill="#45AFBE"/>
<rect x="846.247" y="66.8764" width="26.5114" height="153.814" rx="6" transform="rotate(33.8206 846.247 66.8764)" fill="#45AFBE"/>
<circle cx="873.778" cy="44.9497" r="44.9497" fill="#45AFBE"/>
<circle cx="554.745" cy="97.5737" r="44.9497" fill="#45AFBE"/>
<circle cx="415.511" cy="379.332" r="44.9497" fill="#45AFBE"/>
<circle cx="281.758" cy="145.812" r="44.9497" fill="#45AFBE"/>
<circle cx="44.9497" cy="296.01" r="44.9497" fill="#45AFBE"/>
<circle cx="45.498" cy="295.462" r="27.9565" fill="white"/>
<circle cx="282.306" cy="147.457" r="27.9565" fill="white"/>
<circle cx="414.962" cy="379.88" r="27.9565" fill="white"/>
<circle cx="555.293" cy="100.315" r="27.9565" fill="white"/>
<circle cx="874.327" cy="44.4016" r="27.9565" fill="white"/>
</svg>
