<svg width="1024" height="1024" viewBox="0 0 1024 1024" fill="none" xmlns="http://www.w3.org/2000/svg">
<rect width="1024" height="1024" fill="#FAFAFA"/>
<path d="M244.028 650.095C233.884 643.943 233.728 629.278 243.739 622.912L535.717 437.251C540.786 434.028 547.234 433.916 552.412 436.961L833.505 602.239C843.555 608.149 844.114 622.478 834.554 629.151L552.521 826.035C547.326 829.661 540.482 829.881 535.065 826.596L244.028 650.095Z" fill="#19697B"/>
<path d="M242.82 546.603C232.736 540.442 232.581 525.852 242.531 519.478L534.673 332.319C539.764 329.058 546.258 328.944 551.459 332.025L832.706 498.635C842.696 504.553 843.253 518.808 833.755 525.488L551.563 723.96C546.349 727.627 539.456 727.85 534.017 724.526L242.82 546.603Z" fill="#45AFBE"/>
<path d="M244.028 430.095C233.884 423.943 233.728 409.278 243.739 402.912L535.717 217.251C540.786 214.028 547.234 213.916 552.412 216.961L833.505 382.239C843.555 388.149 844.114 402.478 834.554 409.151L552.521 606.035C547.326 609.661 540.482 609.881 535.065 606.596L244.028 430.095Z" fill="#B5E0E6"/>
</svg>
