<svg width="696" height="681" viewBox="0 0 696 681" fill="none" xmlns="http://www.w3.org/2000/svg">
<path d="M23.0392 480.058C12.892 473.907 12.7364 459.238 22.7507 452.873L346.256 247.248C351.324 244.026 357.769 243.914 362.946 246.957L674.494 430.069C684.547 435.977 685.106 450.31 675.543 456.984L363.055 675.039C357.861 678.663 351.02 678.883 345.604 675.6L23.0392 480.058Z" fill="#19697B"/>
<path d="M21.8494 366.569C11.7573 360.409 11.6019 345.808 21.5606 339.435L345.216 132.309C350.303 129.053 356.791 128.94 361.989 132.016L673.677 316.462C683.676 322.379 684.233 336.644 674.727 343.324L362.094 562.971C356.882 566.632 349.996 566.854 344.56 563.536L21.8494 366.569Z" fill="#45AFBE"/>
<path d="M22.9756 238.562C12.8469 232.408 12.6913 217.761 22.687 211.393L346.243 5.26823C351.317 2.03545 357.776 1.92282 362.96 4.97672L674.555 188.533C684.591 194.445 685.149 208.755 675.604 215.43L363.068 434.016C357.868 437.653 351.012 437.873 345.59 434.579L22.9756 238.562Z" fill="#B5E0E6"/>
</svg>
