<svg width="869" height="869" viewBox="0 0 869 869" fill="none" xmlns="http://www.w3.org/2000/svg">
<path d="M869 434.5C869 674.468 674.468 869 434.5 869C194.532 869 0 674.468 0 434.5C0 194.532 194.532 0 434.5 0C674.468 0 869 194.532 869 434.5ZM118.206 434.5C118.206 609.184 259.816 750.794 434.5 750.794C609.184 750.794 750.794 609.184 750.794 434.5C750.794 259.816 609.184 118.206 434.5 118.206C259.816 118.206 118.206 259.816 118.206 434.5Z" fill="#45AFBE"/>
<path d="M433.509 668H427.837C425.946 668 424.245 667.622 422.732 666.867C373.195 651.386 332.356 620.704 300.213 574.821C268.071 528.952 252 478.266 252 422.761V315.717C252 306.277 254.745 297.782 260.236 290.23C265.712 282.678 272.798 277.204 281.495 273.805L417.627 222.832C422.921 220.944 428.215 220 433.509 220C438.803 220 444.097 220.944 449.391 222.832L585.523 273.805C594.221 277.204 601.315 282.678 606.805 290.23C612.281 297.782 615.019 306.277 615.019 315.717V422.761C615.019 478.266 598.947 528.952 566.805 574.821C534.663 620.704 493.823 651.386 444.286 666.867C442.396 667.622 438.803 668 433.509 668Z" fill="#45AFBE"/>
<path d="M368.041 539.604C362.04 539.604 356.905 537.478 352.635 533.227C348.357 528.968 346.219 523.85 346.219 517.875V409.229C346.219 403.253 348.357 398.136 352.635 393.877C356.905 389.626 362.04 387.5 368.041 387.5H378.953V365.77C378.953 350.741 384.274 337.928 394.916 327.332C405.551 316.742 418.415 311.447 433.509 311.447C448.603 311.447 461.472 316.742 472.114 327.332C482.749 337.928 488.066 350.741 488.066 365.77V387.5H498.978C504.979 387.5 510.118 389.626 514.395 393.877C518.665 398.136 520.8 403.253 520.8 409.229V517.875C520.8 523.85 518.665 528.968 514.395 533.227C510.118 537.478 504.979 539.604 498.978 539.604H368.041ZM433.509 485.281C439.511 485.281 444.65 483.155 448.927 478.904C453.197 474.645 455.332 469.527 455.332 463.552C455.332 457.576 453.197 452.459 448.927 448.2C444.65 443.949 439.511 441.823 433.509 441.823C427.508 441.823 422.373 443.949 418.103 448.2C413.825 452.459 411.687 457.576 411.687 463.552C411.687 469.527 413.825 474.645 418.103 478.904C422.373 483.155 427.508 485.281 433.509 485.281ZM400.775 387.5H466.243V365.77C466.243 356.717 463.061 349.021 456.696 342.683C450.331 336.346 442.602 333.177 433.509 333.177C424.417 333.177 416.688 336.346 410.323 342.683C403.958 349.021 400.775 356.717 400.775 365.77V387.5Z" fill="white"/>
</svg>
