<svg width="1024" height="1002" viewBox="0 0 1024 1002" fill="none" xmlns="http://www.w3.org/2000/svg">
<rect width="1024" height="1002" fill="#FAFAFA"/>
<path d="M882 485.5C882 685.151 716.569 847 512.5 847C308.431 847 143 685.151 143 485.5C143 285.849 308.431 124 512.5 124C716.569 124 882 285.849 882 485.5ZM243.523 485.5C243.523 630.836 363.948 748.653 512.5 748.653C661.052 748.653 781.477 630.836 781.477 485.5C781.477 340.164 661.052 222.347 512.5 222.347C363.948 222.347 243.523 340.164 243.523 485.5Z" fill="#45AFBE"/>
<path d="M512 679H507.188C505.583 679 504.14 678.686 502.856 678.057C460.827 665.168 426.177 639.622 398.906 601.42C371.635 563.23 358 521.029 358 474.817V385.693C358 377.834 360.329 370.76 364.988 364.473C369.633 358.185 375.646 353.627 383.025 350.798L498.525 308.358C503.017 306.786 507.508 306 512 306C516.492 306 520.983 306.786 525.475 308.358L640.975 350.798C648.354 353.627 654.373 358.185 659.032 364.473C663.677 370.76 666 377.834 666 385.693V474.817C666 521.029 652.365 563.23 625.094 601.42C597.823 639.622 563.173 665.168 521.144 678.057C519.54 678.686 516.492 679 512 679Z" fill="#45AFBE"/>
<path d="M455.625 573C450.503 573 446.12 571.22 442.476 567.661C438.825 564.096 437 559.812 437 554.81V463.857C437 458.855 438.825 454.571 442.476 451.006C446.12 447.446 450.503 445.667 455.625 445.667H464.938V427.476C464.938 414.894 469.479 404.168 478.562 395.297C487.638 386.432 498.618 382 511.5 382C524.382 382 535.365 386.432 544.448 395.297C553.524 404.168 558.062 414.894 558.062 427.476V445.667H567.375C572.497 445.667 576.883 447.446 580.534 451.006C584.178 454.571 586 458.855 586 463.857V554.81C586 559.812 584.178 564.096 580.534 567.661C576.883 571.22 572.497 573 567.375 573H455.625ZM511.5 527.524C516.622 527.524 521.008 525.744 524.659 522.185C528.303 518.62 530.125 514.336 530.125 509.333C530.125 504.331 528.303 500.047 524.659 496.482C521.008 492.922 516.622 491.143 511.5 491.143C506.378 491.143 501.995 492.922 498.351 496.482C494.7 500.047 492.875 504.331 492.875 509.333C492.875 514.336 494.7 518.62 498.351 522.185C501.995 525.744 506.378 527.524 511.5 527.524ZM483.562 445.667H539.438V427.476C539.438 419.897 536.721 413.454 531.289 408.149C525.857 402.843 519.26 400.19 511.5 400.19C503.74 400.19 497.143 402.843 491.711 408.149C486.279 413.454 483.562 419.897 483.562 427.476V445.667Z" fill="#FAFAFA"/>
</svg>
