<svg width="1024" height="1002" viewBox="0 0 1024 1002" fill="none" xmlns="http://www.w3.org/2000/svg">
<rect width="1024" height="1002" fill="#FAFAFA"/>
<path d="M870 507.5C870 701.076 709.718 858 512 858C314.282 858 154 701.076 154 507.5C154 313.924 314.282 157 512 157C709.718 157 870 313.924 870 507.5ZM251.394 507.5C251.394 648.413 368.072 762.646 512 762.646C655.928 762.646 772.606 648.413 772.606 507.5C772.606 366.587 655.928 252.354 512 252.354C368.072 252.354 251.394 366.587 251.394 507.5Z" fill="#45AFBE"/>
<path d="M511.5 695H506.828C505.271 695 503.869 694.696 502.623 694.087C461.822 681.613 428.185 656.889 401.711 619.916C375.237 582.955 362 542.111 362 497.386V411.129C362 403.523 364.261 396.677 368.784 390.592C373.293 384.507 379.13 380.095 386.294 377.357L498.419 336.282C502.779 334.761 507.14 334 511.5 334C515.86 334 520.221 334.761 524.581 336.282L636.706 377.357C643.87 380.095 649.713 384.507 654.235 390.592C658.745 396.677 661 403.523 661 411.129V497.386C661 542.111 647.763 582.955 621.289 619.916C594.815 656.889 561.178 681.613 520.377 694.087C518.819 694.696 515.86 695 511.5 695Z" fill="#45AFBE"/>
<path d="M457 592C452.05 592 447.814 590.286 444.292 586.857C440.764 583.422 439 579.295 439 574.476V486.857C439 482.038 440.764 477.911 444.292 474.477C447.814 471.048 452.05 469.333 457 469.333H466V451.81C466 439.689 470.389 429.356 479.167 420.81C487.939 412.27 498.55 408 511 408C523.45 408 534.064 412.27 542.842 420.81C551.614 429.356 556 439.689 556 451.81V469.333H565C569.95 469.333 574.189 471.048 577.717 474.477C581.239 477.911 583 482.038 583 486.857V574.476C583 579.295 581.239 583.422 577.717 586.857C574.189 590.286 569.95 592 565 592H457ZM511 548.19C515.95 548.19 520.189 546.476 523.717 543.047C527.239 539.613 529 535.486 529 530.667C529 525.848 527.239 521.721 523.717 518.286C520.189 514.857 515.95 513.143 511 513.143C506.05 513.143 501.814 514.857 498.292 518.286C494.764 521.721 493 525.848 493 530.667C493 535.486 494.764 539.613 498.292 543.047C501.814 546.476 506.05 548.19 511 548.19ZM484 469.333H538V451.81C538 444.508 535.375 438.302 530.125 433.19C524.875 428.079 518.5 425.524 511 425.524C503.5 425.524 497.125 428.079 491.875 433.19C486.625 438.302 484 444.508 484 451.81V469.333Z" fill="#FAFAFA"/>
</svg>
