<svg width="1024" height="1024" viewBox="0 0 1024 1024" fill="none" xmlns="http://www.w3.org/2000/svg">
<rect width="1024" height="1024" fill="#FAFAFA"/>
<path d="M561.589 108C602.647 202.956 414.389 261.596 396.893 340.697C380.855 413.385 508.751 497.849 508.868 497.849C489.447 467.771 475.159 442.997 455.68 396.19C422.729 317.031 656.359 245.391 561.589 108ZM686.627 239.504C686.627 239.504 521.465 250.113 513.067 355.619C509.334 402.602 556.515 427.317 557.857 461.475C558.965 489.397 529.863 512.771 529.863 512.771C529.863 512.771 582.818 502.687 599.381 460.076C617.751 412.802 563.572 380.859 569.054 343.028C574.303 306.83 686.627 239.504 686.627 239.504ZM427.22 483.393C427.22 483.393 276.054 481.236 276.054 523.963C276.054 568.614 473.934 571.936 615.244 544.481C615.244 544.481 652.802 518.659 662.833 509.041C570.221 527.927 359.102 530.025 359.102 513.704C359.102 498.665 427.22 483.393 427.22 483.393ZM717.887 483.393C703.074 484.558 687.094 490.271 672.631 500.647C706.69 493.302 735.616 514.403 735.616 538.419C735.616 592.513 657.234 643.343 657.234 643.343C657.234 643.343 778.54 629.586 778.54 540.751C778.54 500.414 750.488 480.828 717.887 483.393ZM390.828 566.399C367.617 566.399 332.975 584.585 332.975 601.839C332.975 636.523 507.468 663.22 636.705 612.565L591.916 585.052C504.319 613.09 343.006 603.938 390.828 566.399ZM412.29 644.275C380.505 644.275 359.568 663.453 359.568 677.851C359.568 722.385 549.4 726.873 624.575 681.581L576.986 651.27C520.823 674.994 379.864 678.608 412.29 644.275ZM306.381 684.379C254.592 683.33 221 706.588 221 725.882C221 828.474 751.013 823.752 751.013 718.887C751.013 701.458 730.892 693.006 723.486 689.043C766.818 789.303 289.584 781.317 289.584 722.152C289.584 708.687 324.693 695.804 357.236 702.1L329.709 686.245C321.602 685.02 313.787 684.554 306.381 684.379ZM807 753.395C726.402 829.756 522.165 857.445 316.645 810.287C522.106 894.343 806.009 847.185 807 753.395Z" fill="#45AFBE"/>
</svg>
