<svg width="1024" height="1024" viewBox="0 0 1024 1024" fill="none" xmlns="http://www.w3.org/2000/svg">
<rect width="1024" height="1024" fill="#FAFAFA"/>
<path d="M557.947 127C595.432 213.682 423.559 267.213 407.585 339.422C392.943 405.777 509.708 482.881 509.815 482.881C492.084 455.423 479.039 432.808 461.256 390.079C431.172 317.818 644.47 252.42 557.947 127ZM672.104 247.046C672.104 247.046 521.315 256.73 513.648 353.044C510.24 395.933 553.315 418.494 554.54 449.677C555.551 475.165 528.982 496.503 528.982 496.503C528.982 496.503 577.328 487.297 592.45 448.399C609.222 405.245 559.758 376.085 564.763 341.55C569.555 308.506 672.104 247.046 672.104 247.046ZM435.272 469.684C435.272 469.684 297.263 467.715 297.263 506.72C297.263 547.48 477.921 550.513 606.932 525.45C606.932 525.45 641.222 501.877 650.38 493.097C565.828 510.338 373.083 512.254 373.083 497.354C373.083 483.626 435.272 469.684 435.272 469.684ZM700.643 469.684C687.118 470.748 672.529 475.963 659.325 485.435C690.42 478.73 716.829 497.993 716.829 519.916C716.829 569.297 645.268 615.697 645.268 615.697C645.268 615.697 756.017 603.139 756.017 522.045C756.017 485.222 730.406 467.343 700.643 469.684ZM402.048 545.458C380.857 545.458 349.229 562.06 349.229 577.811C349.229 609.472 508.537 633.843 626.526 587.602L585.635 562.486C505.661 588.08 358.387 579.726 402.048 545.458ZM421.642 616.549C392.624 616.549 373.509 634.055 373.509 647.199C373.509 687.853 546.819 691.95 615.451 650.604L572.004 622.934C520.73 644.591 392.038 647.891 421.642 616.549ZM324.95 653.159C277.669 652.201 247 673.432 247 691.045C247 784.698 730.885 780.388 730.885 684.66C730.885 668.75 712.516 661.034 705.754 657.415C745.315 748.94 309.615 741.65 309.615 687.64C309.615 675.348 341.669 663.588 371.379 669.335L346.248 654.861C338.847 653.744 331.712 653.318 324.95 653.159ZM782 716.161C708.416 785.869 521.954 811.144 334.321 768.096C521.901 844.828 781.095 801.779 782 716.161Z" fill="#45AFBE"/>
</svg>
