<svg width="1024" height="1024" viewBox="0 0 1024 1024" fill="none" xmlns="http://www.w3.org/2000/svg">
<rect width="1024" height="1024" fill="white"/>
<path d="M567.385 55C615.169 165.485 396.071 233.715 375.709 325.752C357.043 410.328 505.891 508.604 506.027 508.604C483.425 473.607 466.796 444.782 444.126 390.32C405.777 298.215 677.681 214.86 567.385 55ZM712.908 208.01C712.908 208.01 520.688 220.354 510.914 343.115C506.57 397.78 561.48 426.538 563.041 466.282C564.331 498.77 530.462 525.967 530.462 525.967C530.462 525.967 592.092 514.234 611.368 464.654C632.748 409.65 569.693 372.482 576.073 328.465C582.182 286.346 712.908 208.01 712.908 208.01ZM411.003 491.784C411.003 491.784 235.073 489.274 235.073 538.989C235.073 590.942 465.37 594.808 629.83 562.863C629.83 562.863 673.541 532.817 685.215 521.626C577.431 543.601 331.726 546.043 331.726 527.052C331.726 509.554 411.003 491.784 411.003 491.784ZM749.288 491.784C732.048 493.14 713.451 499.787 696.618 511.86C736.256 503.314 769.922 527.866 769.922 555.809C769.922 618.75 678.699 677.892 678.699 677.892C678.699 677.892 819.877 661.885 819.877 558.522C819.877 511.588 787.23 488.8 749.288 491.784ZM368.65 588.365C341.636 588.365 301.318 609.526 301.318 629.601C301.318 669.956 504.398 701.02 654.807 642.081L602.68 610.068C500.733 642.691 312.993 632.043 368.65 588.365ZM393.627 678.977C356.636 678.977 332.269 701.291 332.269 718.043C332.269 769.861 553.2 775.083 640.689 722.384L585.304 687.116C519.941 714.72 355.889 718.925 393.627 678.977ZM270.368 725.64C210.096 724.419 171 751.48 171 773.93C171 893.3 787.841 887.806 787.841 765.791C787.841 745.512 764.424 735.678 755.804 731.066C806.235 847.722 250.82 838.43 250.82 769.589C250.82 753.922 291.68 738.933 329.554 746.258L297.518 727.81C288.083 726.386 278.988 725.843 270.368 725.64ZM853 805.943C759.198 894.792 521.502 927.008 282.314 872.139C521.434 969.94 851.846 915.071 853 805.943Z" fill="#45AFBE"/>
</svg>
