<svg width="1024" height="1024" viewBox="0 0 1024 1024" fill="none" xmlns="http://www.w3.org/2000/svg">
<rect width="1024" height="1024" fill="#FAFAFA"/>
<path d="M648.756 315.671C648.917 316.264 649 316.876 649 317.49V413.008C649 415.504 647.666 417.808 645.503 419.05L565.382 465.207V556.694C565.382 559.184 564.06 561.483 561.902 562.736L394.658 659.073C394.275 659.29 393.858 659.429 393.44 659.577C393.284 659.63 393.136 659.725 392.97 659.769C391.801 660.077 390.572 660.077 389.403 659.769C389.212 659.717 389.038 659.612 388.855 659.543C388.472 659.403 388.072 659.281 387.707 659.073L220.497 562.736C218.335 561.493 217 559.189 217 556.694V270.14C217 269.513 217.087 268.904 217.244 268.312C217.296 268.112 217.418 267.929 217.487 267.729C217.618 267.363 217.74 266.989 217.931 266.649C218.061 266.423 218.253 266.24 218.409 266.031C218.61 265.753 218.792 265.465 219.027 265.222C219.227 265.021 219.488 264.873 219.714 264.699C219.967 264.49 220.193 264.264 220.48 264.099H220.489L304.098 215.93C306.252 214.69 308.903 214.69 311.058 215.93L394.667 264.099H394.684C394.963 264.273 395.198 264.49 395.45 264.691C395.676 264.865 395.928 265.021 396.129 265.213C396.372 265.465 396.546 265.753 396.755 266.031C396.903 266.24 397.103 266.423 397.225 266.649C397.425 266.998 397.538 267.363 397.677 267.729C397.747 267.929 397.869 268.112 397.921 268.321C398.081 268.914 398.163 269.526 398.164 270.14V449.119L467.836 408.977V317.481C467.836 316.872 467.923 316.254 468.079 315.671C468.14 315.462 468.253 315.279 468.323 315.079C468.462 314.713 468.584 314.339 468.775 313.999C468.906 313.773 469.097 313.59 469.245 313.381C469.454 313.103 469.628 312.815 469.871 312.571C470.072 312.371 470.324 312.223 470.55 312.049C470.811 311.84 471.037 311.614 471.316 311.448H471.324L554.942 263.28C557.096 262.038 559.748 262.038 561.902 263.28L645.511 311.448C645.807 311.623 646.033 311.84 646.294 312.04C646.512 312.215 646.764 312.371 646.964 312.563C647.208 312.815 647.382 313.103 647.591 313.381C647.747 313.59 647.939 313.773 648.06 313.999C648.26 314.339 648.374 314.713 648.513 315.079C648.591 315.279 648.704 315.462 648.756 315.671ZM635.062 408.977V329.547L605.803 346.402L565.382 369.689V449.119L635.071 408.977H635.062ZM551.453 552.664V473.181L511.693 495.903L398.156 560.743V640.974L551.453 552.664ZM230.938 282.198V552.664L384.218 640.965V560.751L304.141 515.404L304.115 515.386L304.08 515.369C303.811 515.212 303.584 514.986 303.332 514.794C303.115 514.62 302.862 514.481 302.671 514.289L302.654 514.263C302.427 514.046 302.271 513.776 302.079 513.532C301.905 513.297 301.697 513.097 301.557 512.853L301.549 512.827C301.392 512.566 301.296 512.252 301.183 511.956C301.07 511.695 300.922 511.451 300.853 511.173V511.164C300.766 510.833 300.748 510.485 300.713 510.146C300.679 509.884 300.609 509.623 300.609 509.362V509.345V322.339L260.197 299.043L230.938 282.206V282.198ZM307.587 230.016L237.924 270.14L307.569 310.264L377.223 270.132L307.569 230.016H307.587ZM343.814 480.425L384.227 457.146V282.198L354.968 299.052L314.547 322.339V497.287L343.814 480.425ZM558.422 277.366L488.768 317.49L558.422 357.614L628.067 317.481L558.422 277.366ZM551.453 369.689L511.032 346.402L481.773 329.547V408.977L522.186 432.256L551.453 449.119V369.689ZM391.178 548.685L493.345 490.323L544.415 461.159L474.813 421.061L394.676 467.227L321.637 509.301L391.178 548.685Z" fill="#45AFBE"/>
<g clip-path="url(#clip0_42_17)">
<path d="M769.6 417H864L628 824.631L392 417H485.22H572.54L628 511.523L682.28 417H769.6Z" fill="#45AFBE"/>
<path d="M392 417L628 824.631L864 417H769.6L628 661.578L485.22 417H392Z" fill="#45AFBE"/>
<path d="M485.22 417L628 662.76L769.6 417H682.28L628 511.523L572.54 417H485.22Z" fill="#19697B"/>
</g>
<defs>
<clipPath id="clip0_42_17">
<rect width="472" height="408" fill="white" transform="translate(392 417)"/>
</clipPath>
</defs>
</svg>
