<svg width="1024" height="1024" viewBox="0 0 1024 1024" fill="none" xmlns="http://www.w3.org/2000/svg">
<rect width="1024" height="1024" fill="#FAFAFA"/>
<circle cx="514" cy="508.475" r="236" stroke="#45AFBE" stroke-width="10"/>
<path d="M712 506.475C712 616.379 622.681 705.475 512.5 705.475C402.319 705.475 313 616.379 313 506.475C313 396.57 402.319 307.475 512.5 307.475C622.681 307.475 712 396.57 712 506.475ZM318.048 506.475C318.048 613.598 405.107 700.439 512.5 700.439C619.893 700.439 706.952 613.598 706.952 506.475C706.952 399.351 619.893 312.51 512.5 312.51C405.107 312.51 318.048 399.351 318.048 506.475Z" fill="#45AFBE"/>
<g filter="url(#filter0_d_42_294)">
<path d="M512.799 361.427C511.515 363.446 508.499 363.222 507.527 361.036L492.091 326.331C491.169 324.259 492.792 321.952 495.054 322.12L530.879 324.778C533.141 324.946 534.405 327.467 533.188 329.38L512.799 361.427Z" fill="#45AFBE"/>
<circle cx="512.677" cy="263.367" r="74.3671" fill="#45AFBE"/>
<path d="M676.777 522.62C674.727 521.387 674.875 518.367 677.037 517.34L711.346 501.044C713.395 500.071 715.741 501.636 715.629 503.901L713.865 539.781C713.753 542.047 711.265 543.374 709.321 542.205L676.777 522.62Z" fill="#45AFBE"/>
<circle cx="774.803" cy="520.055" r="74.3671" transform="rotate(88.5724 774.803 520.055)" fill="#45AFBE"/>
<path d="M510.262 657.053C511.505 655.008 514.524 655.171 515.541 657.337L531.675 691.723C532.638 693.776 531.062 696.115 528.797 695.993L492.926 694.059C490.661 693.937 489.346 691.442 490.524 689.505L510.262 657.053Z" fill="#45AFBE"/>
<circle cx="512.365" cy="755.09" r="74.3671" transform="rotate(178.842 512.365 755.09)" fill="#45AFBE"/>
<path d="M348.249 523.282C350.215 524.645 349.872 527.649 347.648 528.534L312.358 542.58C310.251 543.419 308.011 541.706 308.268 539.452L312.347 503.761C312.604 501.508 315.173 500.344 317.037 501.637L348.249 523.282Z" fill="#45AFBE"/>
<circle cx="250.261" cy="519.511" r="74.3671" transform="rotate(-87.7245 250.261 519.511)" fill="#45AFBE"/>
</g>
<g filter="url(#filter1_d_42_294)">
<path d="M634.375 445.651L575.561 436.746C563.357 434.898 551.778 444.817 549.638 458.953L529.006 595.205C526.866 609.341 534.989 622.243 547.193 624.091L606.007 632.997C618.211 634.845 629.79 624.925 631.93 610.789L652.562 474.538C654.702 460.402 646.579 447.499 634.375 445.651ZM593.882 613.739L564.475 609.286L565.765 600.771L595.172 605.223L593.882 613.739ZM621.644 591.81L544.451 580.121L562.503 460.902L639.696 472.59L621.644 591.81Z" fill="#45AFBE"/>
<path d="M461.509 436.33L402.538 444.127C390.301 445.744 381.937 458.492 383.81 472.666L401.873 609.281C403.746 623.455 415.137 633.591 427.373 631.973L486.344 624.176C498.581 622.559 506.946 609.811 505.072 595.637L487.01 459.022C485.136 444.848 473.745 434.712 461.509 436.33ZM469.344 609.049L439.858 612.947L438.729 604.408L468.215 600.51L469.344 609.049ZM489.914 580.266L412.515 590.499L396.71 470.96L474.11 460.727L489.914 580.266Z" fill="#45AFBE"/>
<g filter="url(#filter2_d_42_294)">
<path d="M559.19 406.473H479.429C470.04 406.473 462.429 414.085 462.429 423.473V609.359C462.429 618.748 470.04 626.359 479.429 626.359H559.19C568.579 626.359 576.19 618.748 576.19 609.359V423.473C576.19 414.085 568.579 406.473 559.19 406.473Z" fill="#45AFBE"/>
</g>
</g>
<path d="M789.106 479.654L793.495 471.781C793.551 471.681 793.587 471.57 793.6 471.455C793.613 471.341 793.603 471.225 793.571 471.114C793.539 471.003 793.485 470.9 793.413 470.809C793.341 470.719 793.251 470.644 793.15 470.588C793.048 470.532 792.937 470.497 792.821 470.484C792.706 470.471 792.59 470.481 792.478 470.513C792.367 470.545 792.263 470.598 792.172 470.67C792.081 470.742 792.006 470.831 791.95 470.931L787.515 478.886C783.729 477.235 779.64 476.383 775.507 476.383C771.373 476.383 767.285 477.235 763.499 478.886L759.064 470.931C758.951 470.726 758.76 470.575 758.534 470.51C758.308 470.444 758.066 470.471 757.859 470.584C757.653 470.696 757.501 470.886 757.435 471.111C757.37 471.335 757.396 471.576 757.51 471.781L761.899 479.654C757.723 481.701 754.195 484.853 751.701 488.762C749.207 492.671 747.845 497.188 747.763 501.816H803.251C803.168 497.187 801.804 492.67 799.309 488.76C796.814 484.851 793.284 481.7 789.106 479.654ZM762.703 491.721C762.245 491.721 761.796 491.586 761.415 491.333C761.034 491.079 760.737 490.719 760.561 490.298C760.386 489.876 760.341 489.413 760.43 488.966C760.52 488.519 760.741 488.108 761.066 487.786C761.391 487.464 761.804 487.245 762.254 487.156C762.704 487.068 763.17 487.114 763.594 487.289C764.017 487.464 764.379 487.76 764.633 488.14C764.887 488.52 765.022 488.966 765.021 489.421C765.02 490.032 764.775 490.617 764.341 491.048C763.906 491.479 763.317 491.721 762.703 491.721ZM788.315 491.721C787.856 491.721 787.408 491.586 787.027 491.333C786.645 491.079 786.348 490.719 786.173 490.298C785.998 489.876 785.952 489.413 786.042 488.966C786.132 488.519 786.353 488.108 786.678 487.786C787.002 487.464 787.416 487.245 787.866 487.156C788.315 487.068 788.782 487.114 789.205 487.289C789.629 487.464 789.99 487.76 790.244 488.14C790.499 488.52 790.634 488.966 790.633 489.421C790.632 490.032 790.387 490.617 789.952 491.048C789.518 491.479 788.929 491.721 788.315 491.721ZM747.753 543.978C747.752 544.856 747.925 545.725 748.263 546.536C748.6 547.347 749.095 548.083 749.719 548.704C750.344 549.324 751.085 549.816 751.901 550.15C752.717 550.485 753.591 550.657 754.474 550.655H758.922V564.291C758.922 565.931 759.578 567.504 760.744 568.663C761.911 569.823 763.493 570.475 765.142 570.475C766.792 570.475 768.374 569.823 769.541 568.663C770.707 567.504 771.362 565.931 771.362 564.291V550.655H779.656V564.291C779.656 565.93 780.311 567.502 781.477 568.662C782.643 569.821 784.225 570.472 785.874 570.472C787.523 570.472 789.104 569.821 790.27 568.662C791.436 567.502 792.091 565.93 792.091 564.291V550.655H796.544C797.426 550.656 798.299 550.483 799.113 550.148C799.928 549.813 800.668 549.322 801.291 548.702C801.915 548.082 802.409 547.347 802.746 546.537C803.083 545.727 803.256 544.859 803.256 543.983V503.998H747.753V543.978ZM739.218 502.934C737.569 502.937 735.988 503.59 734.822 504.749C733.657 505.909 733.001 507.481 733 509.121V534.888C733 535.699 733.161 536.503 733.473 537.253C733.786 538.003 734.244 538.685 734.821 539.259C735.398 539.833 736.084 540.288 736.838 540.599C737.593 540.909 738.401 541.069 739.218 541.069C740.034 541.069 740.843 540.909 741.597 540.599C742.352 540.288 743.037 539.833 743.614 539.259C744.192 538.685 744.65 538.003 744.962 537.253C745.275 536.503 745.435 535.699 745.435 534.888V509.121C745.433 507.482 744.777 505.911 743.612 504.752C742.446 503.593 740.866 502.941 739.218 502.939V502.934ZM811.782 502.934C810.133 502.937 808.552 503.59 807.387 504.749C806.221 505.909 805.566 507.481 805.565 509.121V534.888C805.565 535.699 805.725 536.503 806.038 537.253C806.35 538.003 806.808 538.685 807.386 539.259C807.963 539.833 808.648 540.288 809.403 540.599C810.157 540.909 810.966 541.069 811.782 541.069C812.599 541.069 813.407 540.909 814.162 540.599C814.916 540.288 815.602 539.833 816.179 539.259C816.756 538.685 817.214 538.003 817.527 537.253C817.839 536.503 818 535.699 818 534.888V509.121C817.998 507.482 817.342 505.911 816.176 504.752C815.011 503.593 813.431 502.941 811.782 502.939V502.934Z" fill="#FAFAFA"/>
<path d="M535.323 790.145C530.8 794.525 525.862 793.833 521.108 791.758C516.078 789.637 511.463 789.545 506.155 791.758C499.509 794.617 496.001 793.787 492.032 790.145C469.51 766.954 472.833 731.637 498.401 730.346C504.632 730.669 508.97 733.758 512.616 734.034C518.062 732.928 523.278 729.747 529.093 730.162C536.062 730.715 541.323 733.481 544.785 738.46C530.385 747.082 533.8 766.031 547 771.334C544.369 778.249 540.954 785.119 535.277 790.191L535.323 790.145ZM512.155 730.069C511.463 719.788 519.816 711.304 529.416 710.475C530.754 722.37 518.616 731.222 512.155 730.069Z" fill="#FAFAFA"/>
<path d="M474 264.369L474 242.264L498.706 236.706L498.706 263.99L474 264.369ZM544 226.475L544 263.317L502.824 263.948L502.824 235.78L544 226.475ZM474 268.58L498.706 268.959L498.706 297.632L474 292.79L474 268.58ZM544 269.632L544 306.475L502.824 298.432L502.824 269.001L544 269.632Z" fill="#FAFAFA"/>
<path d="M269.62 529.075C269.98 526.072 270.25 523.069 270.25 519.975C270.25 516.881 269.98 513.878 269.62 510.875H284.83C285.55 513.787 286 516.835 286 519.975C286 523.114 285.55 526.163 284.83 529.075M261.655 554.373C264.355 549.322 266.425 543.862 267.865 538.175H281.14C276.78 545.765 269.864 551.515 261.655 554.373ZM260.53 529.075H239.47C239.02 526.072 238.75 523.069 238.75 519.975C238.75 516.881 239.02 513.832 239.47 510.875H260.53C260.935 513.832 261.25 516.881 261.25 519.975C261.25 523.069 260.935 526.072 260.53 529.075ZM250 556.193C246.265 550.733 243.25 544.681 241.405 538.175H258.595C256.75 544.681 253.735 550.733 250 556.193ZM232 501.775H218.86C223.175 494.163 230.087 488.404 238.3 485.577C235.6 490.627 233.575 496.087 232 501.775ZM218.86 538.175H232C233.575 543.862 235.6 549.322 238.3 554.373C230.104 551.514 223.202 545.763 218.86 538.175ZM215.17 529.075C214.45 526.163 214 523.114 214 519.975C214 516.835 214.45 513.787 215.17 510.875H230.38C230.02 513.878 229.75 516.881 229.75 519.975C229.75 523.069 230.02 526.072 230.38 529.075M250 483.711C253.735 489.171 256.75 495.268 258.595 501.775H241.405C243.25 495.268 246.265 489.171 250 483.711ZM281.14 501.775H267.865C266.457 496.139 264.371 490.699 261.655 485.577C269.935 488.443 276.82 494.222 281.14 501.775ZM250 474.475C225.115 474.475 205 494.95 205 519.975C205 532.042 209.741 543.615 218.18 552.148C222.359 556.373 227.32 559.724 232.779 562.011C238.239 564.298 244.091 565.475 250 565.475C261.935 565.475 273.381 560.681 281.82 552.148C290.259 543.615 295 532.042 295 519.975C295 513.999 293.836 508.083 291.575 502.562C289.313 497.042 285.998 492.026 281.82 487.801C277.641 483.576 272.68 480.225 267.221 477.938C261.761 475.651 255.909 474.475 250 474.475Z" fill="#FAFAFA"/>
<rect x="470" y="422.475" width="99" height="166" rx="5" fill="#FAFAFA"/>
<ellipse cx="518.5" cy="607.475" rx="12.5" ry="12" fill="#FAFAFA"/>
<defs>
<filter id="filter0_d_42_294" x="171.893" y="189" width="681.278" height="648.457" filterUnits="userSpaceOnUse" color-interpolation-filters="sRGB">
<feFlood flood-opacity="0" result="BackgroundImageFix"/>
<feColorMatrix in="SourceAlpha" type="matrix" values="0 0 0 0 0 0 0 0 0 0 0 0 0 0 0 0 0 0 127 0" result="hardAlpha"/>
<feOffset dy="4"/>
<feGaussianBlur stdDeviation="2"/>
<feComposite in2="hardAlpha" operator="out"/>
<feColorMatrix type="matrix" values="0 0 0 0 0 0 0 0 0 0 0 0 0 0 0 0 0 0 0.25 0"/>
<feBlend mode="normal" in2="BackgroundImageFix" result="effect1_dropShadow_42_294"/>
<feBlend mode="normal" in="SourceGraphic" in2="effect1_dropShadow_42_294" result="shape"/>
</filter>
<filter id="filter1_d_42_294" x="379.548" y="406.473" width="277.355" height="234.745" filterUnits="userSpaceOnUse" color-interpolation-filters="sRGB">
<feFlood flood-opacity="0" result="BackgroundImageFix"/>
<feColorMatrix in="SourceAlpha" type="matrix" values="0 0 0 0 0 0 0 0 0 0 0 0 0 0 0 0 0 0 127 0" result="hardAlpha"/>
<feOffset dy="4"/>
<feGaussianBlur stdDeviation="2"/>
<feComposite in2="hardAlpha" operator="out"/>
<feColorMatrix type="matrix" values="0 0 0 0 0 0 0 0 0 0 0 0 0 0 0 0 0 0 0.25 0"/>
<feBlend mode="normal" in2="BackgroundImageFix" result="effect1_dropShadow_42_294"/>
<feBlend mode="normal" in="SourceGraphic" in2="effect1_dropShadow_42_294" result="shape"/>
</filter>
<filter id="filter2_d_42_294" x="458.429" y="406.473" width="121.762" height="227.885" filterUnits="userSpaceOnUse" color-interpolation-filters="sRGB">
<feFlood flood-opacity="0" result="BackgroundImageFix"/>
<feColorMatrix in="SourceAlpha" type="matrix" values="0 0 0 0 0 0 0 0 0 0 0 0 0 0 0 0 0 0 127 0" result="hardAlpha"/>
<feOffset dy="4"/>
<feGaussianBlur stdDeviation="2"/>
<feComposite in2="hardAlpha" operator="out"/>
<feColorMatrix type="matrix" values="0 0 0 0 0 0 0 0 0 0 0 0 0 0 0 0 0 0 0.25 0"/>
<feBlend mode="normal" in2="BackgroundImageFix" result="effect1_dropShadow_42_294"/>
<feBlend mode="normal" in="SourceGraphic" in2="effect1_dropShadow_42_294" result="shape"/>
</filter>
</defs>
</svg>
