<svg width="847" height="805" viewBox="0 0 847 805" fill="none" xmlns="http://www.w3.org/2000/svg">
<circle cx="425" cy="397" r="295" stroke="#45AFBE" stroke-width="10"/>
<path d="M671 395C671 531.967 559.967 643 423 643C286.033 643 175 531.967 175 395C175 258.033 286.033 147 423 147C559.967 147 671 258.033 671 395ZM181.275 395C181.275 528.501 289.499 636.725 423 636.725C556.501 636.725 664.725 528.501 664.725 395C664.725 261.499 556.501 153.275 423 153.275C289.499 153.275 181.275 261.499 181.275 395Z" fill="#45AFBE"/>
<g filter="url(#filter0_d_42_294)">
<path d="M422.921 215.62C421.637 217.639 418.621 217.415 417.649 215.229L397.398 169.699C396.476 167.627 398.099 165.321 400.361 165.488L447.36 168.976C449.622 169.143 450.887 171.664 449.669 173.578L422.921 215.62Z" fill="#45AFBE"/>
<circle cx="423.5" cy="92.5" r="92.5" fill="#45AFBE"/>
<path d="M626.445 414.264C624.395 413.031 624.544 410.011 626.705 408.984L671.716 387.605C673.764 386.632 676.111 388.197 675.999 390.463L673.684 437.534C673.572 439.799 671.084 441.126 669.141 439.957L626.445 414.264Z" fill="#45AFBE"/>
<circle cx="749.541" cy="411.776" r="92.5" transform="rotate(88.5724 749.541 411.776)" fill="#45AFBE"/>
<path d="M421.205 581.014C422.448 578.969 425.467 579.132 426.484 581.298L447.65 626.409C448.614 628.462 447.038 630.801 444.773 630.679L397.713 628.142C395.448 628.02 394.133 625.525 395.311 623.587L421.205 581.014Z" fill="#45AFBE"/>
<circle cx="423.113" cy="704.12" r="92.5" transform="rotate(178.842 423.113 704.12)" fill="#45AFBE"/>
<path d="M220.1 416.567C222.066 417.93 221.723 420.934 219.499 421.819L173.202 440.246C171.095 441.085 168.855 439.372 169.112 437.118L174.462 390.295C174.72 388.041 177.289 386.878 179.153 388.17L220.1 416.567Z" fill="#45AFBE"/>
<circle cx="97.0997" cy="411.1" r="92.5" transform="rotate(-87.7245 97.0997 411.1)" fill="#45AFBE"/>
</g>
<g filter="url(#filter1_d_42_294)">
<path d="M574.872 319.231L501.718 308.154C486.538 305.855 472.136 318.193 469.473 335.776L443.811 505.25C441.149 522.833 451.253 538.881 466.433 541.18L539.587 552.257C554.767 554.555 569.169 542.217 571.831 524.634L597.493 355.161C600.155 337.578 590.051 321.529 574.872 319.231ZM524.506 528.303L487.929 522.765L489.533 512.173L526.11 517.711L524.506 528.303ZM559.037 501.027L463.022 486.489L485.476 338.199L581.491 352.738L559.037 501.027Z" fill="#45AFBE"/>
<path d="M359.856 307.637L286.506 317.334C271.286 319.346 260.882 335.202 263.212 352.832L285.679 522.759C288.009 540.388 302.177 552.995 317.397 550.983L390.747 541.286C405.967 539.273 416.372 523.418 414.041 505.788L391.575 335.861C389.244 318.231 375.076 305.624 359.856 307.637ZM369.601 522.469L332.926 527.318L331.522 516.698L368.197 511.849L369.601 522.469ZM395.187 486.668L298.916 499.396L279.258 350.711L375.529 337.983L395.187 486.668Z" fill="#45AFBE"/>
<g filter="url(#filter2_d_42_294)">
<path d="M485.5 270.5H378C368.611 270.5 361 278.111 361 287.5V527C361 536.389 368.611 544 378 544H485.5C494.889 544 502.5 536.389 502.5 527V287.5C502.5 278.111 494.889 270.5 485.5 270.5Z" fill="#45AFBE"/>
</g>
</g>
<path d="M767.307 361.382L772.729 351.62C772.798 351.495 772.842 351.358 772.858 351.216C772.874 351.074 772.862 350.93 772.823 350.793C772.783 350.655 772.717 350.527 772.628 350.415C772.538 350.303 772.428 350.21 772.303 350.141C772.177 350.072 772.039 350.028 771.897 350.012C771.755 349.996 771.611 350.008 771.473 350.047C771.335 350.087 771.207 350.153 771.095 350.242C770.983 350.331 770.889 350.441 770.82 350.567L765.342 360.43C760.665 358.384 755.615 357.327 750.508 357.327C745.402 357.327 740.352 358.384 735.675 360.43L730.197 350.567C730.057 350.312 729.821 350.124 729.542 350.043C729.263 349.963 728.963 349.996 728.709 350.135C728.454 350.275 728.266 350.51 728.185 350.789C728.104 351.067 728.137 351.366 728.277 351.62L733.698 361.382C728.54 363.921 724.181 367.829 721.101 372.676C718.021 377.524 716.338 383.125 716.236 388.864H784.781C784.678 383.123 782.993 377.522 779.911 372.674C776.829 367.827 772.468 363.92 767.307 361.382ZM734.692 376.346C734.126 376.346 733.572 376.178 733.101 375.864C732.63 375.55 732.263 375.103 732.046 374.581C731.83 374.058 731.774 373.483 731.885 372.929C731.995 372.375 732.269 371.865 732.67 371.466C733.071 371.067 733.581 370.795 734.137 370.685C734.693 370.576 735.269 370.633 735.792 370.85C736.315 371.067 736.762 371.434 737.076 371.905C737.39 372.376 737.557 372.929 737.556 373.494C737.554 374.251 737.252 374.976 736.715 375.511C736.178 376.046 735.451 376.346 734.692 376.346ZM766.33 376.346C765.764 376.346 765.21 376.178 764.739 375.864C764.268 375.55 763.901 375.103 763.684 374.581C763.468 374.058 763.411 373.483 763.522 372.929C763.633 372.375 763.907 371.865 764.308 371.466C764.709 371.067 765.219 370.795 765.775 370.685C766.331 370.576 766.907 370.633 767.43 370.85C767.953 371.067 768.4 371.434 768.714 371.905C769.028 372.376 769.195 372.929 769.194 373.494C769.192 374.251 768.89 374.976 768.353 375.511C767.816 376.046 767.089 376.346 766.33 376.346ZM716.225 441.144C716.223 442.233 716.437 443.31 716.854 444.316C717.271 445.321 717.882 446.235 718.653 447.004C719.425 447.773 720.34 448.383 721.348 448.798C722.356 449.213 723.436 449.426 724.527 449.424H730.022V466.332C730.022 468.366 730.831 470.316 732.272 471.754C733.713 473.192 735.668 474 737.705 474C739.743 474 741.698 473.192 743.138 471.754C744.579 470.316 745.389 468.366 745.389 466.332V449.424H755.634V466.332C755.634 468.365 756.443 470.315 757.883 471.752C759.324 473.19 761.277 473.997 763.314 473.997C765.351 473.997 767.305 473.19 768.745 471.752C770.186 470.315 770.995 468.365 770.995 466.332V449.424H776.496C777.585 449.425 778.663 449.211 779.669 448.795C780.676 448.38 781.59 447.771 782.36 447.002C783.13 446.234 783.741 445.321 784.157 444.317C784.573 443.313 784.787 442.237 784.787 441.15V391.569H716.225V441.144ZM705.681 390.25C703.644 390.253 701.691 391.063 700.251 392.501C698.811 393.939 698.001 395.888 698 397.921V429.872C698 430.879 698.199 431.875 698.585 432.805C698.971 433.735 699.536 434.58 700.25 435.292C700.963 436.004 701.81 436.569 702.741 436.954C703.673 437.339 704.672 437.537 705.681 437.537C706.689 437.537 707.688 437.339 708.62 436.954C709.552 436.569 710.399 436.004 711.112 435.292C711.825 434.58 712.391 433.735 712.777 432.805C713.163 431.875 713.361 430.879 713.361 429.872V397.921C713.358 395.889 712.548 393.941 711.109 392.504C709.669 391.067 707.717 390.259 705.681 390.256V390.25ZM795.319 390.25C793.282 390.253 791.329 391.063 789.889 392.501C788.45 393.939 787.64 395.888 787.639 397.921V429.872C787.639 430.879 787.837 431.875 788.223 432.805C788.609 433.735 789.175 434.58 789.888 435.292C790.601 436.004 791.448 436.569 792.38 436.954C793.312 437.339 794.311 437.537 795.319 437.537C796.328 437.537 797.327 437.339 798.259 436.954C799.19 436.569 800.037 436.004 800.75 435.292C801.464 434.58 802.029 433.735 802.415 432.805C802.801 431.875 803 430.879 803 429.872V397.921C802.997 395.889 802.187 393.941 800.747 392.504C799.307 391.067 797.355 390.259 795.319 390.256V390.25Z" fill="white"/>
<path d="M451.488 747.868C445.866 753.303 439.729 752.445 433.82 749.87C427.568 747.238 421.832 747.124 415.235 749.87C406.975 753.417 402.616 752.388 397.683 747.868C369.691 719.088 373.821 675.262 405.599 673.66C413.343 674.06 418.734 677.894 423.266 678.237C430.035 676.864 436.516 672.916 443.744 673.431C452.405 674.117 458.945 677.55 463.247 683.73C445.35 694.429 449.595 717.944 466 724.524C462.73 733.106 458.486 741.631 451.43 747.925L451.488 747.868ZM422.692 673.316C421.832 660.557 432.214 650.03 444.145 649C445.809 663.761 430.723 674.747 422.692 673.316Z" fill="white"/>
<path d="M375 93.8947L375 66.5395L406.059 59.6616L406.059 93.4258L375 93.8947ZM463 47L463 92.5921L411.235 93.3737L411.235 58.5153L463 47ZM375 99.1053L406.059 99.5742L406.059 135.058L375 129.066L375 99.1053ZM463 100.408L463 146L411.235 136.048L411.235 99.6263L463 100.408Z" fill="white"/>
<path d="M121.416 422.8C121.864 419.071 122.2 415.342 122.2 411.5C122.2 407.658 121.864 403.929 121.416 400.2H140.344C141.24 403.816 141.8 407.602 141.8 411.5C141.8 415.399 141.24 419.184 140.344 422.8M111.504 454.214C114.864 447.942 117.44 441.163 119.232 434.1H135.752C130.327 443.526 121.719 450.666 111.504 454.214ZM110.104 422.8H83.896C83.336 419.071 83 415.342 83 411.5C83 407.658 83.336 403.873 83.896 400.2H110.104C110.608 403.873 111 407.658 111 411.5C111 415.342 110.608 419.071 110.104 422.8ZM97 456.474C92.352 449.694 88.6 442.18 86.304 434.1H107.696C105.4 442.18 101.648 449.694 97 456.474ZM74.6 388.9H58.248C63.6176 379.449 72.2189 372.297 82.44 368.786C79.08 375.058 76.56 381.838 74.6 388.9ZM58.248 434.1H74.6C76.56 441.163 79.08 447.942 82.44 454.214C72.2403 450.664 63.6511 443.523 58.248 434.1ZM53.656 422.8C52.76 419.184 52.2 415.399 52.2 411.5C52.2 407.602 52.76 403.816 53.656 400.2H72.584C72.136 403.929 71.8 407.658 71.8 411.5C71.8 415.342 72.136 419.071 72.584 422.8M97 366.47C101.648 373.25 105.4 380.821 107.696 388.9H86.304C88.6 380.821 92.352 373.25 97 366.47ZM135.752 388.9H119.232C117.479 381.902 114.884 375.147 111.504 368.786C121.808 372.346 130.376 379.521 135.752 388.9ZM97 355C66.032 355 41 380.425 41 411.5C41 426.485 46.9 440.856 57.402 451.452C62.6021 456.698 68.7755 460.86 75.5697 463.699C82.364 466.539 89.646 468 97 468C111.852 468 126.096 462.047 136.598 451.452C147.1 440.856 153 426.485 153 411.5C153 404.08 151.552 396.733 148.737 389.878C145.923 383.023 141.798 376.795 136.598 371.548C131.398 366.302 125.225 362.14 118.43 359.301C111.636 356.461 104.354 355 97 355Z" fill="white"/>
<rect x="370" y="290" width="123" height="207" rx="5" fill="white"/>
<circle cx="430.5" cy="520.5" r="15.5" fill="white"/>
<defs>
<filter id="filter0_d_42_294" x="0.598145" y="0" width="845.444" height="804.62" filterUnits="userSpaceOnUse" color-interpolation-filters="sRGB">
<feFlood flood-opacity="0" result="BackgroundImageFix"/>
<feColorMatrix in="SourceAlpha" type="matrix" values="0 0 0 0 0 0 0 0 0 0 0 0 0 0 0 0 0 0 127 0" result="hardAlpha"/>
<feOffset dy="4"/>
<feGaussianBlur stdDeviation="2"/>
<feComposite in2="hardAlpha" operator="out"/>
<feColorMatrix type="matrix" values="0 0 0 0 0 0 0 0 0 0 0 0 0 0 0 0 0 0 0.25 0"/>
<feBlend mode="normal" in2="BackgroundImageFix" result="effect1_dropShadow_42_294"/>
<feBlend mode="normal" in="SourceGraphic" in2="effect1_dropShadow_42_294" result="shape"/>
</filter>
<filter id="filter1_d_42_294" x="258.886" y="270.5" width="343.032" height="290.032" filterUnits="userSpaceOnUse" color-interpolation-filters="sRGB">
<feFlood flood-opacity="0" result="BackgroundImageFix"/>
<feColorMatrix in="SourceAlpha" type="matrix" values="0 0 0 0 0 0 0 0 0 0 0 0 0 0 0 0 0 0 127 0" result="hardAlpha"/>
<feOffset dy="4"/>
<feGaussianBlur stdDeviation="2"/>
<feComposite in2="hardAlpha" operator="out"/>
<feColorMatrix type="matrix" values="0 0 0 0 0 0 0 0 0 0 0 0 0 0 0 0 0 0 0.25 0"/>
<feBlend mode="normal" in2="BackgroundImageFix" result="effect1_dropShadow_42_294"/>
<feBlend mode="normal" in="SourceGraphic" in2="effect1_dropShadow_42_294" result="shape"/>
</filter>
<filter id="filter2_d_42_294" x="357" y="270.5" width="149.5" height="281.5" filterUnits="userSpaceOnUse" color-interpolation-filters="sRGB">
<feFlood flood-opacity="0" result="BackgroundImageFix"/>
<feColorMatrix in="SourceAlpha" type="matrix" values="0 0 0 0 0 0 0 0 0 0 0 0 0 0 0 0 0 0 127 0" result="hardAlpha"/>
<feOffset dy="4"/>
<feGaussianBlur stdDeviation="2"/>
<feComposite in2="hardAlpha" operator="out"/>
<feColorMatrix type="matrix" values="0 0 0 0 0 0 0 0 0 0 0 0 0 0 0 0 0 0 0.25 0"/>
<feBlend mode="normal" in2="BackgroundImageFix" result="effect1_dropShadow_42_294"/>
<feBlend mode="normal" in="SourceGraphic" in2="effect1_dropShadow_42_294" result="shape"/>
</filter>
</defs>
</svg>
