<svg width="1024" height="1024" viewBox="0 0 1024 1024" fill="none" xmlns="http://www.w3.org/2000/svg">
<path d="M0 0H1024V1024H0V0Z" fill="#FAFAFA"/>
<path d="M558.663 208C439.711 208 415.087 269.426 415.087 304.999V372.087H551.826V385.761H347.999C302.865 385.761 251 421.334 251 522.5C251 623.666 302.865 659.239 347.999 659.239H428.761V577.196C428.761 547.124 453.385 522.5 483.457 522.5H647.543C670.778 522.5 688.565 504.713 688.565 481.478V304.999C688.565 257.141 643.431 208 558.663 208ZM497.13 276.37C512.193 276.37 524.478 288.655 524.478 303.717C524.478 318.78 512.193 331.065 497.13 331.065C482.068 331.065 469.783 318.78 469.783 303.717C469.783 288.655 482.068 276.37 497.13 276.37ZM702.239 385.761V481.478C702.239 511.55 677.615 536.174 647.543 536.174H483.457C460.222 536.174 442.435 553.961 442.435 577.196V740.001C442.435 787.859 487.569 837 572.337 837C691.289 837 715.913 775.574 715.913 740.001V672.913H579.174V659.239H783.001C828.135 659.239 880 623.666 880 522.5C880 421.334 828.135 385.761 783.001 385.761H702.239ZM633.87 713.935C648.932 713.935 661.217 726.22 661.217 741.283C661.217 756.345 648.932 768.63 633.87 768.63C618.807 768.63 606.522 756.345 606.522 741.283C606.522 726.22 618.807 713.935 633.87 713.935Z" fill="#45AFBE"/>
</svg>
