<svg width="1024" height="1024" viewBox="0 0 1024 1024" fill="none" xmlns="http://www.w3.org/2000/svg">
<path d="M0 0H1024V1024H0V0Z" fill="white"/>
<path d="M505.337 156C380.711 156 354.913 220.355 354.913 257.626V327.913H498.174V342.239H284.626C237.338 342.239 183 379.509 183 485.5C183 591.491 237.338 628.761 284.626 628.761H369.239V542.804C369.239 511.298 395.037 485.5 426.543 485.5H598.457C622.8 485.5 641.435 466.865 641.435 442.522V257.626C641.435 207.484 594.148 156 505.337 156ZM440.87 227.63C456.651 227.63 469.522 240.502 469.522 256.283C469.522 272.064 456.651 284.935 440.87 284.935C425.088 284.935 412.217 272.064 412.217 256.283C412.217 240.502 425.088 227.63 440.87 227.63ZM655.761 342.239V442.522C655.761 474.028 629.963 499.826 598.457 499.826H426.543C402.2 499.826 383.565 518.461 383.565 542.804V713.374C383.565 763.516 430.852 815 519.663 815C644.289 815 670.087 750.645 670.087 713.374V643.087H526.826V628.761H740.374C787.662 628.761 842 591.491 842 485.5C842 379.509 787.662 342.239 740.374 342.239H655.761ZM584.13 686.065C599.912 686.065 612.783 698.936 612.783 714.717C612.783 730.498 599.912 743.37 584.13 743.37C568.349 743.37 555.478 730.498 555.478 714.717C555.478 698.936 568.349 686.065 584.13 686.065Z" fill="#45AFBE"/>
</svg>
