<svg width="1024" height="1024" viewBox="0 0 1024 1024" fill="none" xmlns="http://www.w3.org/2000/svg">
<path d="M0 0H1024V1024H0V0Z" fill="#FAFAFA"/>
<path d="M514.185 164C386.911 164 360.565 229.723 360.565 267.785V339.565H506.87V354.196H288.785C240.493 354.196 185 392.258 185 500.5C185 608.742 240.493 646.804 288.785 646.804H375.196V559.022C375.196 526.846 401.542 500.5 433.717 500.5H609.283C634.143 500.5 653.174 481.469 653.174 456.609V267.785C653.174 216.578 604.882 164 514.185 164ZM448.348 237.152C464.464 237.152 477.609 250.297 477.609 266.413C477.609 282.529 464.464 295.674 448.348 295.674C432.231 295.674 419.087 282.529 419.087 266.413C419.087 250.297 432.231 237.152 448.348 237.152ZM667.804 354.196V456.609C667.804 488.784 641.458 515.13 609.283 515.13H433.717C408.857 515.13 389.826 534.161 389.826 559.022V733.215C389.826 784.422 438.118 837 528.815 837C656.089 837 682.435 771.277 682.435 733.215V661.435H536.13V646.804H754.215C802.507 646.804 858 608.742 858 500.5C858 392.258 802.507 354.196 754.215 354.196H667.804ZM594.652 705.326C610.769 705.326 623.913 718.471 623.913 734.587C623.913 750.703 610.769 763.848 594.652 763.848C578.536 763.848 565.391 750.703 565.391 734.587C565.391 718.471 578.536 705.326 594.652 705.326Z" fill="#45AFBE"/>
</svg>
