<svg width="1024" height="1024" viewBox="0 0 1024 1024" fill="none" xmlns="http://www.w3.org/2000/svg">
<rect width="1024" height="1024" fill="#FAFAFA"/>
<path d="M601.061 194.386C526.093 206.469 466.64 265.647 454.145 340.478C450.987 359.426 451.948 393.615 456.068 410.366C457.715 416.682 458.951 422.037 458.951 422.449C458.951 422.724 456.891 422.998 454.283 422.998C444.671 422.998 418.034 428.49 404.166 433.296C373.547 444.006 350.48 458.56 327.001 481.902C297.755 511.285 280.043 544.101 271.255 585.018C267.686 601.632 267.686 648.041 271.255 664.517C274.688 680.307 280.043 697.058 282.652 699.667C285.81 702.825 290.89 702.139 293.911 698.294L296.657 694.862H322.882C347.597 694.862 349.107 694.999 350.48 697.608C352.265 701.04 357.62 702.413 361.327 700.354C365.446 698.157 365.035 691.841 360.229 683.328C350.206 665.89 344.027 638.155 345.537 617.147C347.734 584.881 360.503 558.106 385.218 533.803C394.006 525.153 395.928 522.544 395.242 520.073C394.28 515.954 402.931 509.638 405.951 512.109C409.796 515.267 415.563 513.345 418.034 508.127C419.544 505.244 422.153 502.635 424.762 501.537C428.469 500.026 429.43 500.026 431.627 502.086C434.099 504.283 435.197 504.283 450.987 502.086C462.109 500.438 470.896 500.026 477.35 500.575C532.409 505.656 575.66 541.767 590.214 594.629C592.136 601.357 592.686 608.772 592.686 624.15C592.823 648.59 590.901 657.103 581.289 677.698C564.813 712.437 534.88 736.602 497.122 745.664C486.137 748.273 480.645 748.41 330.571 748.41C245.305 748.41 174.044 748.822 172.259 749.372C167.728 750.47 165.805 756.099 168.552 760.219L170.611 763.514H209.056H247.364L263.292 775.871L279.219 788.091L269.196 795.506C263.704 799.625 256.838 804.98 253.818 807.314L248.463 811.571H209.743C176.927 811.571 170.748 811.845 169.238 813.63C167.041 816.239 167.041 822.006 169.238 824.615C170.748 826.399 210.292 826.674 512.637 826.674H854.388L856.448 823.379C857.958 821.045 858.233 819.26 857.272 816.925C856.585 815.14 831.733 788.229 801.938 757.335C745.918 698.981 743.858 697.196 738.503 702.413C736.718 704.336 736.306 708.18 736.306 726.442V748.136L725.185 748.685C715.711 749.097 713.651 749.509 711.592 752.255C708.159 756.374 698.96 756.511 696.213 752.392C693.742 748.548 687.151 748.548 683.993 752.392C680.561 756.511 671.499 756.374 668.752 752.255C666.693 749.234 665.594 749.097 648.019 748.685L629.346 748.136L634.564 741.133C645.548 726.442 657.768 701.315 663.398 681.818C669.164 661.771 670.949 648.315 670.949 624.836C670.949 591.334 665.32 565.932 651.04 536C635.662 503.733 605.318 470.506 573.463 451.42C565.225 446.477 551.769 433.983 546.689 426.294C531.722 404.325 526.23 374.255 532.272 348.167C537.077 327.572 551.082 305.191 567.422 291.872C609.574 257.409 675.068 265.51 708.159 309.173C718.869 323.315 728.068 346.108 728.068 358.328V362.584H717.908C706.923 362.584 703.353 364.369 703.353 369.587C703.353 371.097 716.809 392.379 733.148 416.957C763.218 461.718 765.827 464.876 771.182 461.856C772.418 461.169 786.697 440.985 802.899 416.82C833.381 371.646 835.715 367.115 829.811 363.957C828.301 363.271 822.396 362.584 816.767 362.584H806.332V356.543C806.332 332.652 793.7 296.129 776.399 269.904C768.848 258.507 755.666 244.502 752.508 244.502C746.192 244.502 743.721 254.525 748.938 259.056C754.431 263.999 768.161 283.497 773.516 294.344C784.638 316.45 789.169 331.828 791.64 357.229C793.288 373.157 793.562 374.255 796.72 375.903C798.643 376.864 802.487 377.688 805.371 377.688C808.117 377.688 810.451 378.1 810.451 378.512C810.451 380.297 768.71 440.848 767.612 440.573C767.063 440.299 757.177 426.294 745.918 409.268L725.322 378.374L732.187 377.55C742.073 376.177 743.172 374.804 743.172 364.095C743.172 338.007 728.617 306.152 707.747 286.929C692.781 273.062 678.501 265.098 658.317 259.331C642.802 254.8 613.831 254.937 598.452 259.331C568.108 268.119 543.119 288.852 528.29 317.274C518.541 336.359 515.932 347.343 515.932 370.822C515.932 394.164 517.717 402.403 526.642 420.527C529.937 427.255 532.409 432.61 532.272 432.61C531.997 432.61 525.544 431.099 517.855 429.177C510.166 427.392 497.396 425.058 489.57 424.234C472.956 422.312 474.192 423.822 469.523 402.403C465.816 385.377 465.679 354.758 469.111 338.556C482.705 275.808 527.878 227.888 588.978 212.098C605.592 207.705 635.113 206.194 652.551 208.666C667.517 210.863 684.68 215.943 697.724 221.984C703.628 224.73 709.395 226.515 710.905 226.103C714.612 225.142 717.084 220.748 716.123 217.179C714.75 211.686 688.25 200.702 664.221 195.759C648.981 192.601 616.714 191.914 601.061 194.386ZM493.964 455.265C534.606 461.856 573.051 484.511 599.276 517.464C623.167 547.534 635.113 582.409 635.113 622.09C635.113 668.774 618.362 708.729 584.722 742.369C550.67 776.421 508.655 793.996 456.342 796.055L435.197 796.879L438.355 792.623C440.964 789.053 441.376 787.68 440.14 785.071L438.63 781.775L457.303 780.952C523.759 778.068 578.406 743.605 605.18 687.722C638.408 618.246 616.302 537.373 552.455 494.397C539.549 485.747 519.914 476.822 504.673 472.84C486.549 468.172 455.793 466.936 437.943 470.231C414.602 474.625 393.731 484.099 373.547 499.202C327.55 533.803 305.032 589.823 314.094 647.629L316.703 663.693L313.545 666.165C306.543 671.794 302.286 667.675 299.54 652.846C297.069 638.841 297.069 603.829 299.54 591.197C313.683 519.523 369.978 465.563 442.474 454.166C451.262 452.793 482.842 453.343 493.964 455.265ZM339.496 775.322C347.734 781.775 354.599 787.542 354.599 787.954C354.462 788.503 347.871 793.996 339.908 800.174L325.353 811.571H298.579H271.942L283.476 802.371C289.654 797.291 295.284 792.485 295.833 791.799C298.716 787.542 296.657 784.11 286.359 775.734C280.455 771.066 274.688 766.397 273.59 765.299C271.942 763.789 275.924 763.514 298.03 763.514H324.392L339.496 775.322ZM406.638 775.459C415.013 781.913 421.879 787.68 421.741 788.091C421.741 788.503 415.151 793.996 407.05 800.174L392.358 811.571L370.389 811.433H348.421L353.226 807.726C367.506 796.467 373.822 790.563 373.822 788.503C373.822 784.933 371.625 782.599 358.856 772.576L347.322 763.514H369.291H391.397L406.638 775.459ZM764.042 782.325C766.788 784.796 767.337 790.975 764.866 793.446C763.63 794.682 748.801 795.094 706.237 795.094C655.159 795.094 649.118 794.819 646.784 792.76C643.488 789.876 643.626 786.169 647.058 782.737C649.667 780.128 651.589 779.99 705.687 779.99C755.666 779.99 761.708 780.265 764.042 782.325Z" fill="#45AFBE"/>
<path d="M514.56 563.324C510.028 564.559 503.987 569.914 479.272 594.354L449.34 624.012L437.943 612.891C425.449 600.67 419.133 597.787 408.835 599.435C401.283 600.533 392.496 606.025 388.926 611.792C385.218 617.834 383.845 629.504 386.18 636.644C388.376 643.51 430.804 687.035 439.042 690.88C445.633 693.9 453.322 694.175 459.363 691.566C464.993 689.095 547.65 606.163 549.572 601.082C550.259 598.886 550.945 593.805 550.945 589.686C550.945 576.642 543.393 566.619 531.036 563.186C524.583 561.401 521.974 561.401 514.56 563.324ZM530.212 578.839C534.881 581.173 537.901 587.764 536.666 592.844C535.979 595.453 521.837 610.556 494.925 637.468C457.166 675.364 453.871 678.385 449.34 678.385C445.083 678.385 442.612 676.325 422.291 656.004C400.322 634.036 399.91 633.624 399.91 627.72C399.91 619.893 405.54 613.852 413.091 613.852C417.622 613.852 419.545 615.087 432.177 627.582C442.2 637.468 447.006 641.313 449.477 641.313C451.949 641.313 459.912 634.173 482.293 611.655C498.495 595.316 513.736 580.761 515.933 579.388C520.876 576.23 524.995 576.093 530.212 578.839Z" fill="#45AFBE"/>
<path d="M665.595 329.239V313.764C665.595 308.564 648.992 299.081 628.522 299.081C608.047 299.081 591.45 308.564 591.45 313.764V329.239C591.45 343.35 617.116 354.995 617.116 364.987C617.116 374.965 591.45 386.611 591.45 400.721V416.209C591.45 421.403 608.047 430.893 628.522 430.893C648.992 430.893 665.595 421.403 665.595 416.203V400.715C665.595 386.604 639.929 374.958 639.929 364.98C639.929 354.995 665.595 343.35 665.595 329.239ZM601.652 314.424C606.259 311.53 614.892 307.292 628.887 307.292C642.875 307.292 655.406 314.424 655.406 314.424C656.347 314.99 660.027 316.948 657.505 318.437C651.957 321.713 641.101 325.16 628.522 325.16C615.944 325.16 605.458 321.363 599.897 318.081C597.375 316.598 601.652 314.424 601.652 314.424ZM631.839 364.987C631.839 372.849 638.433 377.911 645.417 384.666C650.521 389.596 657.505 396.352 657.505 400.715V409.467C651.084 406.284 631.872 403.173 631.872 392.964C631.872 387.804 625.166 387.804 625.166 392.964C625.166 403.173 605.955 406.284 599.533 409.467V400.715C599.533 396.352 606.524 389.59 611.621 384.666C618.606 377.911 625.199 372.849 625.199 364.987C625.199 357.124 618.606 352.063 611.621 345.307C606.517 340.364 599.533 333.609 599.533 329.239L599.229 322.662C606.021 326.306 616.785 329.767 628.522 329.767C640.253 329.767 651.07 326.306 657.869 322.662L657.505 329.239C657.505 333.602 650.514 340.364 645.417 345.307C638.439 352.063 631.839 357.124 631.839 364.987Z" fill="#45AFBE"/>
</svg>
