<svg width="901" height="901" viewBox="0 0 901 901" fill="none" xmlns="http://www.w3.org/2000/svg">
<path d="M564.005 46.6338C467.922 62.1197 391.724 137.966 375.71 233.873C371.662 258.158 372.894 301.976 378.174 323.445C380.285 331.54 381.869 338.403 381.869 338.931C381.869 339.283 379.229 339.635 375.886 339.635C363.568 339.635 329.428 346.674 311.654 352.833C272.412 366.559 242.848 385.213 212.756 415.129C175.273 452.788 152.572 494.846 141.309 547.287C136.734 568.58 136.734 628.06 141.309 649.178C145.709 669.415 152.572 690.884 155.915 694.228C159.963 698.275 166.474 697.395 170.345 692.468L173.865 688.068H207.476C239.152 688.068 241.088 688.244 242.848 691.588C245.135 695.987 251.998 697.747 256.75 695.107C262.029 692.292 261.501 684.197 255.342 673.286C242.496 650.937 234.577 615.39 236.512 588.466C239.328 547.111 255.694 512.796 287.37 481.648C298.632 470.561 301.096 467.218 300.216 464.05C298.984 458.771 310.071 450.676 313.942 453.844C318.87 457.891 326.261 455.427 329.428 448.74C331.364 445.045 334.707 441.701 338.051 440.293C342.802 438.358 344.034 438.358 346.85 440.997C350.017 443.813 351.425 443.813 371.662 440.997C385.917 438.886 397.179 438.358 405.45 439.062C476.017 445.573 531.449 491.854 550.103 559.605C552.566 568.228 553.27 577.731 553.27 597.44C553.446 628.764 550.983 639.675 538.664 666.071C517.547 710.593 479.184 741.565 430.791 753.18C416.712 756.523 409.673 756.699 217.331 756.699C108.05 756.699 16.7178 757.227 14.4301 757.931C8.62284 759.339 6.15917 766.554 9.6787 771.833L12.3184 776.057H61.5918H110.689L131.103 791.895L151.516 807.556L138.67 817.059C131.63 822.338 122.832 829.202 118.96 832.193L112.097 837.648H62.4717C20.4133 837.648 12.4943 838 10.5586 840.288C7.74296 843.632 7.74296 851.023 10.5586 854.366C12.4943 856.654 63.1756 857.006 450.676 857.006H888.682L891.321 852.782C893.257 849.791 893.609 847.503 892.377 844.512C891.497 842.224 859.645 807.732 821.459 768.138C749.66 693.348 747.02 691.06 740.157 697.747C737.87 700.211 737.342 705.138 737.342 728.543V756.347L723.088 757.051C710.945 757.579 708.306 758.107 705.666 761.627C701.267 766.906 689.476 767.082 685.957 761.803C682.789 756.875 674.342 756.875 670.295 761.803C665.895 767.082 654.281 766.906 650.761 761.627C648.122 757.755 646.714 757.579 624.189 757.051L600.256 756.347L606.943 747.372C621.021 728.543 636.683 696.339 643.898 671.351C651.289 645.658 653.577 628.412 653.577 598.32C653.577 555.382 646.362 522.826 628.06 484.463C608.351 443.109 569.46 400.523 528.634 376.062C518.075 369.727 500.829 353.713 494.318 343.858C475.137 315.702 468.098 277.163 475.841 243.728C482 217.331 499.949 188.647 520.891 171.577C574.915 127.407 658.856 137.79 701.267 193.75C714.993 211.876 726.783 241.088 726.783 256.75V262.205H713.761C699.683 262.205 695.107 264.493 695.107 271.18C695.107 273.116 712.353 300.392 733.294 331.892C771.833 389.26 775.177 393.308 782.04 389.436C783.624 388.556 801.925 362.688 822.69 331.716C861.757 273.82 864.749 268.012 857.182 263.965C855.246 263.085 847.679 262.205 840.464 262.205H827.09V254.462C827.09 223.842 810.9 177.032 788.727 143.421C779.048 128.815 762.154 110.865 758.107 110.865C750.012 110.865 746.845 123.712 753.532 129.519C760.571 135.854 778.168 160.843 785.031 174.745C799.286 203.077 805.093 222.786 808.26 255.342C810.372 275.755 810.724 277.163 814.771 279.275C817.235 280.507 822.162 281.563 825.858 281.563C829.378 281.563 832.369 282.09 832.369 282.618C832.369 284.906 778.872 362.512 777.464 362.16C776.761 361.808 764.09 343.858 749.66 322.037L723.264 282.442L732.062 281.387C744.733 279.627 746.141 277.867 746.141 264.141C746.141 230.705 727.487 189.879 700.739 165.242C681.557 147.468 663.256 137.262 637.387 129.871C617.502 124.063 580.371 124.239 560.661 129.871C521.77 141.133 489.743 167.706 470.737 204.133C458.243 228.594 454.899 242.672 454.899 272.764C454.899 302.68 457.187 313.238 468.626 336.467C472.849 345.09 476.017 351.953 475.841 351.953C475.489 351.953 467.218 350.017 457.363 347.554C447.508 345.266 431.143 342.274 421.112 341.219C399.819 338.755 401.403 340.691 395.419 313.238C390.668 291.417 390.492 252.174 394.891 231.409C412.313 150.988 470.209 89.5721 548.519 69.3348C569.812 63.7035 607.647 61.7678 629.996 64.9354C649.178 67.751 671.175 74.2621 687.892 82.0051C695.459 85.5246 702.85 87.8123 704.786 87.2844C709.537 86.0526 712.705 80.4213 711.473 75.8459C709.713 68.8068 675.75 54.7287 644.954 48.3936C625.421 44.3461 584.066 43.4662 564.005 46.6338ZM426.743 380.989C478.832 389.436 528.106 418.472 561.717 460.707C592.337 499.246 607.647 543.944 607.647 594.801C607.647 654.633 586.178 705.842 543.064 748.956C499.421 792.598 445.573 815.123 378.526 817.763L351.425 818.819L355.473 813.364C358.816 808.788 359.344 807.029 357.76 803.685L355.825 799.462L379.757 798.406C464.93 794.71 534.969 750.54 569.284 678.918C611.87 589.873 583.538 486.223 501.709 431.143C485.167 420.056 460.003 408.618 440.469 403.514C417.24 397.531 377.822 395.947 354.945 400.171C325.029 405.802 298.28 417.944 272.412 437.302C213.46 481.648 184.599 553.446 196.214 627.532L199.557 648.122L195.51 651.289C186.535 658.504 181.08 653.225 177.56 634.22C174.393 616.27 174.393 571.396 177.56 555.206C195.686 463.346 267.836 394.188 360.752 379.581C372.014 377.822 412.489 378.526 426.743 380.989ZM228.77 791.191C239.328 799.462 248.127 806.853 248.127 807.38C247.951 808.084 239.504 815.123 229.297 823.042L210.644 837.648H176.329H142.189L156.971 825.858C164.89 819.347 172.105 813.188 172.809 812.308C176.504 806.853 173.865 802.453 160.667 791.719C153.1 785.735 145.709 779.752 144.301 778.344C142.189 776.409 147.292 776.057 175.625 776.057H209.412L228.77 791.191ZM314.822 791.367C325.557 799.638 334.355 807.029 334.179 807.556C334.179 808.084 325.733 815.123 315.35 823.042L296.521 837.648L268.364 837.472H240.208L246.367 832.721C264.669 818.291 272.764 810.724 272.764 808.084C272.764 803.509 269.948 800.517 253.582 787.671L238.8 776.057H266.956H295.289L314.822 791.367ZM772.889 800.165C776.409 803.333 777.112 811.252 773.945 814.42C772.361 816.003 753.356 816.531 698.803 816.531C633.34 816.531 625.597 816.179 622.605 813.54C618.382 809.844 618.558 805.093 622.957 800.693C626.301 797.35 628.764 797.174 698.099 797.174C762.154 797.174 769.897 797.526 772.889 800.165Z" fill="#45AFBE"/>
<path d="M453.14 519.483C447.332 521.067 439.589 527.93 407.914 559.254L369.551 597.265L354.945 583.01C338.931 567.348 330.836 563.653 317.638 565.765C307.959 567.173 296.696 574.212 292.121 581.603C287.37 589.346 285.61 604.304 288.601 613.454C291.417 622.253 345.794 678.038 356.352 682.965C364.799 686.837 374.654 687.189 382.397 683.845C389.612 680.677 495.55 574.388 498.014 567.876C498.893 565.061 499.773 558.55 499.773 553.27C499.773 536.553 490.095 523.706 474.257 519.307C465.986 517.019 462.642 517.019 453.14 519.483ZM473.201 539.368C479.184 542.36 483.056 550.807 481.472 557.318C480.592 560.661 462.466 580.019 427.975 614.51C379.581 663.08 375.358 666.951 369.551 666.951C364.095 666.951 360.928 664.312 334.883 638.267C306.727 610.111 306.199 609.583 306.199 602.016C306.199 591.985 313.414 584.242 323.093 584.242C328.9 584.242 331.364 585.826 347.554 601.84C360.4 614.51 366.559 619.438 369.727 619.438C372.894 619.438 383.101 610.287 411.785 581.427C432.55 560.485 452.084 541.832 454.899 540.072C461.234 536.025 466.514 535.849 473.201 539.368Z" fill="#45AFBE"/>
<path d="M646.714 219.469V199.636C646.714 192.971 625.435 180.816 599.2 180.816C572.957 180.816 551.687 192.971 551.687 199.636V219.469C551.687 237.554 584.581 252.479 584.581 265.285C584.581 278.073 551.687 292.999 551.687 311.084V330.934C551.687 337.59 572.957 349.753 599.2 349.753C625.435 349.753 646.714 337.59 646.714 330.925V311.075C646.714 292.99 613.819 278.065 613.819 265.276C613.819 252.479 646.714 237.554 646.714 219.469ZM564.761 200.48C570.667 196.772 581.73 191.341 599.667 191.341C617.595 191.341 633.656 200.48 633.656 200.48C634.861 201.207 639.578 203.715 636.346 205.624C629.236 209.822 615.321 214.24 599.2 214.24C583.079 214.24 569.64 209.375 562.513 205.168C559.28 203.268 564.761 200.48 564.761 200.48ZM603.451 265.285C603.451 275.362 611.902 281.849 620.853 290.507C627.394 296.825 636.346 305.483 636.346 311.075V322.293C628.116 318.213 603.493 314.226 603.493 301.142C603.493 294.528 594.899 294.528 594.899 301.142C594.899 314.226 570.276 318.213 562.046 322.293V311.075C562.046 305.483 571.006 296.817 577.539 290.507C586.49 281.849 594.941 275.362 594.941 265.285C594.941 255.208 586.49 248.72 577.539 240.062C570.997 233.727 562.046 225.069 562.046 219.469L561.656 211.039C570.361 215.71 584.157 220.145 599.2 220.145C614.235 220.145 628.099 215.71 636.812 211.039L636.346 219.469C636.346 225.061 627.386 233.727 620.853 240.062C611.91 248.72 603.451 255.208 603.451 265.285Z" fill="#45AFBE"/>
</svg>
