<svg width="1024" height="1024" viewBox="0 0 1024 1024" fill="none" xmlns="http://www.w3.org/2000/svg">
<rect width="1024" height="1024" fill="#FAFAFA"/>
<circle cx="503" cy="519.481" r="208" fill="#B5E0E6"/>
<path d="M803 530.481C803 693.958 670.476 826.481 507 826.481C343.524 826.481 211 693.958 211 530.481C211 367.005 343.524 234.481 507 234.481C670.476 234.481 803 367.005 803 530.481ZM225.895 530.481C225.895 685.731 351.75 811.587 507 811.587C662.25 811.587 788.105 685.731 788.105 530.481C788.105 375.231 662.25 249.376 507 249.376C351.75 249.376 225.895 375.231 225.895 530.481Z" fill="#B5E0E6"/>
<path d="M181.784 215.59C181.784 229.338 170.64 240.483 156.892 240.483C143.145 240.483 132 229.338 132 215.59C132 201.843 143.145 190.698 156.892 190.698C170.64 190.698 181.784 201.843 181.784 215.59ZM141.291 215.59C141.291 224.207 148.276 231.192 156.892 231.192C165.509 231.192 172.494 224.207 172.494 215.59C172.494 206.974 165.509 199.989 156.892 199.989C148.276 199.989 141.291 206.974 141.291 215.59Z" fill="#45AFBE"/>
<path d="M359.586 214.168C359.586 227.916 348.441 239.06 334.694 239.06C320.946 239.06 309.801 227.916 309.801 214.168C309.801 200.421 320.946 189.276 334.694 189.276C348.441 189.276 359.586 200.421 359.586 214.168ZM319.092 214.168C319.092 222.784 326.077 229.769 334.694 229.769C343.31 229.769 350.295 222.784 350.295 214.168C350.295 205.552 343.31 198.567 334.694 198.567C326.077 198.567 319.092 205.552 319.092 214.168Z" fill="#45AFBE"/>
<rect x="255.752" y="109" width="59.1982" height="60.0129" rx="10" transform="rotate(44.9774 255.752 109)" fill="#45AFBE"/>
<rect x="255.453" y="122.422" width="40.6362" height="41.8401" rx="6" transform="rotate(44.9774 255.453 122.422)" fill="#FAFAFA"/>
<rect x="438.988" y="165.095" width="59.1982" height="60.0129" rx="10" transform="rotate(44.9774 438.988 165.095)" fill="#45AFBE"/>
<rect x="438.689" y="178.517" width="40.6362" height="41.8401" rx="6" transform="rotate(44.9774 438.689 178.517)" fill="#FAFAFA"/>
<rect x="250.061" y="203.5" width="9.9569" height="99.569" rx="4.97845" fill="#45AFBE"/>
<rect x="331.138" y="249.017" width="8.53448" height="54.0517" rx="4.26724" fill="#45AFBE"/>
<path d="M292.022 524.966L428.574 353.565H160.449L292.022 524.966Z" fill="#45AFBE"/>
<rect x="146.224" y="328.672" width="294.44" height="27.0259" fill="#45AFBE"/>
<path d="M264.285 556.259V482.293L324.026 475.181V518.565C305.975 542.8 292.902 551.189 264.285 556.259Z" fill="#45AFBE"/>
<path d="M151.913 253.284C151.913 250.928 153.824 249.017 156.18 249.017V249.017C158.537 249.017 160.448 250.928 160.448 253.284V267.509C160.448 269.865 158.537 271.776 156.18 271.776V271.776C153.824 271.776 151.913 269.865 151.913 267.509V253.284Z" fill="#45AFBE"/>
<path d="M198.854 287.422C198.854 285.066 200.764 283.155 203.121 283.155V283.155C205.477 283.155 207.388 285.066 207.388 287.422V298.802C207.388 301.158 205.477 303.069 203.121 303.069V303.069C200.764 303.069 198.854 301.158 198.854 298.802V287.422Z" fill="#45AFBE"/>
<rect x="208.327" y="283.98" width="8.15328" height="57.24" rx="4.07664" transform="rotate(110.761 208.327 283.98)" fill="#45AFBE"/>
<path d="M443.025 253.284C443.025 250.928 441.115 249.017 438.758 249.017V249.017C436.401 249.017 434.491 250.928 434.491 253.284V267.509C434.491 269.865 436.401 271.776 438.758 271.776V271.776C441.115 271.776 443.025 269.865 443.025 267.509V253.284Z" fill="#45AFBE"/>
<path d="M396.085 287.422C396.085 285.066 394.175 283.155 391.818 283.155V283.155C389.461 283.155 387.551 285.066 387.551 287.422V298.802C387.551 301.158 389.461 303.069 391.818 303.069V303.069C394.175 303.069 396.085 301.158 396.085 298.802V287.422Z" fill="#45AFBE"/>
<rect width="8.15328" height="57.24" rx="4.07664" transform="matrix(0.354466 0.935069 0.935069 -0.354466 386.612 283.98)" fill="#45AFBE"/>
<rect x="493.364" y="319.227" width="286.364" height="111.364" rx="55.6819" fill="#45AFBE"/>
<rect x="510.599" y="332.485" width="247.917" height="83.5228" rx="41.7614" fill="#FAFAFA"/>
<circle cx="809.557" cy="368.943" r="97.4432" fill="#45AFBE"/>
<circle cx="810.883" cy="368.943" r="74.9053" fill="#FAFAFA"/>
<rect x="850.022" y="407.632" width="7.0544" height="48.6316" rx="3.5272" transform="rotate(138.019 850.022 407.632)" fill="#45AFBE"/>
<circle cx="801.59" cy="358.325" r="24.514" fill="#45AFBE"/>
<circle cx="801.59" cy="358.325" r="17.636" fill="#FAFAFA"/>
<rect x="618.948" y="730.544" width="6.64753" height="41.2147" rx="3.32377" transform="rotate(-90 618.948 730.544)" fill="#45AFBE"/>
<rect x="654.845" y="701.295" width="6.64753" height="45.2032" rx="3.32377" transform="rotate(-90 654.845 701.295)" fill="#45AFBE"/>
<rect x="653.515" y="694.647" width="6.64753" height="35.8967" rx="3.32377" fill="#45AFBE"/>
<circle cx="721.32" cy="698.636" r="26.5901" fill="#45AFBE"/>
<rect x="654.845" y="701.295" width="6.64753" height="45.2032" rx="3.32377" transform="rotate(-90 654.845 701.295)" fill="#45AFBE"/>
<circle cx="721.32" cy="698.636" r="26.5901" fill="#45AFBE"/>
<circle cx="721.32" cy="698.636" r="19.9426" fill="#FAFAFA"/>
<rect x="595.017" y="641.467" width="6.64753" height="34.5672" rx="3.32377" transform="rotate(-90 595.017 641.467)" fill="#45AFBE"/>
<circle cx="649.527" cy="637.478" r="25.2606" fill="#45AFBE"/>
<circle cx="649.526" cy="637.478" r="18.6131" fill="#FAFAFA"/>
<rect x="597.675" y="791.701" width="6.64753" height="65.1458" rx="3.32377" transform="rotate(-90 597.675 791.701)" fill="#45AFBE"/>
<circle cx="682.764" cy="787.713" r="25.2606" fill="#45AFBE"/>
<circle cx="682.763" cy="787.712" r="18.6131" fill="#FAFAFA"/>
<path d="M440.582 677.092C431.611 681.634 424.977 689.377 421.845 698.975C418.743 708.557 419.497 718.757 424.051 727.752C428.604 736.746 436.379 743.392 445.939 746.564C455.513 749.69 465.696 748.956 474.667 744.414C483.638 739.872 490.257 732.099 493.404 722.532C496.506 712.949 495.752 702.749 491.198 693.755C486.645 684.76 478.87 678.115 469.31 674.943C464.614 673.377 459.656 672.761 454.725 673.13C449.793 673.499 444.986 674.846 440.582 677.092ZM600.153 685.303L572.017 678.422C570.054 672.235 567.579 666.157 564.64 660.351C561.7 654.545 558.25 648.922 554.442 643.708L565.55 616.958C566.388 614.935 566.591 612.703 566.132 610.559C565.673 608.416 564.573 606.461 562.98 604.956L562.314 604.311C549.248 591.905 534.051 581.967 517.459 574.98L516.599 574.622C514.584 573.773 512.361 573.556 510.223 573.997C508.084 574.439 506.131 575.519 504.621 577.096L484.659 598.125C471.912 595.282 458.936 594.52 446.019 595.958L428.378 572.804C427.048 571.06 425.221 569.761 423.139 569.08C421.058 568.399 418.82 568.368 416.723 568.992L415.836 569.252C398.803 574.323 382.361 582.648 368.191 593.374L367.457 593.935C365.713 595.256 364.413 597.078 363.73 599.159C363.046 601.24 363.012 603.481 363.63 605.585L371.881 633.645C363.195 643.185 356.12 654.081 350.935 665.905L321.96 669.577C319.793 669.856 317.763 670.789 316.14 672.252C314.518 673.714 313.379 675.638 312.875 677.767L312.655 678.672C308.49 696.185 307.504 714.311 309.744 732.186L309.87 733.105C310.424 737.549 313.666 741.198 318.022 742.281L346.489 749.221C348.422 755.347 350.896 761.35 353.79 767.066C356.714 772.842 360.089 778.389 363.851 783.514L352.654 810.536C351.816 812.558 351.613 814.79 352.072 816.934C352.532 819.077 353.631 821.032 355.225 822.537L355.891 823.182C368.982 835.564 384.075 845.496 400.746 852.513L401.606 852.871C403.621 853.72 405.844 853.937 407.982 853.496C410.12 853.054 412.073 851.974 413.584 850.397L433.695 829.217C446.367 832.06 459.283 832.853 472.095 831.43L489.827 854.689C491.156 856.433 492.983 857.732 495.065 858.413C497.147 859.094 499.385 859.125 501.482 858.501L502.368 858.241C519.563 853.107 535.698 844.938 550.014 834.119L550.748 833.558C552.491 832.237 553.791 830.415 554.475 828.334C555.158 826.253 555.193 824.012 554.574 821.908L546.354 793.984C555.144 784.394 562.226 773.514 567.48 761.557L596.245 757.916C598.412 757.637 600.442 756.704 602.064 755.241C603.687 753.779 604.826 751.855 605.329 749.726L605.549 748.821C609.731 731.171 610.69 713.187 608.46 695.307L608.334 694.388C607.736 690.005 604.509 686.385 600.153 685.303ZM484.399 763.636C455.266 778.387 419.667 766.668 404.878 737.459C390.09 708.249 401.716 672.62 430.85 657.87C459.983 643.12 495.582 654.839 510.371 684.048C525.159 713.257 513.533 748.886 484.399 763.636Z" fill="#45AFBE"/>
<g filter="url(#filter0_d_47_4)">
<path d="M617.102 509.217L603.876 392.021C603.497 388.655 607.211 386.37 610.044 388.227L709.852 453.657C712.762 455.564 712.016 460.021 708.644 460.878L678.125 468.637C676.819 468.969 676.209 470.472 676.913 471.621L707.66 521.795C708.807 523.667 708.231 526.113 706.37 527.277L684.056 541.226C682.176 542.402 679.698 541.824 678.533 539.937L647.245 489.307C646.542 488.17 644.941 488.029 644.051 489.027L624.061 511.432C621.76 514.012 617.49 512.653 617.102 509.217Z" fill="#45AFBE"/>
</g>
<defs>
<filter id="filter0_d_47_4" x="600.85" y="382.563" width="115.811" height="162.273" filterUnits="userSpaceOnUse" color-interpolation-filters="sRGB">
<feFlood flood-opacity="0" result="BackgroundImageFix"/>
<feColorMatrix in="SourceAlpha" type="matrix" values="0 0 0 0 0 0 0 0 0 0 0 0 0 0 0 0 0 0 127 0" result="hardAlpha"/>
<feOffset dx="1" dy="-1"/>
<feGaussianBlur stdDeviation="2"/>
<feComposite in2="hardAlpha" operator="out"/>
<feColorMatrix type="matrix" values="0 0 0 0 0 0 0 0 0 0 0 0 0 0 0 0 0 0 0.25 0"/>
<feBlend mode="normal" in2="BackgroundImageFix" result="effect1_dropShadow_47_4"/>
<feBlend mode="normal" in="SourceGraphic" in2="effect1_dropShadow_47_4" result="shape"/>
</filter>
</defs>
</svg>
