<svg width="966" height="1001" viewBox="0 0 966 1001" fill="none" xmlns="http://www.w3.org/2000/svg">
<circle cx="463" cy="511" r="259" fill="#B5E0E6"/>
<path d="M835 524.5C835 728.017 670.017 893 466.5 893C262.983 893 98 728.017 98 524.5C98 320.983 262.983 156 466.5 156C670.017 156 835 320.983 835 524.5ZM116.543 524.5C116.543 717.776 273.224 874.457 466.5 874.457C659.776 874.457 816.457 717.776 816.457 524.5C816.457 331.224 659.776 174.543 466.5 174.543C273.224 174.543 116.543 331.224 116.543 524.5Z" fill="#B5E0E6"/>
<path d="M62.0057 132.757C62.0057 149.879 48.1253 163.76 31.0029 163.76C13.8805 163.76 0 149.879 0 132.757C0 115.634 13.8805 101.754 31.0029 101.754C48.1253 101.754 62.0057 115.634 62.0057 132.757ZM11.5717 132.757C11.5717 143.488 20.2714 152.188 31.0029 152.188C41.7344 152.188 50.434 143.488 50.434 132.757C50.434 122.025 41.7344 113.326 31.0029 113.326C20.2714 113.326 11.5717 122.025 11.5717 132.757Z" fill="#45AFBE"/>
<path d="M283.454 130.985C283.454 148.108 269.574 161.988 252.452 161.988C235.329 161.988 221.449 148.108 221.449 130.985C221.449 113.863 235.329 99.9822 252.452 99.9822C269.574 99.9822 283.454 113.863 283.454 130.985ZM233.02 130.985C233.02 141.717 241.72 150.416 252.452 150.416C263.183 150.416 271.883 141.717 271.883 130.985C271.883 120.254 263.183 111.554 252.452 111.554C241.72 111.554 233.02 120.254 233.02 130.985Z" fill="#45AFBE"/>
<rect x="154.131" width="73.7303" height="74.745" rx="10" transform="rotate(44.9774 154.131 0)" fill="#45AFBE"/>
<rect x="153.758" y="16.7173" width="50.6117" height="52.1111" rx="6" transform="rotate(44.9774 153.758 16.7173)" fill="white"/>
<rect x="382.349" y="69.8652" width="73.7303" height="74.745" rx="10" transform="rotate(44.9774 382.349 69.8652)" fill="#45AFBE"/>
<rect x="381.976" y="86.5825" width="50.6117" height="52.1111" rx="6" transform="rotate(44.9774 381.976 86.5825)" fill="white"/>
<rect x="147.042" y="117.698" width="12.4011" height="124.011" rx="6" fill="#45AFBE"/>
<rect x="248.023" y="174.389" width="10.6296" height="67.3205" rx="5.31478" fill="#45AFBE"/>
<path d="M199.304 518.078L369.377 304.601H35.4321L199.304 518.078Z" fill="#45AFBE"/>
<rect x="17.7153" y="273.598" width="366.72" height="33.6603" fill="#45AFBE"/>
<path d="M164.758 557.053V464.93L239.165 456.072V510.106C216.682 540.291 200.4 550.739 164.758 557.053Z" fill="#45AFBE"/>
<path d="M24.8018 179.704C24.8018 176.769 27.1813 174.389 30.1165 174.389V174.389C33.0518 174.389 35.4313 176.769 35.4313 179.704V197.42C35.4313 200.355 33.0518 202.735 30.1165 202.735V202.735C27.1813 202.735 24.8018 200.355 24.8018 197.42V179.704Z" fill="#45AFBE"/>
<path d="M83.2646 222.222C83.2646 219.287 85.6442 216.907 88.5794 216.907V216.907C91.5147 216.907 93.8942 219.287 93.8942 222.222V236.395C93.8942 239.33 91.5147 241.71 88.5794 241.71V241.71C85.6442 241.71 83.2646 239.33 83.2646 236.395V222.222Z" fill="#45AFBE"/>
<rect x="95.064" y="217.934" width="10.1548" height="71.2914" rx="5.07739" transform="rotate(110.761 95.064 217.934)" fill="#45AFBE"/>
<path d="M387.377 179.704C387.377 176.769 384.997 174.389 382.062 174.389V174.389C379.127 174.389 376.747 176.769 376.747 179.704V197.42C376.747 200.355 379.127 202.735 382.062 202.735V202.735C384.997 202.735 387.377 200.355 387.377 197.42V179.704Z" fill="#45AFBE"/>
<path d="M328.914 222.222C328.914 219.287 326.535 216.907 323.599 216.907V216.907C320.664 216.907 318.285 219.287 318.285 222.222V236.395C318.285 239.33 320.664 241.71 323.599 241.71V241.71C326.535 241.71 328.914 239.33 328.914 236.395V222.222Z" fill="#45AFBE"/>
<rect width="10.1548" height="71.2914" rx="5.07739" transform="matrix(0.354466 0.935069 0.935069 -0.354466 317.115 217.934)" fill="#45AFBE"/>
<rect x="450.072" y="261.835" width="356.661" height="138.702" rx="69.3508" fill="#45AFBE"/>
<rect x="471.538" y="278.347" width="308.776" height="104.026" rx="52.0131" fill="white"/>
<circle cx="843.885" cy="323.755" r="121.364" fill="#45AFBE"/>
<circle cx="845.537" cy="323.755" r="93.2934" fill="white"/>
<rect x="894.285" y="371.942" width="8.78614" height="60.5699" rx="4.39307" transform="rotate(138.019 894.285 371.942)" fill="#45AFBE"/>
<circle cx="833.963" cy="310.53" r="30.5318" fill="#45AFBE"/>
<circle cx="833.963" cy="310.53" r="21.9653" fill="white"/>
<rect x="606.485" y="774.123" width="8.27939" height="51.3322" rx="4.13969" transform="rotate(-90 606.485 774.123)" fill="#45AFBE"/>
<rect x="651.194" y="737.693" width="8.27939" height="56.2998" rx="4.13969" transform="rotate(-90 651.194 737.693)" fill="#45AFBE"/>
<rect x="649.538" y="729.413" width="8.27939" height="44.7087" rx="4.13969" fill="#45AFBE"/>
<circle cx="733.988" cy="734.381" r="33.1175" fill="#45AFBE"/>
<rect x="651.194" y="737.693" width="8.27939" height="56.2998" rx="4.13969" transform="rotate(-90 651.194 737.693)" fill="#45AFBE"/>
<circle cx="733.988" cy="734.381" r="33.1175" fill="#45AFBE"/>
<circle cx="733.988" cy="734.381" r="24.8382" fill="white"/>
<rect x="576.679" y="663.178" width="8.27939" height="43.0528" rx="4.13969" transform="rotate(-90 576.679 663.178)" fill="#45AFBE"/>
<circle cx="644.571" cy="658.211" r="31.4617" fill="#45AFBE"/>
<circle cx="644.57" cy="658.211" r="23.1823" fill="white"/>
<rect x="579.991" y="850.292" width="8.27939" height="81.138" rx="4.13969" transform="rotate(-90 579.991 850.292)" fill="#45AFBE"/>
<circle cx="685.967" cy="845.325" r="31.4617" fill="#45AFBE"/>
<circle cx="685.966" cy="845.325" r="23.1823" fill="white"/>
<path d="M384.334 707.549C373.161 713.206 364.898 722.85 360.997 734.803C357.134 746.738 358.073 759.442 363.744 770.645C369.416 781.847 379.1 790.124 391.006 794.075C402.93 797.969 415.613 797.055 426.786 791.398C437.96 785.741 446.204 776.06 450.123 764.143C453.987 752.209 453.048 739.505 447.376 728.302C441.704 717.1 432.021 708.823 420.114 704.872C414.266 702.922 408.091 702.154 401.948 702.614C395.806 703.073 389.819 704.751 384.334 707.549ZM583.077 717.775L548.035 709.205C545.589 701.5 542.507 693.929 538.846 686.698C535.185 679.467 530.888 672.464 526.144 665.969L539.98 632.652C541.024 630.133 541.277 627.354 540.705 624.684C540.133 622.014 538.763 619.579 536.778 617.705L535.949 616.901C519.675 601.449 500.748 589.073 480.083 580.371L479.012 579.924C476.502 578.867 473.733 578.596 471.07 579.146C468.407 579.696 465.975 581.042 464.093 583.006L439.232 609.196C423.355 605.656 407.194 604.707 391.105 606.498L369.134 577.659C367.478 575.487 365.202 573.87 362.61 573.022C360.017 572.174 357.229 572.135 354.618 572.912L353.514 573.235C332.299 579.552 311.821 589.92 294.172 603.28L293.258 603.978C291.086 605.624 289.467 607.893 288.616 610.485C287.764 613.076 287.721 615.868 288.492 618.488L298.768 653.436C287.95 665.318 279.139 678.889 272.68 693.616L236.592 698.19C233.893 698.537 231.365 699.698 229.344 701.52C227.323 703.342 225.905 705.738 225.277 708.39L225.003 709.517C219.816 731.328 218.588 753.904 221.378 776.168L221.535 777.312C222.224 782.847 226.263 787.392 231.687 788.741L267.143 797.384C269.551 805.014 272.632 812.491 276.236 819.61C279.878 826.803 284.081 833.713 288.767 840.095L274.821 873.751C273.778 876.27 273.525 879.049 274.097 881.719C274.669 884.389 276.038 886.824 278.023 888.698L278.853 889.502C295.158 904.923 313.956 917.293 334.719 926.032L335.79 926.479C338.299 927.536 341.068 927.807 343.731 927.257C346.394 926.707 348.827 925.361 350.708 923.397L375.756 897.018C391.539 900.559 407.626 901.546 423.583 899.774L445.668 928.744C447.323 930.916 449.599 932.533 452.192 933.381C454.785 934.229 457.572 934.267 460.184 933.491L461.288 933.168C482.703 926.773 502.799 916.599 520.629 903.123L521.543 902.425C523.715 900.779 525.334 898.51 526.186 895.918C527.037 893.327 527.08 890.535 526.31 887.915L516.072 853.136C527.019 841.191 535.84 827.641 542.384 812.749L578.209 808.213C580.909 807.866 583.437 806.705 585.458 804.883C587.478 803.061 588.897 800.665 589.524 798.013L589.798 796.886C595.006 774.903 596.201 752.505 593.423 730.235L593.267 729.091C592.521 723.631 588.502 719.124 583.077 717.775ZM438.908 815.339C402.622 833.71 358.285 819.114 339.866 782.734C321.447 746.355 335.928 701.979 372.213 683.608C408.498 665.237 452.836 679.833 471.254 716.212C489.673 752.592 475.193 796.967 438.908 815.339Z" fill="#45AFBE"/>
<g filter="url(#filter0_d_47_4)">
<path d="M604.432 500.647L587.479 350.42C587.1 347.054 590.814 344.769 593.647 346.626L721.57 430.487C724.48 432.395 723.735 436.852 720.362 437.709L679.544 448.086C678.238 448.418 677.627 449.921 678.332 451.07L717.483 514.959C718.63 516.831 718.055 519.277 716.193 520.441L686.739 538.854C684.859 540.029 682.381 539.451 681.216 537.565L641.383 473.107C640.679 471.969 639.079 471.828 638.189 472.826L611.392 502.861C609.09 505.441 604.82 504.082 604.432 500.647Z" fill="#45AFBE"/>
</g>
<defs>
<filter id="filter0_d_47_4" x="584.453" y="340.962" width="143.926" height="201.501" filterUnits="userSpaceOnUse" color-interpolation-filters="sRGB">
<feFlood flood-opacity="0" result="BackgroundImageFix"/>
<feColorMatrix in="SourceAlpha" type="matrix" values="0 0 0 0 0 0 0 0 0 0 0 0 0 0 0 0 0 0 127 0" result="hardAlpha"/>
<feOffset dx="1" dy="-1"/>
<feGaussianBlur stdDeviation="2"/>
<feComposite in2="hardAlpha" operator="out"/>
<feColorMatrix type="matrix" values="0 0 0 0 0 0 0 0 0 0 0 0 0 0 0 0 0 0 0.25 0"/>
<feBlend mode="normal" in2="BackgroundImageFix" result="effect1_dropShadow_47_4"/>
<feBlend mode="normal" in="SourceGraphic" in2="effect1_dropShadow_47_4" result="shape"/>
</filter>
</defs>
</svg>
