<svg width="824" height="829" viewBox="0 0 824 829" fill="none" xmlns="http://www.w3.org/2000/svg">
<rect x="132" y="139.688" width="572" height="586" rx="93" fill="#B5E0E6"/>
<rect width="419.619" height="423.135" rx="13" fill="#45AFBE"/>
<rect x="14.0654" y="19.926" width="391.488" height="385.627" rx="13" fill="white"/>
<rect x="35.1636" y="192.228" width="331.71" height="194.572" rx="13" fill="#B5E0E6"/>
<path d="M35.1636 205.228C35.1636 198.048 40.9839 192.228 48.1636 192.228H353.873C361.053 192.228 366.873 198.048 366.873 205.228V254.35H35.1636V205.228Z" fill="#A3CFD6"/>
<path d="M0 15.3442C0 8.16454 5.8203 2.34424 13 2.34424H406.619C413.798 2.34424 419.619 8.16454 419.619 15.3442V64.4666H0V15.3442Z" fill="#45AFBE"/>
<rect x="35.1636" y="97.2859" width="178.162" height="48.0569" rx="13" fill="#B5E0E6"/>
<rect x="35.1636" y="152.375" width="105.491" height="24.6145" rx="12.3073" fill="#B5E0E6"/>
<rect x="66.811" y="277.792" width="147.687" height="19.926" rx="9.96302" fill="white"/>
<rect x="226.219" y="277.792" width="147.687" height="76.1878" rx="12" fill="white"/>
<rect x="66.811" y="308.267" width="147.687" height="19.926" rx="9.96302" fill="white"/>
<rect x="66.811" y="338.743" width="147.687" height="19.926" rx="9.96302" fill="white"/>
<rect x="243.801" y="97.2859" width="130.105" height="67.9829" rx="13" fill="#B5E0E6"/>
<rect x="404.381" y="405.553" width="419.619" height="423.135" rx="13" fill="#45AFBE"/>
<rect x="418.447" y="425.479" width="391.488" height="385.627" rx="13" fill="white"/>
<rect x="441" y="667" width="348" height="126" rx="13" fill="#B5E0E6"/>
<path d="M404.381 420.898C404.381 413.718 410.202 407.898 417.381 407.898H811C818.18 407.898 824 413.718 824 420.898V470.02H404.381V420.898Z" fill="#45AFBE"/>
<rect x="457.127" y="570.822" width="203.949" height="19.926" rx="9.96302" fill="#B5E0E6"/>
<rect x="457.127" y="601.297" width="159.408" height="19.926" rx="9.96302" fill="#B5E0E6"/>
<rect x="457.127" y="631.772" width="255.522" height="19.926" rx="9.96302" fill="#B5E0E6"/>
<rect x="691.551" y="499.323" width="91.4253" height="91.4253" rx="13" fill="#B5E0E6"/>
<rect x="457.127" y="499.323" width="157.064" height="60.9502" rx="13" fill="#B5E0E6"/>
<path d="M441 677C441 669.82 446.82 664 454 664H776C783.18 664 789 669.82 789 677V704H441V677Z" fill="#A3CFD6"/>
<path d="M337.172 265.782L310.892 239.433C306.985 235.515 300.639 235.515 296.732 239.433L240.624 295.688C236.731 299.592 236.731 305.909 240.624 309.812L265.603 334.857C266.42 335.676 266.693 336.892 266.305 337.982L258.872 358.85C258.446 360.045 257.315 360.843 256.046 360.843H219C213.477 360.843 209 365.321 209 370.843V452.36C209 457.883 213.477 462.36 219 462.36H258.162L266.941 488.766L239.454 516.325C235.561 520.229 235.561 526.546 239.454 530.449L296.732 587.878C300.639 591.796 306.985 591.796 310.893 587.878L337.172 561.529L361.753 573.265V606.688C361.753 612.211 366.23 616.688 371.753 616.688H455.929C461.452 616.688 465.929 612.211 465.929 606.688V573.265L489.34 561.529L515.619 587.878C519.526 591.796 525.872 591.796 529.78 587.878L587.058 530.449C590.951 526.546 590.951 520.229 587.058 516.325L559.571 488.766L570.691 462.36H604C609.523 462.36 614 457.883 614 452.36V370.843C614 365.321 609.523 360.843 604 360.843H570.691L559.571 336.198L586.554 310.977C590.682 307.119 590.796 300.61 586.806 296.61L529.78 239.433C525.872 235.515 519.526 235.515 515.619 239.433L489.34 265.782L460.077 256.393V217.688C460.077 212.166 455.599 207.688 450.077 207.688H371.753C366.23 207.688 361.753 212.166 361.753 217.688V256.393L337.172 265.782Z" fill="#45AFBE"/>
<ellipse cx="412" cy="414.188" rx="134" ry="136.5" fill="white"/>
<path d="M379.393 431.793H329.179L321.25 446.688H312L349 381.688H359.571L396.571 446.688H387.321L379.393 431.793ZM375.429 425.022L354.286 387.105L333.143 425.022H375.429ZM407.143 381.688H454.797C458.734 381.688 462.051 381.872 464.749 382.239C467.474 382.577 469.718 383.099 471.48 383.804C473.242 384.51 474.591 385.384 475.527 386.428C476.49 387.472 477.193 388.699 477.633 390.11C478.074 391.52 478.321 393.1 478.376 394.849C478.458 396.598 478.5 398.531 478.5 400.647C478.5 402.847 478.445 404.879 478.335 406.741C478.252 408.603 477.935 410.295 477.385 411.819C476.862 413.314 476.009 414.64 474.825 415.797C473.669 416.925 472.003 417.87 469.828 418.632C467.68 419.394 464.942 419.972 461.61 420.367C458.307 420.762 454.232 420.959 449.387 420.959H415.071V446.688H407.143V381.688ZM415.071 414.188H449.387C452.911 414.188 455.871 414.132 458.266 414.019C460.689 413.878 462.684 413.638 464.253 413.3C465.823 412.961 467.034 412.482 467.887 411.861C468.74 411.24 469.36 410.422 469.745 409.407C470.158 408.391 470.392 407.178 470.447 405.767C470.53 404.328 470.571 402.622 470.571 400.647C470.571 398.813 470.53 397.233 470.447 395.907C470.392 394.581 470.158 393.467 469.745 392.564C469.36 391.661 468.74 390.942 467.887 390.406C467.034 389.87 465.823 389.461 464.253 389.179C462.684 388.868 460.689 388.671 458.266 388.586C455.871 388.502 452.911 388.459 449.387 388.459H415.071V414.188ZM489.071 381.688H497V446.688H489.071V381.688Z" fill="#45AFBE"/>
</svg>
