<svg width="1024" height="1024" viewBox="0 0 1024 1024" fill="none" xmlns="http://www.w3.org/2000/svg">
<rect width="1024" height="1024" fill="#FAFAFA"/>
<circle cx="367.753" cy="609.559" r="130.389" fill="#B5E0E6"/>
<path d="M530.962 609.559C530.962 699.206 458.288 771.88 368.641 771.88C278.993 771.88 206.319 699.206 206.319 609.559C206.319 519.911 278.993 447.237 368.641 447.237C458.288 447.237 530.962 519.911 530.962 609.559ZM221.821 609.559C221.821 690.645 287.555 756.378 368.641 756.378C449.727 756.378 515.46 690.645 515.46 609.559C515.46 528.473 449.727 462.739 368.641 462.739C287.555 462.739 221.821 528.473 221.821 609.559Z" fill="#B5E0E6"/>
<path d="M419.73 526.692C422.43 527.811 424.149 530.494 424.014 533.388L423.043 554.05C425.127 555.592 426.879 556.998 428.318 558.305C429.89 559.732 431.853 561.719 434.224 564.307L452.637 562.579C454.14 562.437 455.648 562.787 456.936 563.575C458.224 564.363 459.221 565.548 459.779 566.951L467.363 586.19C468.369 588.749 467.756 591.627 465.797 593.548L451.832 607.207C452.113 609.853 452.284 612.087 452.36 613.927C452.435 615.928 452.43 618.638 452.331 622.096L465.901 636.012C467.942 638.097 468.448 641.213 467.181 643.799L458.065 662.353C457.468 663.556 456.532 664.558 455.371 665.235C454.21 665.911 452.877 666.232 451.536 666.157L433.6 665.23C432.255 667.201 431.021 668.853 429.877 670.209C428.077 672.288 426.18 674.282 424.192 676.182L424.845 696.797C424.893 698.246 424.476 699.673 423.655 700.869C422.834 702.064 421.651 702.965 420.281 703.44L399.817 710.581C398.471 711.048 397.014 711.092 395.642 710.708C394.27 710.323 393.049 709.529 392.141 708.431L380.131 693.891C377.194 694.167 374.243 694.263 371.294 694.176L363.528 693.904L350.702 707.96C349.757 708.987 348.524 709.704 347.165 710.018C345.805 710.332 344.382 710.228 343.083 709.719L325.47 702.876C324.133 702.362 322.988 701.446 322.193 700.255C321.397 699.063 320.991 697.655 321.029 696.222L321.716 674.688C319.656 672.873 317.647 670.999 315.694 669.069C314.117 667.44 312.596 665.757 311.134 664.024L290.592 664.244C289.238 664.258 287.91 663.878 286.769 663.15C285.628 662.423 284.723 661.379 284.164 660.147L276.276 642.677C275.688 641.38 275.521 639.931 275.801 638.535C276.081 637.138 276.793 635.865 277.836 634.895L292.119 621.66C291.925 619.31 291.818 616.953 291.799 614.595C291.824 611.729 291.936 608.864 292.133 606.004L277.77 594.18C276.602 593.222 275.782 591.905 275.439 590.433C275.095 588.961 275.248 587.417 275.872 586.041L283.833 568.665C284.356 567.533 285.179 566.565 286.212 565.867C287.245 565.169 288.45 564.766 289.695 564.703L310.379 563.573C312.393 560.974 314.036 558.986 315.34 557.579C317.128 555.718 318.995 553.936 320.936 552.236L320.013 533.339C319.943 531.904 320.33 530.484 321.118 529.283C321.907 528.082 323.055 527.162 324.4 526.655L342.345 519.825C343.602 519.347 344.971 519.243 346.286 519.525C347.602 519.807 348.807 520.463 349.758 521.414L364.203 535.845C366.665 535.359 368.84 535.045 370.766 534.864C373.064 534.644 376.015 534.641 379.652 534.825L392.726 520.432C393.688 519.38 394.95 518.651 396.341 518.344C397.732 518.036 399.185 518.166 400.499 518.715L419.73 526.692ZM383.313 587.139C368.003 580.79 350.511 587.904 344.233 603.039C337.955 618.175 345.273 635.591 360.583 641.941C375.883 648.287 393.38 641.163 399.657 626.028C405.935 610.893 398.622 593.489 383.313 587.139Z" fill="#45AFBE"/>
<rect x="281.524" y="528.714" width="6.36214" height="12.7243" rx="3.18107" transform="rotate(-45 281.524 528.714)" fill="#1F7F95"/>
<rect x="264.528" y="511.719" width="6.36214" height="20.5002" rx="3.18107" transform="rotate(-45 264.528 511.719)" fill="#1F7F95"/>
<rect x="246.034" y="493.224" width="6.36214" height="22.621" rx="3.18107" transform="rotate(-45 246.034 493.224)" fill="#1F7F95"/>
<circle cx="236.037" cy="478.728" r="22.2675" transform="rotate(-45 236.037 478.728)" fill="#1F7F95"/>
<circle cx="236.037" cy="478.728" r="17.3192" transform="rotate(-45 236.037 478.728)" fill="#B5E0E6"/>
<rect width="6.36214" height="12.7243" rx="3.18107" transform="matrix(-0.707107 -0.707107 -0.707107 0.707107 462.157 527.827)" fill="#1F7F95"/>
<rect width="6.36214" height="20.5002" rx="3.18107" transform="matrix(-0.707107 -0.707107 -0.707107 0.707107 479.154 510.832)" fill="#1F7F95"/>
<rect width="6.36214" height="22.621" rx="3.18107" transform="matrix(-0.707107 -0.707107 -0.707107 0.707107 497.648 492.337)" fill="#1F7F95"/>
<circle cx="22.2675" cy="22.2675" r="22.2675" transform="matrix(-0.707107 -0.707107 -0.707107 0.707107 539.137 477.841)" fill="#1F7F95"/>
<circle cx="17.3192" cy="17.3192" r="17.3192" transform="matrix(-0.707107 -0.707107 -0.707107 0.707107 532.139 477.841)" fill="#B5E0E6"/>
<rect width="6.36214" height="12.7243" rx="3.18107" transform="matrix(0.707107 0.707107 0.707107 -0.707107 282.411 699.465)" fill="#1F7F95"/>
<rect width="6.36214" height="20.5002" rx="3.18107" transform="matrix(0.707107 0.707107 0.707107 -0.707107 265.415 716.46)" fill="#1F7F95"/>
<rect width="6.36214" height="22.621" rx="3.18107" transform="matrix(0.707107 0.707107 0.707107 -0.707107 246.921 734.955)" fill="#1F7F95"/>
<circle cx="22.2675" cy="22.2675" r="22.2675" transform="matrix(0.707107 0.707107 0.707107 -0.707107 205.433 749.45)" fill="#1F7F95"/>
<circle cx="17.3192" cy="17.3192" r="17.3192" transform="matrix(0.707107 0.707107 0.707107 -0.707107 212.43 749.45)" fill="#B5E0E6"/>
<rect x="463.045" y="700.352" width="6.36214" height="12.7243" rx="3.18107" transform="rotate(135 463.045 700.352)" fill="#1F7F95"/>
<rect x="480.042" y="717.347" width="6.36214" height="20.5002" rx="3.18107" transform="rotate(135 480.042 717.347)" fill="#1F7F95"/>
<rect x="498.536" y="735.842" width="6.36214" height="22.621" rx="3.18107" transform="rotate(135 498.536 735.842)" fill="#1F7F95"/>
<circle cx="508.533" cy="750.337" r="22.2675" transform="rotate(135 508.533 750.337)" fill="#1F7F95"/>
<circle cx="508.534" cy="750.337" r="17.3192" transform="rotate(135 508.534 750.337)" fill="#B5E0E6"/>
<rect x="367.754" y="496.909" width="7.98301" height="15.966" rx="3.99151" fill="#1F7F95"/>
<rect x="367.754" y="466.751" width="7.98301" height="25.723" rx="3.99151" fill="#1F7F95"/>
<rect x="367.754" y="433.932" width="7.98301" height="28.3841" rx="3.99151" fill="#1F7F95"/>
<circle cx="371.746" cy="412.201" r="27.9406" fill="#45AFBE"/>
<circle cx="371.746" cy="412.201" r="21.7315" fill="#1F7F95"/>
<circle cx="371.747" cy="412.201" r="13.7485" fill="white"/>
<rect width="7.98301" height="15.966" rx="3.99151" transform="matrix(1 0 0 -1 367.754 729.304)" fill="#1F7F95"/>
<rect width="7.98301" height="25.723" rx="3.99151" transform="matrix(1 0 0 -1 367.754 759.462)" fill="#1F7F95"/>
<rect width="7.98301" height="28.3841" rx="3.99151" transform="matrix(1 0 0 -1 367.754 792.281)" fill="#1F7F95"/>
<circle cx="27.9406" cy="27.9406" r="27.9406" transform="matrix(1 0 0 -1 343.806 841.953)" fill="#45AFBE"/>
<circle cx="21.7315" cy="21.7315" r="21.7315" transform="matrix(1 0 0 -1 350.015 835.744)" fill="#1F7F95"/>
<circle cx="13.7485" cy="13.7485" r="13.7485" transform="matrix(1 0 0 -1 357.998 827.761)" fill="white"/>
<rect x="254.648" y="617.701" width="7.98301" height="15.966" rx="3.99151" transform="rotate(-90 254.648 617.701)" fill="#1F7F95"/>
<rect x="224.491" y="617.701" width="7.98301" height="25.723" rx="3.99151" transform="rotate(-90 224.491 617.701)" fill="#1F7F95"/>
<rect x="191.673" y="617.701" width="7.98301" height="28.3841" rx="3.99151" transform="rotate(-90 191.673 617.701)" fill="#1F7F95"/>
<circle cx="169.941" cy="613.709" r="27.9406" transform="rotate(-90 169.941 613.709)" fill="#45AFBE"/>
<circle cx="169.941" cy="613.709" r="21.7315" transform="rotate(-90 169.941 613.709)" fill="#1F7F95"/>
<circle cx="169.941" cy="613.709" r="13.7485" transform="rotate(-90 169.941 613.709)" fill="white"/>
<rect width="7.98301" height="15.966" rx="3.99151" transform="matrix(0 -1 -1 0 487.499 616.655)" fill="#1F7F95"/>
<rect width="7.98301" height="25.723" rx="3.99151" transform="matrix(0 -1 -1 0 517.656 616.655)" fill="#1F7F95"/>
<rect width="7.98301" height="28.3841" rx="3.99151" transform="matrix(0 -1 -1 0 550.475 616.655)" fill="#1F7F95"/>
<circle cx="27.9406" cy="27.9406" r="27.9406" transform="matrix(0 -1 -1 0 600.147 640.604)" fill="#45AFBE"/>
<circle cx="21.7315" cy="21.7315" r="21.7315" transform="matrix(0 -1 -1 0 593.938 634.395)" fill="#1F7F95"/>
<circle cx="13.7485" cy="13.7485" r="13.7485" transform="matrix(0 -1 -1 0 585.955 626.412)" fill="white"/>
<circle cx="642.412" cy="649.032" r="71.6646" fill="#1F7F95"/>
<rect x="580.632" y="678.193" width="125.537" height="42.5045" rx="4" fill="#1F7F95"/>
<rect x="549.001" y="711.801" width="190.776" height="39.5391" rx="4" fill="#1F7F95"/>
<path d="M685.777 476.789C676.571 468.34 674.453 454.638 680.678 443.804V443.804C688.44 430.294 706.072 426.269 718.928 435.072L849.018 524.153C866.947 536.43 870.919 561.229 857.721 578.491V578.491C844.181 596.201 818.361 598.472 801.937 583.398L685.777 476.789Z" fill="#1F7F95"/>
<path d="M645.834 338.035C643.418 327.891 648.357 317.429 657.724 312.848V312.848C669.404 307.135 683.475 312.592 688.249 324.687L736.557 447.07C743.214 463.937 734.37 482.938 717.179 488.705V488.705C699.541 494.62 680.629 484.124 676.319 466.027L645.834 338.035Z" fill="#45AFBE"/>
<path d="M808.936 523.904C823.693 517.919 840.627 522.965 849.701 536.05V536.05C861.017 552.368 856.021 574.869 838.861 584.863L665.226 685.995C641.296 699.933 610.571 690.96 597.904 666.333V666.333C584.909 641.068 596.398 610.098 622.726 599.42L808.936 523.904Z" fill="#45AFBE"/>
<circle cx="820.832" cy="554.633" r="22.735" fill="white"/>
<circle cx="641.422" cy="644.09" r="34.1025" fill="white"/>
<circle cx="706.662" cy="459.245" r="20.2638" fill="white"/>
<rect x="606.078" y="312.032" width="151.891" height="21.2776" rx="7" transform="rotate(9.12699 606.078 312.032)" fill="#45AFBE"/>
<rect x="592.352" y="300.288" width="22.2867" height="38.5506" rx="5" transform="rotate(8.74946 592.352 300.288)" fill="#45AFBE"/>
<path d="M608.309 298.617C608.309 364.128 555.202 417.235 489.691 417.235C424.181 417.235 371.074 364.128 371.074 298.617C371.074 233.107 424.181 180 489.691 180C555.202 180 608.309 233.107 608.309 298.617ZM399.26 298.617C399.26 348.561 439.748 389.048 489.691 389.048C539.635 389.048 580.123 348.561 580.123 298.617C580.123 248.674 539.635 208.186 489.691 208.186C439.748 208.186 399.26 248.674 399.26 298.617Z" fill="#45AFBE"/>
<ellipse cx="486.078" cy="304.557" rx="33.114" ry="40.6005" transform="rotate(29.066 486.078 304.557)" fill="#1F7F95"/>
<rect x="491.474" y="244.251" width="19.2863" height="5.93086" rx="2.96543" transform="rotate(27.8643 491.474 244.251)" fill="#45AFBE"/>
<circle cx="515.391" cy="256.113" r="7.90782" fill="#45AFBE"/>
<rect x="474.208" y="251.17" width="22.5726" height="5.93086" rx="2.96543" transform="rotate(12.8687 474.208 251.17)" fill="#45AFBE"/>
<rect width="19.3245" height="5.93086" rx="2.96543" transform="matrix(-0.863876 -0.503704 -0.503704 0.863876 537.051 268.812)" fill="#45AFBE"/>
<rect width="22.9002" height="5.93086" rx="2.96543" transform="matrix(-0.830871 -0.556465 -0.556465 0.830871 539.697 284.672)" fill="#45AFBE"/>
<path d="M526.979 306.246C520.134 318.367 504.359 305.346 492.238 298.5C480.116 291.654 458.029 281.787 464.874 269.666C471.72 257.544 504.906 247.758 517.028 254.604C529.149 261.449 533.825 294.124 526.979 306.246Z" fill="#1F7F95"/>
<rect x="479.732" y="256.709" width="12.467" height="5.93086" rx="2.96543" transform="rotate(159.037 479.732 256.709)" fill="#45AFBE"/>
<rect x="494.182" y="251.455" width="12.467" height="5.93086" rx="2.96543" transform="rotate(-173.989 494.182 251.455)" fill="#45AFBE"/>
<path d="M540.621 294.228C539.171 294.99 537.378 294.433 536.616 292.983L533.575 287.198C532.813 285.748 533.371 283.955 534.82 283.193V283.193C536.27 282.431 538.063 282.988 538.825 284.438L541.866 290.224C542.628 291.673 542.071 293.466 540.621 294.228V294.228Z" fill="#45AFBE"/>
<rect x="536.741" y="279.521" width="12.467" height="5.93086" rx="2.96543" transform="rotate(-127.047 536.741 279.521)" fill="#45AFBE"/>
<path d="M480.504 299.418L463.009 323.346C458.337 332.605 452.501 339.293 444.556 339.332C436.611 339.37 423.736 307.034 455.264 281.657C469.076 269.147 488.847 264.056 509.106 267.175C509.895 267.296 510.209 268.251 509.659 268.828L480.504 299.418Z" fill="#45AFBE"/>
<path d="M480.504 299.418L463.009 323.346C458.337 332.605 452.501 339.293 444.556 339.332C436.611 339.37 423.736 307.034 455.264 281.657C469.076 269.147 488.847 264.056 509.106 267.175C509.895 267.296 510.209 268.251 509.659 268.828L480.504 299.418Z" fill="#45AFBE"/>
<path d="M494.998 307.685L482.369 334.191C476.48 342.616 473.402 350.85 477.167 357.805C480.931 364.759 515.455 360.822 522.645 321.385C527.02 303.444 522.5 284.134 510.092 267.926C509.612 267.299 508.635 267.47 508.382 268.217L494.998 307.685Z" fill="#45AFBE"/>
<path d="M494.998 307.685L482.369 334.191C476.48 342.616 473.402 350.85 477.167 357.805C480.931 364.759 515.455 360.822 522.645 321.385C527.02 303.444 522.5 284.134 510.092 267.926C509.612 267.299 508.635 267.47 508.382 268.217L494.998 307.685Z" fill="#45AFBE"/>
<path d="M509.789 310.435L508.7 349.873C508.662 351.275 510.042 352.279 511.337 351.74C523.29 346.768 532.638 337.231 534.696 314.601C533.779 296.178 528.14 281.645 511.91 269.805C511.263 269.333 510.365 269.793 510.354 270.593L509.789 310.435Z" fill="#1F7F95"/>
<path d="M509.789 310.435L508.7 349.873C508.662 351.275 510.042 352.279 511.337 351.74C523.29 346.768 532.638 337.231 534.696 314.601C533.779 296.178 528.14 281.645 511.91 269.805C511.263 269.333 510.365 269.793 510.354 270.593L509.789 310.435Z" fill="#1F7F95"/>
<path d="M468.443 288.732L435.105 309.831C433.92 310.581 432.351 309.908 432.152 308.52C430.315 295.705 433.731 282.795 452.128 269.457C468.43 260.827 483.804 258.243 502.277 266.138C503.013 266.453 503.077 267.46 502.395 267.879L468.443 288.732Z" fill="#1F7F95"/>
<path d="M468.443 288.732L435.105 309.831C433.92 310.581 432.351 309.908 432.152 308.52C430.315 295.705 433.731 282.795 452.128 269.457C468.43 260.827 483.804 258.243 502.277 266.138C503.013 266.453 503.077 267.46 502.395 267.879L468.443 288.732Z" fill="#1F7F95"/>
<path d="M508.967 266.986L500.564 265.503V268.963L508.967 266.986Z" fill="#1F7F95"/>
<path d="M509.363 266.992L510.783 276.054L515.169 274.314L509.363 266.992Z" fill="#1F7F95"/>
</svg>
