<svg width="963" height="862" viewBox="0 0 963 862" fill="none" xmlns="http://www.w3.org/2000/svg">
<circle cx="293.785" cy="559.007" r="169.682" fill="#B5E0E6"/>
<path d="M506.176 559.007C506.176 675.67 411.602 770.244 294.939 770.244C178.276 770.244 83.7021 675.67 83.7021 559.007C83.7021 442.344 178.276 347.77 294.939 347.77C411.602 347.77 506.176 442.344 506.176 559.007ZM103.876 559.007C103.876 664.528 189.418 750.071 294.939 750.071C400.461 750.071 486.003 664.528 486.003 559.007C486.003 453.486 400.461 367.943 294.939 367.943C189.418 367.943 103.876 453.486 103.876 559.007Z" fill="#B5E0E6"/>
<path d="M361.425 451.168C364.938 452.625 367.174 456.116 366.999 459.882L365.736 486.771C368.447 488.778 370.728 490.607 372.6 492.307C374.645 494.164 377.201 496.751 380.286 500.118L404.247 497.87C406.203 497.685 408.167 498.14 409.843 499.166C411.518 500.192 412.816 501.734 413.541 503.56L423.412 528.596C424.72 531.926 423.923 535.671 421.373 538.172L403.201 555.946C403.566 559.39 403.788 562.297 403.888 564.692C403.984 567.296 403.978 570.823 403.849 575.322L421.509 593.433C424.165 596.146 424.823 600.2 423.175 603.565L411.311 627.711C410.535 629.277 409.316 630.581 407.806 631.461C406.295 632.341 404.56 632.758 402.814 632.661L379.474 631.455C377.723 634.021 376.117 636.17 374.629 637.934C372.287 640.64 369.818 643.234 367.231 645.708L368.08 672.535C368.143 674.421 367.6 676.278 366.532 677.833C365.463 679.389 363.924 680.562 362.141 681.179L335.51 690.473C333.758 691.08 331.863 691.138 330.077 690.637C328.292 690.137 326.702 689.103 325.521 687.674L309.892 668.753C306.07 669.113 302.23 669.237 298.392 669.124L288.286 668.77L271.594 687.061C270.365 688.398 268.761 689.332 266.991 689.74C265.222 690.149 263.371 690.013 261.68 689.351L238.759 680.446C237.019 679.777 235.529 678.585 234.494 677.035C233.459 675.484 232.93 673.651 232.979 671.787L233.873 643.764C231.192 641.401 228.579 638.962 226.036 636.451C223.984 634.331 222.005 632.141 220.103 629.886L193.37 630.172C191.609 630.19 189.881 629.695 188.396 628.748C186.911 627.802 185.733 626.444 185.006 624.84L174.741 602.106C173.974 600.418 173.758 598.532 174.122 596.715C174.486 594.898 175.412 593.241 176.77 591.979L195.358 574.755C195.105 571.697 194.966 568.63 194.941 565.561C194.974 561.831 195.119 558.103 195.376 554.381L176.685 538.994C175.164 537.747 174.097 536.033 173.65 534.118C173.204 532.203 173.402 530.193 174.214 528.402L184.574 505.79C185.255 504.317 186.325 503.058 187.67 502.149C189.015 501.24 190.583 500.716 192.203 500.634L219.12 499.163C221.741 495.782 223.879 493.194 225.577 491.363C227.902 488.942 230.332 486.622 232.859 484.41L231.657 459.818C231.566 457.951 232.07 456.103 233.096 454.54C234.121 452.977 235.617 451.78 237.366 451.12L260.719 442.232C262.355 441.61 264.137 441.475 265.848 441.842C267.56 442.209 269.129 443.063 270.367 444.3L289.164 463.079C292.368 462.447 295.199 462.038 297.705 461.803C300.696 461.517 304.536 461.513 309.269 461.753L326.283 443.021C327.534 441.653 329.177 440.704 330.987 440.304C332.798 439.904 334.687 440.073 336.398 440.787L361.425 451.168ZM314.033 529.832C294.11 521.568 271.346 530.827 263.176 550.523C255.006 570.219 264.53 592.884 284.453 601.148C304.364 609.406 327.133 600.136 335.303 580.439C343.472 560.743 333.956 538.095 314.033 529.832Z" fill="#45AFBE"/>
<rect x="181.57" y="453.8" width="8.27939" height="16.5588" rx="4" transform="rotate(-45 181.57 453.8)" fill="#1F7F95"/>
<rect x="159.452" y="431.683" width="8.27939" height="26.678" rx="4" transform="rotate(-45 159.452 431.683)" fill="#1F7F95"/>
<rect x="135.385" y="407.615" width="8.27939" height="29.4378" rx="4" transform="rotate(-45 135.385 407.615)" fill="#1F7F95"/>
<circle cx="122.374" cy="388.751" r="28.9779" transform="rotate(-45 122.374 388.751)" fill="#1F7F95"/>
<circle cx="122.374" cy="388.751" r="22.5383" transform="rotate(-45 122.374 388.751)" fill="#B5E0E6"/>
<rect width="8.27939" height="16.5588" rx="4" transform="matrix(-0.707107 -0.707107 -0.707107 0.707107 416.638 452.646)" fill="#1F7F95"/>
<rect width="8.27939" height="26.678" rx="4" transform="matrix(-0.707107 -0.707107 -0.707107 0.707107 438.756 430.529)" fill="#1F7F95"/>
<rect width="8.27939" height="29.4378" rx="4" transform="matrix(-0.707107 -0.707107 -0.707107 0.707107 462.823 406.461)" fill="#1F7F95"/>
<circle cx="28.9779" cy="28.9779" r="28.9779" transform="matrix(-0.707107 -0.707107 -0.707107 0.707107 516.814 387.596)" fill="#1F7F95"/>
<circle cx="22.5383" cy="22.5383" r="22.5383" transform="matrix(-0.707107 -0.707107 -0.707107 0.707107 507.708 387.596)" fill="#B5E0E6"/>
<rect width="8.27939" height="16.5588" rx="4" transform="matrix(0.707107 0.707107 0.707107 -0.707107 182.725 676.006)" fill="#1F7F95"/>
<rect width="8.27939" height="26.678" rx="4" transform="matrix(0.707107 0.707107 0.707107 -0.707107 160.606 698.123)" fill="#1F7F95"/>
<rect width="8.27939" height="29.4378" rx="4" transform="matrix(0.707107 0.707107 0.707107 -0.707107 136.539 722.191)" fill="#1F7F95"/>
<circle cx="28.9779" cy="28.9779" r="28.9779" transform="matrix(0.707107 0.707107 0.707107 -0.707107 82.5479 741.055)" fill="#1F7F95"/>
<circle cx="22.5383" cy="22.5383" r="22.5383" transform="matrix(0.707107 0.707107 0.707107 -0.707107 91.6543 741.055)" fill="#B5E0E6"/>
<rect x="417.793" y="677.161" width="8.27939" height="16.5588" rx="4" transform="rotate(135 417.793 677.161)" fill="#1F7F95"/>
<rect x="439.911" y="699.277" width="8.27939" height="26.678" rx="4" transform="rotate(135 439.911 699.277)" fill="#1F7F95"/>
<rect x="463.979" y="723.345" width="8.27939" height="29.4378" rx="4" transform="rotate(135 463.979 723.345)" fill="#1F7F95"/>
<circle cx="476.989" cy="742.21" r="28.9779" transform="rotate(135 476.989 742.21)" fill="#1F7F95"/>
<circle cx="476.99" cy="742.21" r="22.5383" transform="rotate(135 476.99 742.21)" fill="#B5E0E6"/>
<rect x="293.785" y="412.411" width="10.3887" height="20.7774" rx="4" fill="#1F7F95"/>
<rect x="293.785" y="373.164" width="10.3887" height="33.4747" rx="4" fill="#1F7F95"/>
<rect x="293.785" y="330.455" width="10.3887" height="36.9376" rx="4" fill="#1F7F95"/>
<circle cx="298.981" cy="302.175" r="36.3605" fill="#45AFBE"/>
<circle cx="298.981" cy="302.175" r="28.2804" fill="#1F7F95"/>
<circle cx="298.981" cy="302.175" r="17.8917" fill="white"/>
<rect width="10.3887" height="20.7774" rx="4" transform="matrix(1 0 0 -1 293.785 714.838)" fill="#1F7F95"/>
<rect width="10.3887" height="33.4747" rx="4" transform="matrix(1 0 0 -1 293.785 754.084)" fill="#1F7F95"/>
<rect width="10.3887" height="36.9376" rx="4" transform="matrix(1 0 0 -1 293.785 796.793)" fill="#1F7F95"/>
<circle cx="36.3605" cy="36.3605" r="36.3605" transform="matrix(1 0 0 -1 262.62 861.434)" fill="#45AFBE"/>
<circle cx="28.2804" cy="28.2804" r="28.2804" transform="matrix(1 0 0 -1 270.7 853.354)" fill="#1F7F95"/>
<circle cx="17.8917" cy="17.8917" r="17.8917" transform="matrix(1 0 0 -1 281.089 842.965)" fill="white"/>
<rect x="146.596" y="569.603" width="10.3887" height="20.7774" rx="4" transform="rotate(-90 146.596 569.603)" fill="#1F7F95"/>
<rect x="107.351" y="569.603" width="10.3887" height="33.4747" rx="4" transform="rotate(-90 107.351 569.603)" fill="#1F7F95"/>
<rect x="64.6416" y="569.603" width="10.3887" height="36.9376" rx="4" transform="rotate(-90 64.6416 569.603)" fill="#1F7F95"/>
<circle cx="36.3605" cy="564.409" r="36.3605" transform="rotate(-90 36.3605 564.409)" fill="#45AFBE"/>
<circle cx="36.3605" cy="564.409" r="28.2804" transform="rotate(-90 36.3605 564.409)" fill="#1F7F95"/>
<circle cx="36.3604" cy="564.409" r="17.8917" transform="rotate(-90 36.3604 564.409)" fill="white"/>
<rect width="10.3887" height="20.7774" rx="4" transform="matrix(0 -1 -1 0 449.616 568.241)" fill="#1F7F95"/>
<rect width="10.3887" height="33.4747" rx="4" transform="matrix(0 -1 -1 0 488.861 568.241)" fill="#1F7F95"/>
<rect width="10.3887" height="36.9376" rx="4" transform="matrix(0 -1 -1 0 531.57 568.241)" fill="#1F7F95"/>
<circle cx="36.3605" cy="36.3605" r="36.3605" transform="matrix(0 -1 -1 0 596.212 599.408)" fill="#45AFBE"/>
<circle cx="28.2804" cy="28.2804" r="28.2804" transform="matrix(0 -1 -1 0 588.132 591.327)" fill="#1F7F95"/>
<circle cx="17.8917" cy="17.8917" r="17.8917" transform="matrix(0 -1 -1 0 577.743 580.939)" fill="white"/>
<circle cx="651.213" cy="610.376" r="93.2609" fill="#1F7F95"/>
<rect x="570.815" y="648.324" width="163.367" height="55.3134" rx="4" fill="#1F7F95"/>
<rect x="529.652" y="692.06" width="248.267" height="51.4543" rx="4" fill="#1F7F95"/>
<path d="M707.645 386.226C695.665 375.232 692.909 357.401 701.01 343.302V343.302C711.111 325.72 734.056 320.482 750.786 331.939L920.08 447.864C943.412 463.841 948.58 496.113 931.405 518.577V518.577C913.784 541.624 880.184 544.58 858.811 524.963L707.645 386.226Z" fill="#1F7F95"/>
<path d="M655.665 205.659C652.521 192.459 658.949 178.843 671.138 172.882V172.882C686.339 165.447 704.65 172.549 710.862 188.288L773.728 347.552C782.392 369.502 770.883 394.229 748.51 401.733V401.733C725.557 409.432 700.946 395.772 695.337 372.222L655.665 205.659Z" fill="#45AFBE"/>
<path d="M867.918 447.54C887.122 439.751 909.159 446.318 920.969 463.347V463.347C935.695 484.582 929.192 513.863 906.862 526.87L680.902 658.478C649.76 676.616 609.777 664.938 593.292 632.891V632.891C576.381 600.012 591.332 559.708 625.594 545.813L867.918 447.54Z" fill="#45AFBE"/>
<circle cx="883.4" cy="487.529" r="29.5862" fill="white"/>
<circle cx="649.924" cy="603.945" r="44.3793" fill="white"/>
<circle cx="734.825" cy="363.396" r="26.3703" fill="white"/>
<rect x="603.929" y="171.82" width="197.664" height="27.6897" rx="7" transform="rotate(9.12699 603.929 171.82)" fill="#45AFBE"/>
<rect x="586.066" y="156.537" width="29.0028" height="50.1679" rx="5" transform="rotate(8.74946 586.066 156.537)" fill="#45AFBE"/>
<path d="M606.832 154.363C606.832 239.615 537.722 308.726 452.469 308.726C367.217 308.726 298.106 239.615 298.106 154.363C298.106 69.1106 367.217 0 452.469 0C537.722 0 606.832 69.1106 606.832 154.363ZM334.787 154.363C334.787 219.357 387.475 272.046 452.469 272.046C517.464 272.046 570.152 219.357 570.152 154.363C570.152 89.3684 517.464 36.6801 452.469 36.6801C387.475 36.6801 334.787 89.3684 334.787 154.363Z" fill="#45AFBE"/>
<ellipse cx="447.767" cy="162.093" rx="43.093" ry="52.8356" transform="rotate(29.066 447.767 162.093)" fill="#1F7F95"/>
<rect x="454.79" y="83.6133" width="25.0983" height="7.71814" rx="3.85907" transform="rotate(27.8643 454.79 83.6133)" fill="#45AFBE"/>
<circle cx="485.915" cy="99.0495" r="10.2909" fill="#45AFBE"/>
<rect x="432.32" y="92.6177" width="29.3748" height="7.71814" rx="3.85907" transform="rotate(12.8687 432.32 92.6177)" fill="#45AFBE"/>
<rect width="25.1479" height="7.71814" rx="3.85907" transform="matrix(-0.863876 -0.503704 -0.503704 0.863876 514.102 115.576)" fill="#45AFBE"/>
<rect width="29.8012" height="7.71814" rx="3.85907" transform="matrix(-0.830871 -0.556465 -0.556465 0.830871 517.545 136.215)" fill="#45AFBE"/>
<path d="M500.995 164.29C492.086 180.064 471.558 163.119 455.784 154.21C440.01 145.302 411.266 132.461 420.174 116.687C429.083 100.912 472.27 88.1775 488.044 97.086C503.819 105.994 509.903 148.516 500.995 164.29Z" fill="#1F7F95"/>
<rect x="439.51" y="99.825" width="16.2239" height="7.71814" rx="3.85907" transform="rotate(159.037 439.51 99.825)" fill="#45AFBE"/>
<rect x="458.313" y="92.988" width="16.2239" height="7.71814" rx="3.85907" transform="rotate(-173.989 458.313 92.988)" fill="#45AFBE"/>
<path d="M518.748 148.651C516.861 149.643 514.528 148.917 513.536 147.031L509.579 139.502C508.587 137.615 509.313 135.282 511.199 134.29V134.29C513.086 133.299 515.419 134.024 516.411 135.911L520.368 143.44C521.36 145.326 520.634 147.659 518.748 148.651V148.651Z" fill="#45AFBE"/>
<rect x="513.698" y="129.512" width="16.2239" height="7.71814" rx="3.85907" transform="rotate(-127.047 513.698 129.512)" fill="#45AFBE"/>
<path d="M440.514 155.404L417.747 186.544C411.666 198.593 404.072 207.297 393.733 207.347C383.393 207.397 366.639 165.316 407.667 132.292C425.768 115.898 451.732 109.295 478.289 113.532C479.076 113.658 479.392 114.613 478.842 115.19L440.514 155.404Z" fill="#45AFBE"/>
<path d="M440.514 155.404L417.747 186.544C411.666 198.593 404.072 207.297 393.733 207.347C383.393 207.397 366.639 165.316 407.667 132.292C425.768 115.898 451.732 109.295 478.289 113.532C479.076 113.658 479.392 114.613 478.842 115.19L440.514 155.404Z" fill="#45AFBE"/>
<path d="M459.374 166.163L442.94 200.657C435.276 211.621 431.271 222.336 436.17 231.386C441.069 240.437 485.997 235.312 495.354 183.991C501.085 160.484 495.084 135.169 478.683 113.988C478.2 113.364 477.221 113.534 476.968 114.282L459.374 166.163Z" fill="#45AFBE"/>
<path d="M459.374 166.163L442.94 200.657C435.276 211.621 431.271 222.336 436.17 231.386C441.069 240.437 485.997 235.312 495.354 183.991C501.085 160.484 495.084 135.169 478.683 113.988C478.2 113.364 477.221 113.534 476.968 114.282L459.374 166.163Z" fill="#45AFBE"/>
<path d="M478.625 169.741L477.183 221.94C477.144 223.343 478.525 224.347 479.827 223.826C495.769 217.448 508.313 205.123 511.037 175.164C509.835 151.018 502.4 132.006 480.93 116.539C480.281 116.071 479.378 116.529 479.367 117.329L478.625 169.741Z" fill="#1F7F95"/>
<path d="M478.625 169.741L477.183 221.94C477.144 223.343 478.525 224.347 479.827 223.826C495.769 217.448 508.313 205.123 511.037 175.164C509.835 151.018 502.4 132.006 480.93 116.539C480.281 116.071 479.378 116.529 479.367 117.329L478.625 169.741Z" fill="#1F7F95"/>
<path d="M424.818 141.499L380.693 169.425C379.508 170.175 377.939 169.502 377.721 168.116C375.052 151.155 379.231 134.073 403.587 116.415C424.953 105.104 445.094 101.774 469.363 112.318C470.097 112.637 470.165 113.647 469.483 114.066L424.818 141.499Z" fill="#1F7F95"/>
<path d="M424.818 141.499L380.693 169.425C379.508 170.175 377.939 169.502 377.721 168.116C375.052 151.155 379.231 134.073 403.587 116.415C424.953 105.104 445.094 101.774 469.363 112.318C470.097 112.637 470.165 113.647 469.483 114.066L424.818 141.499Z" fill="#1F7F95"/>
<path d="M477.553 113.199L466.619 111.27V115.772L477.553 113.199Z" fill="#1F7F95"/>
<path d="M478.069 113.207L479.918 125.001L485.625 122.736L478.069 113.207Z" fill="#1F7F95"/>
</svg>
