<svg width="727" height="805" viewBox="0 0 727 805" fill="none" xmlns="http://www.w3.org/2000/svg">
<path d="M206.5 746H519L554 805H172L206.5 746Z" fill="#45AFBE"/>
<rect x="206" y="687" width="314" height="77" rx="10" fill="#45AFBE"/>
<rect y="164" width="727" height="503" rx="30" fill="#45AFBE"/>
<path d="M648 163.5H398L386.5 186L379 206L610 217L648 163.5Z" fill="white"/>
<rect x="41" y="206" width="653" height="389" rx="30" fill="white"/>
<path d="M623.078 11.6716C631.329 4.83859 641.786 1.24187 652.496 1.55296C663.205 1.86404 673.435 6.06167 681.276 13.3621C689.117 20.6626 694.032 30.5668 695.105 41.2256C696.177 51.8844 693.333 62.5691 687.103 71.2849L596.5 198.872C570.995 234.783 537.912 264.654 499.59 286.373C494.124 268.524 484.054 252.429 470.394 239.706C456.734 226.982 439.965 218.078 421.772 213.89C440.73 174.14 468.189 139.039 502.206 111.066L623.078 11.6716ZM395.529 246.657C376.772 247.322 359.047 255.41 346.254 269.141C333.46 282.872 326.646 301.123 327.311 319.877C327.386 321.88 326.949 323.869 326.042 325.656C325.135 327.443 323.787 328.97 322.126 330.092C320.465 331.213 318.545 331.893 316.548 332.067C314.552 332.241 312.543 331.904 310.713 331.086C307.489 329.642 303.907 329.195 300.427 329.805C296.948 330.414 293.73 332.051 291.189 334.505C288.648 336.958 286.899 340.117 286.169 343.572C285.439 347.028 285.76 350.624 287.091 353.895C295.481 374.383 310.807 391.269 330.39 401.6C349.972 411.931 372.564 415.05 394.214 410.41C415.864 405.77 435.193 393.667 448.82 376.218C462.448 358.77 469.506 337.086 468.761 314.96L468.758 314.866C468.269 301.729 464.142 288.986 456.837 278.056C449.531 267.126 439.334 258.439 427.382 252.963C417.399 248.413 406.492 246.254 395.529 246.657Z" fill="#45AFBE"/>
</svg>
