<svg width="1024" height="1024" viewBox="0 0 1024 1024" fill="none" xmlns="http://www.w3.org/2000/svg">
<rect width="1024" height="1024" fill="#FAFAFA"/>
<path d="M392.096 766.386H661.611L691.797 817.271H362.341L392.096 766.386Z" fill="#45AFBE"/>
<rect x="391.665" y="715.502" width="270.809" height="66.4085" rx="10" fill="#45AFBE"/>
<rect x="214" y="264.441" width="627" height="433.812" rx="30" fill="#45AFBE"/>
<path d="M772.867 264.01H557.255L547.337 283.415L540.868 300.664L740.094 310.151L772.867 264.01Z" fill="#FAFAFA"/>
<rect x="249.36" y="300.664" width="563.179" height="335.492" rx="30" fill="#FAFAFA"/>
<path d="M751.373 133.066C758.489 127.173 767.508 124.071 776.744 124.339C785.98 124.608 794.803 128.228 801.565 134.524C808.328 140.82 812.567 149.362 813.492 158.555C814.417 167.748 811.964 176.963 806.591 184.48L728.45 294.517C706.454 325.489 677.922 351.251 644.871 369.982C640.156 354.588 631.472 340.707 619.691 329.734C607.91 318.76 593.447 311.081 577.757 307.469C594.107 273.187 617.789 242.914 647.127 218.789L751.373 133.066ZM555.123 335.729C538.946 336.303 523.66 343.278 512.626 355.12C501.593 366.963 495.716 382.703 496.289 398.878C496.354 400.605 495.977 402.32 495.195 403.862C494.412 405.403 493.25 406.72 491.817 407.687C490.385 408.654 488.729 409.241 487.007 409.391C485.285 409.541 483.553 409.25 481.974 408.545C479.194 407.299 476.104 406.914 473.103 407.44C470.102 407.965 467.327 409.377 465.136 411.493C462.944 413.609 461.436 416.333 460.806 419.314C460.176 422.294 460.453 425.395 461.602 428.217C468.837 445.886 482.056 460.449 498.944 469.359C515.833 478.269 535.318 480.959 553.989 476.957C572.661 472.955 589.331 462.517 601.084 447.469C612.837 432.42 618.925 413.719 618.282 394.637L618.279 394.556C617.858 383.226 614.299 372.235 607.998 362.809C601.698 353.383 592.903 345.891 582.595 341.168C573.985 337.243 564.579 335.381 555.123 335.729Z" fill="#45AFBE"/>
</svg>
