<svg width="1000" height="667" viewBox="0 0 1000 667" fill="none" xmlns="http://www.w3.org/2000/svg">
<path d="M105.284 249.691C118.808 236.167 140.735 236.167 154.259 249.691C167.784 263.215 167.784 285.141 154.259 298.667C140.735 312.191 118.808 312.191 105.284 298.667C91.7596 285.141 91.7596 263.215 105.284 249.691Z" fill="#B5E0E6"/>
<path d="M120.469 282.701C118.967 282.701 117.568 282.46 116.27 281.978C114.991 281.478 113.879 280.773 112.933 279.865C111.988 278.957 111.246 277.891 110.709 276.667C110.19 275.444 109.93 274.1 109.93 272.635C109.93 271.171 110.19 269.827 110.709 268.603C111.246 267.38 111.988 266.314 112.933 265.405C113.897 264.497 115.019 263.802 116.298 263.32C117.577 262.819 118.977 262.569 120.497 262.569C122.184 262.569 123.704 262.866 125.057 263.459C126.429 264.034 127.578 264.886 128.505 266.017L125.613 268.687C124.946 267.927 124.204 267.361 123.389 266.99C122.573 266.601 121.683 266.406 120.719 266.406C119.811 266.406 118.977 266.555 118.217 266.851C117.456 267.148 116.798 267.574 116.242 268.131C115.686 268.687 115.251 269.345 114.935 270.105C114.639 270.865 114.49 271.708 114.49 272.635C114.49 273.562 114.639 274.406 114.935 275.166C115.251 275.926 115.686 276.584 116.242 277.14C116.798 277.696 117.456 278.122 118.217 278.419C118.977 278.716 119.811 278.864 120.719 278.864C121.683 278.864 122.573 278.679 123.389 278.308C124.204 277.919 124.946 277.335 125.613 276.556L128.505 279.225C127.578 280.356 126.429 281.218 125.057 281.812C123.704 282.405 122.174 282.701 120.469 282.701ZM132.664 272.607C131.923 272.607 131.283 272.357 130.746 271.857C130.227 271.338 129.967 270.679 129.967 269.882C129.967 269.085 130.227 268.446 130.746 267.964C131.283 267.463 131.923 267.213 132.664 267.213C133.425 267.213 134.064 267.463 134.583 267.964C135.102 268.446 135.362 269.085 135.362 269.882C135.362 270.679 135.102 271.338 134.583 271.857C134.064 272.357 133.425 272.607 132.664 272.607ZM132.664 282.59C131.923 282.59 131.283 282.34 130.746 281.839C130.227 281.32 129.967 280.662 129.967 279.865C129.967 279.068 130.227 278.428 130.746 277.946C131.283 277.446 131.923 277.196 132.664 277.196C133.425 277.196 134.064 277.446 134.583 277.946C135.102 278.428 135.362 279.068 135.362 279.865C135.362 280.662 135.102 281.32 134.583 281.839C134.064 282.34 133.425 282.59 132.664 282.59ZM136.875 285.148L146.051 258.954H149.917L140.74 285.148H136.875Z" fill="#B2D0EF"/>
<path d="M309.335 57.6855C295.81 44.1615 273.883 44.1615 260.359 57.6855C246.834 71.2095 246.834 93.1361 260.359 106.661C273.883 120.185 295.81 120.185 309.335 106.661C322.859 93.1361 322.859 71.2095 309.335 57.6855Z" fill="#B5E0E6"/>
<path d="M277.698 86.5947L264.462 81.5616V77.9467L277.698 72.9136V76.3895L265.769 80.7274V78.7809L277.698 83.1188V86.5947ZM291.23 92.2673H287.365L278.189 66.0731H282.054L291.23 92.2673ZM291.997 86.5947V83.1188L303.926 78.7809V80.7274L291.997 76.3895V72.9136L305.233 77.9467V81.5616L291.997 86.5947Z" fill="#B2D0EF"/>
<path d="M930.371 304.179C916.847 290.655 894.92 290.655 881.396 304.179C867.871 317.703 867.871 339.631 881.396 353.155C894.92 366.68 916.847 366.68 930.371 353.155C943.896 339.631 943.896 317.703 930.371 304.179Z" fill="#B5E0E6"/>
<path d="M892.927 341.373C891.202 341.373 889.896 340.937 889.006 340.066C888.116 339.213 887.671 337.99 887.671 336.396V331.363C887.671 330.918 887.56 330.593 887.337 330.389C887.115 330.167 886.818 330.056 886.448 330.056H885.53V326.663H886.448C886.818 326.663 887.115 326.552 887.337 326.33C887.56 326.107 887.671 325.783 887.671 325.356V320.323C887.671 318.71 888.116 317.478 889.006 316.625C889.896 315.772 891.202 315.346 892.927 315.346H894.539V318.738H894.039C893.371 318.738 892.862 318.914 892.509 319.267C892.176 319.619 892.009 320.129 892.009 320.796V325.245C892.009 326.061 891.898 326.7 891.675 327.164C891.453 327.627 891.101 327.961 890.619 328.165C890.155 328.369 889.553 328.517 888.811 328.61V328.109C889.553 328.183 890.155 328.332 890.619 328.554C891.101 328.758 891.453 329.092 891.675 329.555C891.898 330.019 892.009 330.658 892.009 331.474V335.923C892.009 336.59 892.176 337.1 892.509 337.452C892.862 337.805 893.371 337.981 894.039 337.981H894.539V341.373H892.927ZM898.589 336.201C897.847 336.201 897.208 335.951 896.67 335.45C896.151 334.931 895.891 334.273 895.891 333.476C895.891 332.679 896.151 332.039 896.67 331.557C897.208 331.057 897.847 330.806 898.589 330.806C899.349 330.806 899.988 331.057 900.507 331.557C901.026 332.039 901.286 332.679 901.286 333.476C901.286 334.273 901.026 334.931 900.507 335.45C899.988 335.951 899.349 336.201 898.589 336.201ZM905.866 336.201C905.125 336.201 904.485 335.951 903.947 335.45C903.428 334.931 903.169 334.273 903.169 333.476C903.169 332.679 903.428 332.039 903.947 331.557C904.485 331.057 905.125 330.806 905.866 330.806C906.626 330.806 907.266 331.057 907.785 331.557C908.304 332.039 908.563 332.679 908.563 333.476C908.563 334.273 908.304 334.931 907.785 335.45C907.266 335.951 906.626 336.201 905.866 336.201ZM913.144 336.201C912.402 336.201 911.763 335.951 911.225 335.45C910.706 334.931 910.446 334.273 910.446 333.476C910.446 332.679 910.706 332.039 911.225 331.557C911.763 331.057 912.402 330.806 913.144 330.806C913.904 330.806 914.543 331.057 915.062 331.557C915.581 332.039 915.841 332.679 915.841 333.476C915.841 334.273 915.581 334.931 915.062 335.45C914.543 335.951 913.904 336.201 913.144 336.201ZM918.808 341.373H917.196V337.981H917.696C918.364 337.981 918.864 337.805 919.198 337.452C919.55 337.1 919.726 336.59 919.726 335.923V331.474C919.726 330.658 919.837 330.019 920.06 329.555C920.301 329.092 920.653 328.758 921.116 328.554C921.58 328.332 922.182 328.183 922.924 328.109V328.61C922.182 328.517 921.58 328.369 921.116 328.165C920.653 327.961 920.301 327.627 920.06 327.164C919.837 326.7 919.726 326.061 919.726 325.245V320.796C919.726 320.129 919.55 319.619 919.198 319.267C918.864 318.914 918.364 318.738 917.696 318.738H917.196V315.346H918.808C920.551 315.346 921.858 315.772 922.729 316.625C923.619 317.478 924.064 318.71 924.064 320.323V325.356C924.064 325.783 924.175 326.107 924.398 326.33C924.62 326.552 924.917 326.663 925.287 326.663H926.205V330.056H925.287C924.917 330.056 924.62 330.167 924.398 330.389C924.175 330.593 924.064 330.918 924.064 331.363V336.396C924.064 337.99 923.619 339.213 922.729 340.066C921.858 340.937 920.551 341.373 918.808 341.373Z" fill="#B2D0EF"/>
<path d="M691.504 101.311C691.504 107.461 686.518 112.448 680.366 112.448C674.216 112.448 669.23 107.461 669.23 101.311C669.23 95.16 674.216 90.1733 680.366 90.1733C686.518 90.1733 691.504 95.16 691.504 101.311Z" fill="#B5E0E6"/>
<path d="M153.9 544.437C153.9 550.588 148.915 555.574 142.764 555.574C136.614 555.574 131.627 550.588 131.627 544.437C131.627 538.286 136.614 533.301 142.764 533.301C148.915 533.301 153.9 538.286 153.9 544.437Z" fill="white"/>
<path d="M252.246 182.855C252.246 190.389 246.138 196.499 238.602 196.499C231.066 196.499 224.957 190.389 224.957 182.855C224.957 175.319 231.066 169.209 238.602 169.209C246.138 169.209 252.246 175.319 252.246 182.855Z" fill="#B2D0EF"/>
<path d="M628.862 52.4495C628.862 64.5669 619.036 74.3909 606.919 74.3909C594.802 74.3909 584.978 64.5669 584.978 52.4495C584.978 40.3309 594.802 30.5082 606.919 30.5082C619.036 30.5082 628.862 40.3309 628.862 52.4495Z" fill="#B2D0EF"/>
<path d="M822.005 313.748C822.005 319.817 817.029 324.739 810.888 324.739C804.748 324.739 799.771 319.817 799.771 313.748C799.771 307.676 804.748 302.756 810.888 302.756C817.029 302.756 822.005 307.676 822.005 313.748Z" fill="#B2D0EF"/>
<path d="M886.248 554.167C886.248 562.355 879.533 568.992 871.253 568.992C862.971 568.992 856.256 562.355 856.256 554.167C856.256 545.979 862.971 539.341 871.253 539.341C879.533 539.341 886.248 545.979 886.248 554.167Z" fill="#B2D0EF"/>
<path d="M69.4078 313.748C69.4078 318.919 65.215 323.111 60.0437 323.111C54.8718 323.111 50.6797 318.919 50.6797 313.748C50.6797 308.576 54.8718 304.384 60.0437 304.384C65.215 304.384 69.4078 308.576 69.4078 313.748Z" fill="#B2D0EF"/>
<path d="M784.436 572.816H211.821V237.36C211.821 225.749 221.235 216.335 232.847 216.335H763.412C775.023 216.335 784.436 225.749 784.436 237.36V572.816Z" fill="#134D5A"/>
<path d="M588.963 561.833H407.296C405.179 561.833 403.463 560.117 403.463 558C403.463 555.883 405.179 554.167 407.296 554.167H588.963C591.08 554.167 592.796 555.883 592.796 558C592.796 560.117 591.08 561.833 588.963 561.833Z" fill="#738AB5"/>
<path d="M768.233 544.438H228.023C224.455 544.438 221.563 541.545 221.563 537.977V230.188C221.563 226.62 224.455 223.728 228.023 223.728H768.233C771.801 223.728 774.694 226.62 774.694 230.188V537.977C774.694 541.545 771.801 544.438 768.233 544.438Z" fill="#19697B"/>
<path d="M763.586 539.877H232.672C229.549 539.877 227.019 537.347 227.019 534.224V234.623C227.019 231.5 229.549 228.969 232.672 228.969H763.586C766.708 228.969 769.24 231.5 769.24 234.623V534.224C769.24 537.347 766.708 539.877 763.586 539.877Z" fill="white"/>
<path d="M411.769 504.479H313.051C308.572 504.479 304.941 500.849 304.941 496.369V436.249C304.941 431.769 308.572 428.139 313.051 428.139H411.769C416.249 428.139 419.88 431.769 419.88 436.249V496.369C419.88 500.849 416.249 504.479 411.769 504.479Z" fill="#E0ECF9"/>
<path d="M436.76 539.877H769.24V228.969H436.76V539.877Z" fill="#B5E0E6"/>
<path d="M611.679 508.479H459.489C457.563 508.479 456 506.916 456 504.989C456 503.063 457.563 501.5 459.489 501.5H611.679C613.605 501.5 615.168 503.063 615.168 504.989C615.168 506.916 613.605 508.479 611.679 508.479Z" fill="#45AFBE"/>
<path d="M611.679 526.796H459.489C457.563 526.796 456 525.233 456 523.305C456 521.379 457.563 519.816 459.489 519.816H611.679C613.605 519.816 615.168 521.379 615.168 523.305C615.168 525.233 613.605 526.796 611.679 526.796Z" fill="#45AFBE"/>
<path d="M708.59 312.72H591.938C587.922 312.72 584.667 309.465 584.667 305.449V266.239C584.667 262.223 587.922 258.968 591.938 258.968H708.59C712.604 258.968 715.86 262.223 715.86 266.239V305.449C715.86 309.465 712.604 312.72 708.59 312.72Z" fill="#45AFBE"/>
<path d="M294.936 301.635H249.357C245.417 301.635 242.223 298.44 242.223 294.5V253.857C242.223 249.916 245.417 246.723 249.357 246.723H294.936C298.876 246.723 302.071 249.916 302.071 253.857V294.5C302.071 298.44 298.876 301.635 294.936 301.635Z" fill="#B5E0E6"/>
<path d="M296.881 324.901H244.135C243.079 324.901 242.223 324.045 242.223 322.989C242.223 321.933 243.079 321.077 244.135 321.077H296.881C297.937 321.077 298.793 321.933 298.793 322.989C298.793 324.045 297.937 324.901 296.881 324.901Z" fill="#E0ECF9"/>
<path d="M324.201 314.991H244.135C243.079 314.991 242.223 314.135 242.223 313.079C242.223 312.023 243.079 311.167 244.135 311.167H324.201C325.256 311.167 326.113 312.023 326.113 313.079C326.113 314.135 325.256 314.991 324.201 314.991Z" fill="#E0ECF9"/>
<path d="M795.724 604.628H204.276C189.583 604.628 177.671 592.716 177.671 578.022V572.816H822.33V578.022C822.33 592.716 810.419 604.628 795.724 604.628Z" fill="#19697B"/>
<path d="M635.2 111.907V469.627C635.2 479.253 627.4 487.053 617.774 487.053H367.454C357.827 487.053 350.028 479.253 350.028 469.627V111.907C350.028 102.28 357.827 94.4802 367.454 94.4802H617.774C627.4 94.4802 635.2 102.28 635.2 111.907Z" fill="#19697B"/>
<path d="M350.028 469.627C350.028 479.253 357.827 487.053 367.454 487.053H617.774C627.4 487.053 635.2 479.253 635.2 469.627H350.028Z" fill="#77A4DD"/>
<path d="M482.174 478.34C482.174 480.059 480.78 481.451 479.063 481.451C477.344 481.451 475.952 480.059 475.952 478.34C475.952 476.621 477.344 475.229 479.063 475.229C480.78 475.229 482.174 476.621 482.174 478.34Z" fill="white"/>
<path d="M495.729 478.34C495.729 480.059 494.336 481.451 492.619 481.451C490.9 481.451 489.507 480.059 489.507 478.34C489.507 476.621 490.9 475.229 492.619 475.229C494.336 475.229 495.729 476.621 495.729 478.34Z" fill="white"/>
<path d="M509.285 478.34C509.285 480.059 507.892 481.451 506.173 481.451C504.456 481.451 503.062 480.059 503.062 478.34C503.062 476.621 504.456 475.229 506.173 475.229C507.892 475.229 509.285 476.621 509.285 478.34Z" fill="white"/>
<path d="M408.457 205.426C400.858 205.426 394.917 203.309 390.633 199.076C386.35 194.843 384.208 188.8 384.208 180.946V150.959H396.6V180.487C396.6 185.587 397.646 189.259 399.737 191.503C401.827 193.747 404.76 194.869 408.534 194.869C412.308 194.869 415.24 193.747 417.331 191.503C419.422 189.259 420.467 185.587 420.467 180.487V150.959H432.707V180.946C432.707 188.8 430.565 194.843 426.281 199.076C421.997 203.309 416.056 205.426 408.457 205.426ZM444.953 204.508V150.959H457.345V204.508H444.953ZM461.18 212.157L486.424 140.096H497.057L471.813 212.157H461.18ZM523.8 205.426C516.202 205.426 510.26 203.309 505.976 199.076C501.693 194.843 499.551 188.8 499.551 180.946V150.959H511.943V180.487C511.943 185.587 512.989 189.259 515.08 191.503C517.171 193.747 520.103 194.869 523.877 194.869C527.651 194.869 530.583 193.747 532.674 191.503C534.765 189.259 535.81 185.587 535.81 180.487V150.959H548.05V180.946C548.05 188.8 545.908 194.843 541.624 199.076C537.34 203.309 531.399 205.426 523.8 205.426ZM553.429 204.508L576.455 172.761V181.788L554.424 150.959H568.499L583.722 172.455L577.832 172.532L592.825 150.959H606.288L584.41 181.252V172.379L607.589 204.508H593.284L577.526 181.788H583.186L567.658 204.508H553.429Z" fill="white"/>
<path d="M628.883 110.955C628.923 116.32 624.605 120.701 619.24 120.741C613.873 120.78 609.492 116.461 609.453 111.097C609.415 105.732 613.732 101.349 619.096 101.311C624.463 101.272 628.844 105.589 628.883 110.955Z" fill="#B5E0E6"/>
<path d="M625.128 107.464L622.729 105.067L619.168 108.628L615.607 105.067L613.208 107.464L616.771 111.027L613.208 114.587L615.607 116.985L619.168 113.424L622.729 116.985L625.128 114.587L621.567 111.027L625.128 107.464Z" fill="white"/>
<path d="M596.546 411.856H392.475C386.993 411.856 382.549 407.411 382.549 401.927V330.227C382.549 324.744 386.993 320.3 392.475 320.3H596.546C602.029 320.3 606.473 324.744 606.473 330.227V401.927C606.473 407.411 602.029 411.856 596.546 411.856Z" fill="#77A4DD"/>
<path d="M416.289 339.064C416.289 345.079 411.414 349.953 405.4 349.953C399.386 349.953 394.512 345.079 394.512 339.064C394.512 333.051 399.386 328.175 405.4 328.175C411.414 328.175 416.289 333.051 416.289 339.064Z" fill="#B5E0E6"/>
<path d="M591.678 341.897H427.345C425.78 341.897 424.512 340.629 424.512 339.064C424.512 337.5 425.78 336.231 427.345 336.231H591.678C593.244 336.231 594.512 337.5 594.512 339.064C594.512 340.629 593.244 341.897 591.678 341.897Z" fill="white"/>
<path d="M416.289 366.077C416.289 372.091 411.414 376.967 405.4 376.967C399.386 376.967 394.512 372.091 394.512 366.077C394.512 360.064 399.386 355.189 405.4 355.189C411.414 355.189 416.289 360.064 416.289 366.077Z" fill="#B5E0E6"/>
<path d="M591.678 368.911H427.345C425.78 368.911 424.512 367.641 424.512 366.077C424.512 364.513 425.78 363.244 427.345 363.244H591.678C593.244 363.244 594.512 364.513 594.512 366.077C594.512 367.641 593.244 368.911 591.678 368.911Z" fill="white"/>
<path d="M416.289 393.091C416.289 399.104 411.414 403.979 405.4 403.979C399.386 403.979 394.512 399.104 394.512 393.091C394.512 387.077 399.386 382.201 405.4 382.201C411.414 382.201 416.289 387.077 416.289 393.091Z" fill="#B5E0E6"/>
<path d="M591.678 395.924H427.345C425.78 395.924 424.512 394.656 424.512 393.091C424.512 391.527 425.78 390.257 427.345 390.257H591.678C593.244 390.257 594.512 391.527 594.512 393.091C594.512 394.656 593.244 395.924 591.678 395.924Z" fill="white"/>
<path d="M600.358 296.708H388.665C385.287 296.708 382.549 293.971 382.549 290.592V268.072C382.549 264.693 385.287 261.955 388.665 261.955H600.358C603.735 261.955 606.473 264.693 606.473 268.072V290.592C606.473 293.971 603.735 296.708 600.358 296.708Z" fill="#77A4DD"/>
<path d="M495.173 275.761H392.094C390.422 275.761 389.066 274.405 389.066 272.733C389.066 271.061 390.422 269.705 392.094 269.705H495.173C496.845 269.705 498.2 271.061 498.2 272.733C498.2 274.405 496.845 275.761 495.173 275.761Z" fill="white"/>
<path d="M597.322 288.959H391.7C390.246 288.959 389.066 287.779 389.066 286.325V285.911C389.066 284.457 390.246 283.277 391.7 283.277H597.322C598.777 283.277 599.956 284.457 599.956 285.911V286.325C599.956 287.779 598.777 288.959 597.322 288.959Z" fill="white"/>
<path d="M513.466 452.476H471.761C465.04 452.476 459.592 447.028 459.592 440.307C459.592 433.587 465.04 428.139 471.761 428.139H513.466C520.186 428.139 525.636 433.587 525.636 440.307C525.636 447.028 520.186 452.476 513.466 452.476Z" fill="#B5E0E6"/>
<path d="M604.864 236.464H385.049C383.915 236.464 382.993 235.544 382.993 234.408C382.993 233.273 383.915 232.353 385.049 232.353H604.864C605.998 232.353 606.919 233.273 606.919 234.408C606.919 235.544 605.998 236.464 604.864 236.464Z" fill="#B2D0EF"/>
<path d="M160.124 211.395H65.3817C57.262 211.395 50.6797 204.812 50.6797 196.693V101.951C50.6797 93.8308 57.262 87.2481 65.3817 87.2481H160.124C168.243 87.2481 174.825 93.8308 174.825 101.951V196.693C174.825 204.812 168.243 211.395 160.124 211.395Z" fill="#77A4DD"/>
<path d="M169.503 100.196C169.531 103.888 166.56 106.902 162.868 106.93C159.177 106.956 156.163 103.986 156.136 100.294C156.108 96.6028 159.079 93.5881 162.771 93.5615C166.461 93.5335 169.476 96.5055 169.503 100.196Z" fill="#B5E0E6"/>
<path d="M166.918 97.7948L165.269 96.1442L162.82 98.5948L160.369 96.1442L158.72 97.7948L161.169 100.245L158.72 102.695L160.369 104.345L162.82 101.895L165.269 104.345L166.918 102.695L164.469 100.245L166.918 97.7948Z" fill="white"/>
<path d="M162.358 149.321C162.358 176.719 140.149 198.928 112.752 198.928C85.3554 198.928 63.1455 176.719 63.1455 149.321C63.1455 121.925 85.3554 99.716 112.752 99.716C140.149 99.716 162.358 121.925 162.358 149.321Z" fill="#19697B"/>
<path d="M125.374 132.473C125.374 139.445 119.721 145.099 112.75 145.099C105.777 145.099 100.125 139.445 100.125 132.473C100.125 125.501 105.777 119.849 112.75 119.849C119.721 119.849 125.374 125.501 125.374 132.473Z" fill="white"/>
<path d="M136.629 168.305H88.877C88.877 161.657 91.601 155.648 95.9859 151.316C97.325 149.993 99.1775 149.321 101.06 149.321H124.447C126.33 149.321 128.182 149.993 129.521 151.316C133.907 155.648 136.629 161.657 136.629 168.305Z" fill="white"/>
<path d="M189.146 144.932H304.975C308.656 144.919 313.329 144.979 316.893 147.053C318.681 148.091 320.229 149.592 321.388 151.948C322.541 154.303 323.285 157.545 323.285 162V252.105H325.952V162C325.952 157.255 325.162 153.596 323.783 150.776C322.751 148.663 321.382 147.033 319.83 145.823C317.498 144.003 314.795 143.124 312.192 142.692C309.585 142.261 307.048 142.267 304.975 142.265H189.146V144.932Z" fill="#77A4DD"/>
<path d="M329.76 252.105C329.76 249.265 327.459 246.963 324.619 246.963C321.78 246.963 319.478 249.265 319.478 252.105C319.478 254.944 321.78 257.247 324.619 257.247C327.459 257.247 329.76 254.944 329.76 252.105Z" fill="#77A4DD"/>
<path d="M195.17 143.599C195.17 140.759 192.868 138.456 190.029 138.456C187.189 138.456 184.888 140.759 184.888 143.599C184.888 146.437 187.189 148.74 190.029 148.74C192.868 148.74 195.17 146.437 195.17 143.599Z" fill="#77A4DD"/>
<path d="M886.951 274.736H734.826C724.37 274.736 715.894 266.26 715.894 255.804V80.9721C715.894 70.5161 724.37 62.0388 734.826 62.0388H886.951C897.407 62.0388 905.883 70.5161 905.883 80.9721V255.804C905.883 266.26 897.407 274.736 886.951 274.736Z" fill="#77A4DD"/>
<path d="M886.153 214.28H735.623C730.615 214.28 726.555 210.221 726.555 205.213V109.348C726.555 104.34 730.615 100.28 735.623 100.28H886.153C891.161 100.28 895.221 104.34 895.221 109.348V205.213C895.221 210.221 891.161 214.28 886.153 214.28Z" fill="#19697B"/>
<path d="M761.571 200.979L763.433 200.247C763.691 200.145 763.816 199.855 763.715 199.599C763.615 199.341 763.324 199.215 763.067 199.316L761.205 200.048C760.948 200.149 760.821 200.44 760.923 200.697C761.024 200.953 761.315 201.08 761.571 200.979Z" fill="#B5E0E6"/>
<path d="M767.245 198.745L771.059 197.245C771.316 197.144 771.443 196.853 771.341 196.597C771.24 196.34 770.949 196.213 770.693 196.315L766.88 197.815C766.623 197.916 766.496 198.207 766.597 198.464C766.699 198.72 766.989 198.847 767.245 198.745ZM774.872 195.744L778.687 194.244C778.943 194.143 779.069 193.852 778.968 193.596C778.867 193.339 778.577 193.212 778.32 193.313L774.507 194.815C774.249 194.915 774.123 195.205 774.224 195.463C774.325 195.72 774.616 195.845 774.872 195.744ZM782.5 192.743L786.313 191.243C786.569 191.141 786.696 190.851 786.595 190.595C786.495 190.337 786.204 190.211 785.947 190.312L782.133 191.813C781.876 191.913 781.751 192.204 781.851 192.461C781.952 192.719 782.243 192.844 782.5 192.743ZM789.755 192.669L793.564 194.18C793.821 194.283 794.112 194.157 794.213 193.9C794.316 193.643 794.189 193.353 793.933 193.251L790.124 191.74C789.867 191.639 789.576 191.764 789.475 192.02C789.373 192.277 789.499 192.568 789.755 192.669ZM797.373 195.692L801.183 197.203C801.44 197.304 801.731 197.179 801.832 196.921C801.935 196.665 801.809 196.375 801.552 196.273L797.743 194.761C797.485 194.66 797.195 194.785 797.093 195.043C796.992 195.299 797.117 195.589 797.373 195.692ZM804.993 198.713L808.803 200.224C809.059 200.327 809.349 200.2 809.451 199.944C809.553 199.687 809.428 199.396 809.171 199.295L805.361 197.784C805.105 197.681 804.815 197.808 804.712 198.064C804.611 198.321 804.736 198.612 804.993 198.713ZM812.985 200.257L816.82 198.813C817.079 198.716 817.209 198.427 817.112 198.169C817.015 197.911 816.725 197.78 816.467 197.877L812.632 199.323C812.373 199.42 812.244 199.708 812.341 199.967C812.439 200.225 812.727 200.355 812.985 200.257ZM820.655 197.368L824.489 195.923C824.748 195.825 824.879 195.537 824.781 195.279C824.684 195.02 824.396 194.889 824.137 194.987L820.303 196.432C820.044 196.529 819.913 196.817 820.011 197.076C820.108 197.335 820.396 197.465 820.655 197.368ZM828.325 194.477L832.16 193.033C832.417 192.936 832.548 192.647 832.451 192.389C832.353 192.131 832.065 192 831.807 192.097L827.972 193.543C827.713 193.64 827.583 193.928 827.68 194.187C827.777 194.445 828.067 194.575 828.325 194.477ZM835.995 191.588L836.829 191.273L839.424 192.351C839.68 192.457 839.972 192.336 840.079 192.081C840.184 191.825 840.063 191.533 839.808 191.427L837.031 190.273L836.663 190.268L835.641 190.652C835.384 190.749 835.253 191.039 835.351 191.296C835.448 191.555 835.736 191.685 835.995 191.588ZM843.209 193.923L846.995 195.493C847.249 195.6 847.541 195.479 847.648 195.224C847.753 194.969 847.633 194.676 847.377 194.571L843.593 192.999C843.337 192.893 843.045 193.013 842.94 193.269C842.833 193.524 842.955 193.816 843.209 193.923ZM850.779 197.065L854.564 198.637C854.819 198.743 855.112 198.621 855.217 198.367C855.324 198.112 855.203 197.819 854.948 197.713L851.163 196.141C850.908 196.036 850.615 196.157 850.509 196.412C850.403 196.667 850.524 196.96 850.779 197.065Z" fill="#B5E0E6"/>
<path d="M858.35 200.208L860.196 200.976C860.451 201.082 860.744 200.96 860.85 200.706C860.956 200.451 860.835 200.157 860.58 200.052L858.733 199.285C858.479 199.179 858.186 199.3 858.08 199.555C857.975 199.809 858.095 200.103 858.35 200.208Z" fill="#B5E0E6"/>
<path d="M836.839 142.443C836.839 156.775 810.888 194.343 810.888 194.343C810.888 194.343 784.938 156.775 784.938 142.443C784.938 128.109 796.556 116.492 810.888 116.492C825.22 116.492 836.839 128.109 836.839 142.443Z" fill="white"/>
<path d="M826.642 142.344C826.642 151.045 819.589 158.1 810.887 158.1C802.186 158.1 795.133 151.045 795.133 142.344C795.133 133.643 802.186 126.589 810.887 126.589C819.589 126.589 826.642 133.643 826.642 142.344Z" fill="#19697B"/>
<path d="M774.252 168.616C774.252 175.721 761.388 194.343 761.388 194.343C761.388 194.343 748.525 175.721 748.525 168.616C748.525 161.512 754.284 155.753 761.388 155.753C768.492 155.753 774.252 161.512 774.252 168.616Z" fill="#77A4DD"/>
<path d="M769.197 168.568C769.197 172.881 765.701 176.377 761.387 176.377C757.075 176.377 753.578 172.881 753.578 168.568C753.578 164.255 757.075 160.759 761.387 160.759C765.701 160.759 769.197 164.255 769.197 168.568Z" fill="#19697B"/>
<path d="M873.252 168.616C873.252 175.721 860.388 194.343 860.388 194.343C860.388 194.343 847.525 175.721 847.525 168.616C847.525 161.512 853.284 155.753 860.388 155.753C867.492 155.753 873.252 161.512 873.252 168.616Z" fill="#77A4DD"/>
<path d="M868.197 168.568C868.197 172.881 864.701 176.377 860.387 176.377C856.075 176.377 852.578 172.881 852.578 168.568C852.578 164.255 856.075 160.759 860.387 160.759C864.701 160.759 868.197 164.255 868.197 168.568Z" fill="#19697B"/>
<path d="M898.471 75.8827C898.497 79.5747 895.528 82.588 891.836 82.616C888.144 82.6427 885.131 79.672 885.103 75.9813C885.076 72.2893 888.045 69.2747 891.737 69.248C895.428 69.2213 898.444 72.192 898.471 75.8827Z" fill="#B5E0E6"/>
<path d="M895.887 73.4815L894.237 71.8322L891.787 74.2815L889.336 71.8322L887.687 73.4815L890.137 75.9322L887.687 78.3829L889.336 80.0322L891.787 77.5815L894.237 80.0322L895.887 78.3829L893.436 75.9322L895.887 73.4815Z" fill="white"/>
<path d="M839.456 89.2761L730.003 89.0895C728.097 89.0868 726.555 87.5415 726.555 85.6361C726.555 83.7268 728.104 82.1788 730.015 82.1815L839.468 82.3681C841.373 82.3708 842.916 83.9161 842.916 85.8228C842.916 87.7321 841.365 89.2788 839.456 89.2761Z" fill="white"/>
<path d="M891.888 231.5L729.88 231.309C728.043 231.308 726.555 229.817 726.555 227.98V227.732C726.555 225.891 728.048 224.4 729.888 224.403L891.896 224.592C893.733 224.595 895.221 226.084 895.221 227.921V228.171C895.221 230.011 893.728 231.503 891.888 231.5Z" fill="white"/>
<path d="M782.896 247.808L729.873 247.639C728.039 247.633 726.555 246.144 726.555 244.309C726.555 242.467 728.052 240.973 729.895 240.979L782.917 241.149C784.752 241.155 786.236 242.644 786.236 244.479C786.236 246.323 784.739 247.815 782.896 247.808Z" fill="white"/>
<path d="M671.077 275.344H673.744V205.45H671.077V275.344Z" fill="white"/>
<path d="M699.966 135.407H681.556C679.137 135.407 677.237 135.768 675.729 136.435C674.6 136.932 673.701 137.609 673.028 138.391C672.014 139.565 671.532 140.929 671.302 142.191C671.072 143.457 671.078 144.652 671.077 145.593V228.969H673.744V145.593C673.742 144.76 673.746 143.857 673.872 142.993C673.966 142.344 674.126 141.723 674.385 141.167C674.78 140.333 675.354 139.631 676.428 139.056C677.502 138.488 679.13 138.072 681.556 138.073H699.966V135.407Z" fill="#77A4DD"/>
<path d="M672.411 280.485C669.572 280.485 667.27 278.184 667.27 275.344C667.27 272.504 669.572 270.201 672.411 270.201C675.251 270.201 677.552 272.504 677.552 275.344C677.552 278.184 675.251 280.485 672.411 280.485Z" fill="white"/>
<path d="M699.967 142.837C697.127 142.837 694.824 140.536 694.824 137.696C694.824 134.857 697.127 132.555 699.967 132.555C702.807 132.555 705.108 134.857 705.108 137.696C705.108 140.536 702.807 142.837 699.967 142.837Z" fill="#77A4DD"/>
<path d="M275.212 484.18H81.0026C75.1644 484.18 70.4316 479.448 70.4316 473.609V348.755C70.4316 342.917 75.1644 338.184 81.0026 338.184H275.212C281.051 338.184 285.783 342.917 285.783 348.755V473.609C285.783 479.448 281.051 484.18 275.212 484.18Z" fill="#77A4DD"/>
<path d="M269.009 475.645H87.2053C83.7116 475.645 80.8799 472.813 80.8799 469.32V374.257C80.8799 370.764 83.7116 367.932 87.2053 367.932H269.009C272.503 367.932 275.336 370.764 275.336 374.257V469.32C275.336 472.813 272.503 475.645 269.009 475.645Z" fill="#19697B"/>
<path d="M242.742 383.315H252.736V424.637C252.736 427.397 250.5 429.635 247.74 429.635C244.98 429.635 242.742 427.397 242.742 424.637V383.315Z" fill="#77A4DD"/>
<path d="M214.964 383.315H224.957V420.904C224.957 423.664 222.72 425.901 219.96 425.901C217.2 425.901 214.964 423.664 214.964 420.904V383.315Z" fill="#77A4DD"/>
<path d="M187.184 396.648H197.178V444.661C197.178 447.42 194.941 449.659 192.181 449.659C189.421 449.659 187.184 447.42 187.184 444.661V396.648Z" fill="#77A4DD"/>
<path d="M159.405 383.315H169.4V461.312C169.4 464.072 167.163 466.308 164.403 466.308C161.643 466.308 159.405 464.072 159.405 461.312V383.315Z" fill="#77A4DD"/>
<path d="M131.627 383.315H141.622V451.344C141.622 454.103 139.384 456.34 136.624 456.34C133.864 456.34 131.627 454.103 131.627 451.344V383.315Z" fill="#77A4DD"/>
<path d="M103.848 383.315H113.842V422.837C113.842 425.597 111.604 427.835 108.845 427.835C106.085 427.835 103.848 425.597 103.848 422.837V383.315Z" fill="#77A4DD"/>
<path d="M113.842 466.308H103.848V424.987C103.848 422.227 106.085 419.989 108.845 419.989C111.604 419.989 113.842 422.227 113.842 424.987V466.308Z" fill="white"/>
<path d="M141.622 466.308H131.627V442.053C131.627 439.293 133.864 437.056 136.624 437.056C139.384 437.056 141.622 439.293 141.622 442.053V466.308Z" fill="white"/>
<path d="M169.4 466.308H159.405V404.963C159.405 402.203 161.643 399.967 164.403 399.967C167.163 399.967 169.4 402.203 169.4 404.963V466.308Z" fill="white"/>
<path d="M197.178 466.308H187.184V388.312C187.184 385.552 189.421 383.315 192.181 383.315C194.941 383.315 197.178 385.552 197.178 388.312V466.308Z" fill="white"/>
<path d="M224.957 466.308H214.964V411.615C214.964 408.855 217.2 406.617 219.96 406.617C222.72 406.617 224.957 408.855 224.957 411.615V466.308Z" fill="white"/>
<path d="M252.736 466.308H242.742V426.787C242.742 424.027 244.98 421.789 247.74 421.789C250.5 421.789 252.736 424.027 252.736 426.787V466.308Z" fill="white"/>
<path d="M282.018 348.935C282.046 352.627 279.076 355.64 275.384 355.668C271.693 355.695 268.678 352.724 268.652 349.032C268.624 345.341 271.594 342.327 275.286 342.3C278.977 342.272 281.992 345.244 282.018 348.935Z" fill="#B5E0E6"/>
<path d="M279.436 346.532L277.785 344.884L275.336 347.333L272.885 344.884L271.234 346.532L273.685 348.983L271.234 351.433L272.885 353.084L275.336 350.633L277.785 353.084L279.436 351.433L276.985 348.983L279.436 346.532Z" fill="white"/>
<path d="M228.515 357.917H84.5226C82.5106 357.917 80.8799 356.286 80.8799 354.274C80.8799 352.263 82.5106 350.632 84.5226 350.632H228.515C230.527 350.632 232.157 352.263 232.157 354.274C232.157 356.286 230.527 357.917 228.515 357.917Z" fill="#E0ECF9"/>
<path d="M165.102 493.403V511.556C165.102 513.708 165.474 515.492 166.135 516.951C167.12 519.145 168.771 520.537 170.466 521.305C172.163 522.08 173.899 522.289 175.29 522.292H349.483V519.625H175.29C173.796 519.629 171.86 519.293 170.411 518.192C169.68 517.639 169.044 516.904 168.564 515.849C168.086 514.795 167.77 513.404 167.768 511.556V493.403H165.102Z" fill="#77A4DD"/>
<path d="M354.626 520.959C354.626 523.799 352.323 526.1 349.483 526.1C346.643 526.1 344.342 523.799 344.342 520.959C344.342 518.119 346.643 515.816 349.483 515.816C352.323 515.816 354.626 518.119 354.626 520.959Z" fill="#77A4DD"/>
<path d="M171.576 493.403C171.576 496.243 169.274 498.544 166.434 498.544C163.594 498.544 161.293 496.243 161.293 493.403C161.293 490.563 163.594 488.26 166.434 488.26C169.274 488.26 171.576 490.563 171.576 493.403Z" fill="#77A4DD"/>
<path d="M939.587 522.796H697.364C691.987 522.796 687.628 518.437 687.628 513.061V398.312C687.628 392.936 691.987 388.577 697.364 388.577H939.587C944.963 388.577 949.32 392.936 949.32 398.312V513.061C949.32 518.437 944.963 522.796 939.587 522.796Z" fill="#77A4DD"/>
<path d="M945.297 399.707C945.324 403.399 942.354 406.413 938.662 406.44C934.972 406.468 931.957 403.496 931.929 399.805C931.902 396.113 934.873 393.099 938.565 393.072C942.256 393.044 945.27 396.016 945.297 399.707Z" fill="#B5E0E6"/>
<path d="M942.714 397.305L941.064 395.656L938.614 398.105L936.163 395.656L934.514 397.305L936.964 399.755L934.514 402.205L936.163 403.856L938.614 401.407L941.064 403.856L942.714 402.205L940.263 399.755L942.714 397.305Z" fill="white"/>
<path d="M738.727 448.373H704.216C701.664 448.373 699.595 446.305 699.595 443.752V409.244C699.595 406.691 701.664 404.621 704.216 404.621H738.727C741.279 404.621 743.348 406.691 743.348 409.244V443.752C743.348 446.305 741.279 448.373 738.727 448.373Z" fill="white"/>
<path d="M909.325 415.133H763.524C760.621 415.133 758.268 412.78 758.268 409.877C758.268 406.975 760.621 404.621 763.524 404.621H909.325C912.229 404.621 914.582 406.975 914.582 409.877C914.582 412.78 912.229 415.133 909.325 415.133Z" fill="white"/>
<path d="M843.396 431.251H761.753C759.828 431.251 758.268 429.692 758.268 427.767C758.268 425.843 759.828 424.283 761.753 424.283H843.396C845.32 424.283 846.88 425.843 846.88 427.767C846.88 429.692 845.32 431.251 843.396 431.251Z" fill="white"/>
<path d="M927.901 509.14H709.046C703.57 509.14 699.129 504.699 699.129 499.221V468.203C699.129 462.725 703.57 458.285 709.046 458.285H927.901C933.378 458.285 937.818 462.725 937.818 468.203V499.221C937.818 504.699 933.378 509.14 927.901 509.14Z" fill="#19697B"/>
<path d="M810.888 481.865V469.109C810.888 468.215 811.828 467.631 812.63 468.027L825.388 474.328C826.28 474.769 826.286 476.039 825.398 476.488L812.641 482.944C811.837 483.351 810.888 482.767 810.888 481.865Z" fill="#B5E0E6"/>
<path d="M848.043 480.051V470.925C848.043 470.285 848.715 469.867 849.29 470.151L858.415 474.659C859.052 474.973 859.058 475.883 858.422 476.203L849.298 480.821C848.722 481.112 848.043 480.695 848.043 480.051Z" fill="white"/>
<path d="M861.756 480.916H861.133C860.774 480.916 860.482 480.625 860.482 480.265V470.709C860.482 470.352 860.774 470.06 861.133 470.06H861.756C862.116 470.06 862.406 470.352 862.406 470.709V480.265C862.406 480.625 862.116 480.916 861.756 480.916Z" fill="white"/>
<path d="M788.906 480.051V470.925C788.906 470.285 788.234 469.867 787.66 470.151L778.533 474.659C777.896 474.973 777.892 475.883 778.528 476.203L787.652 480.821C788.226 481.112 788.906 480.695 788.906 480.051Z" fill="white"/>
<path d="M775.194 480.916H775.816C776.175 480.916 776.466 480.625 776.466 480.265V470.709C776.466 470.352 776.175 470.06 775.816 470.06H775.194C774.834 470.06 774.543 470.352 774.543 470.709V480.265C774.543 480.625 774.834 480.916 775.194 480.916Z" fill="white"/>
<path d="M717.596 493.649C717.596 494.179 717.166 494.608 716.638 494.608C716.108 494.608 715.68 494.179 715.68 493.649C715.68 493.12 716.108 492.692 716.638 492.692C717.166 492.692 717.596 493.12 717.596 493.649Z" fill="white"/>
<path d="M717.596 496.952C717.596 497.481 717.166 497.911 716.638 497.911C716.108 497.911 715.68 497.481 715.68 496.952C715.68 496.423 716.108 495.993 716.638 495.993C717.166 495.993 717.596 496.423 717.596 496.952Z" fill="white"/>
<path d="M712.476 497.911H709.341C708.765 497.911 708.299 497.444 708.299 496.868V493.735C708.299 493.157 708.765 492.692 709.341 492.692H712.476C713.051 492.692 713.519 493.157 713.519 493.735V496.868C713.519 497.444 713.051 497.911 712.476 497.911Z" fill="white"/>
<path d="M723.955 497.911H720.779C720.215 497.911 719.756 497.453 719.756 496.889V493.712C719.756 493.148 720.215 492.692 720.779 492.692H723.955C724.52 492.692 724.976 493.148 724.976 493.712V496.889C724.976 497.453 724.52 497.911 723.955 497.911Z" fill="white"/>
<path d="M921.27 493.649C921.27 494.179 920.84 494.608 920.311 494.608C919.782 494.608 919.354 494.179 919.354 493.649C919.354 493.12 919.782 492.692 920.311 492.692C920.84 492.692 921.27 493.12 921.27 493.649Z" fill="white"/>
<path d="M921.27 496.952C921.27 497.481 920.84 497.911 920.311 497.911C919.782 497.911 919.354 497.481 919.354 496.952C919.354 496.423 919.782 495.993 920.311 495.993C920.84 495.993 921.27 496.423 921.27 496.952Z" fill="white"/>
<path d="M916.152 497.911H913.012C912.438 497.911 911.974 497.445 911.974 496.871V493.731C911.974 493.156 912.438 492.692 913.012 492.692H916.152C916.727 492.692 917.192 493.156 917.192 493.731V496.871C917.192 497.445 916.727 497.911 916.152 497.911Z" fill="white"/>
<path d="M927.611 497.911H924.471C923.896 497.911 923.431 497.445 923.431 496.871V493.731C923.431 493.156 923.896 492.692 924.471 492.692H927.611C928.185 492.692 928.649 493.156 928.649 493.731V496.871C928.649 497.445 928.185 497.911 927.611 497.911Z" fill="white"/>
<path d="M904.476 496.004H732.475V494.98H904.476V496.004Z" fill="white"/>
<path d="M823.848 495.409C823.848 497.159 822.429 498.576 820.681 498.576C818.932 498.576 817.515 497.159 817.515 495.409C817.515 493.66 818.932 492.243 820.681 492.243C822.429 492.243 823.848 493.66 823.848 495.409Z" fill="white"/>
<path d="M655.068 346.387H770.444V343.72H655.068V346.387Z" fill="white"/>
<path d="M839.451 372.609V354.667C839.45 352.137 839.091 350.159 838.432 348.592C837.94 347.417 837.27 346.481 836.49 345.777C835.319 344.713 833.946 344.2 832.678 343.957C831.404 343.715 830.203 343.721 829.262 343.72H769.24V346.387H829.262C830.095 346.385 830.995 346.391 831.854 346.521C832.499 346.62 833.114 346.787 833.666 347.057C834.494 347.469 835.204 348.075 835.788 349.221C836.367 350.368 836.786 352.103 836.784 354.667V372.609H839.451Z" fill="#77A4DD"/>
<path d="M649.925 345.053C649.925 342.213 652.227 339.912 655.067 339.912C657.907 339.912 660.209 342.213 660.209 345.053C660.209 347.893 657.907 350.195 655.067 350.195C652.227 350.195 649.925 347.893 649.925 345.053Z" fill="white"/>
<path d="M832.976 372.609C832.976 369.769 835.277 367.468 838.117 367.468C840.956 367.468 843.257 369.769 843.257 372.609C843.257 375.449 840.956 377.751 838.117 377.751C835.277 377.751 832.976 375.449 832.976 372.609Z" fill="#77A4DD"/>
</svg>
