<svg width="887" height="836" viewBox="0 0 887 836" fill="none" xmlns="http://www.w3.org/2000/svg">
<path d="M591.666 137.998C591.886 138.811 592 139.65 592 140.492V271.427C592 274.848 590.172 278.007 587.207 279.709L477.413 342.981V468.39C477.413 471.803 475.601 474.954 472.644 476.672L243.458 608.729C242.933 609.027 242.361 609.218 241.788 609.421C241.574 609.492 241.371 609.624 241.145 609.683C239.542 610.106 237.858 610.106 236.256 609.683C235.994 609.612 235.756 609.469 235.505 609.373C234.981 609.182 234.432 609.015 233.931 608.729L4.79285 476.672C1.83005 474.968 0 471.81 0 468.39V75.5855C0 74.7263 0.119225 73.891 0.33383 73.0795C0.405365 72.805 0.57228 72.5544 0.66766 72.2799C0.846498 71.7787 1.01341 71.2656 1.27571 70.8002C1.45455 70.4899 1.71684 70.2393 1.93145 69.9529C2.20566 69.571 2.45604 69.1772 2.77794 68.8431C3.05216 68.5686 3.40984 68.3657 3.71982 68.1271C4.06557 67.8407 4.37556 67.5304 4.769 67.3037H4.78092L119.356 1.27535C122.309 -0.425118 125.942 -0.425118 128.894 1.27535L243.469 67.3037H243.493C243.875 67.5423 244.197 67.8407 244.542 68.1151C244.852 68.3538 245.198 68.5686 245.472 68.8312C245.806 69.1772 246.045 69.571 246.331 69.9529C246.534 70.2393 246.808 70.4899 246.975 70.8002C247.249 71.2775 247.404 71.7787 247.595 72.2799C247.69 72.5544 247.857 72.805 247.928 73.0914C248.148 73.9047 248.26 74.7432 248.262 75.5855V320.927L343.738 265.902V140.48C343.738 139.645 343.857 138.798 344.072 137.998C344.155 137.712 344.31 137.461 344.405 137.187C344.596 136.685 344.763 136.172 345.025 135.707C345.204 135.396 345.466 135.146 345.669 134.859C345.955 134.478 346.194 134.084 346.528 133.75C346.802 133.475 347.148 133.272 347.458 133.034C347.815 132.747 348.125 132.437 348.507 132.21H348.519L463.106 66.1819C466.058 64.479 469.692 64.479 472.644 66.1819L587.219 132.21C587.624 132.449 587.934 132.747 588.292 133.022C588.59 133.26 588.936 133.475 589.21 133.738C589.544 134.084 589.782 134.478 590.069 134.859C590.283 135.146 590.545 135.396 590.712 135.707C590.987 136.172 591.142 136.685 591.332 137.187C591.44 137.461 591.595 137.712 591.666 137.998ZM572.9 265.902V157.02L532.805 180.123L477.413 212.046V320.927L572.912 265.902H572.9ZM458.325 462.865V353.912L403.839 385.058L248.25 473.939V583.919L458.325 462.865ZM19.0999 92.1135V462.865L229.151 583.907V473.951L119.416 411.789L119.38 411.765L119.332 411.742C118.963 411.527 118.653 411.217 118.307 410.954C118.009 410.715 117.663 410.524 117.401 410.262L117.377 410.226C117.067 409.928 116.852 409.558 116.59 409.224C116.352 408.901 116.066 408.627 115.875 408.293L115.863 408.257C115.648 407.899 115.517 407.469 115.362 407.064C115.207 406.706 115.004 406.372 114.909 405.99V405.978C114.79 405.524 114.766 405.047 114.718 404.581C114.671 404.223 114.575 403.865 114.575 403.507V403.484V147.139L59.1952 115.205L19.0999 92.1254V92.1135ZM124.137 20.5838L28.6736 75.5855L124.113 130.587L219.565 75.5736L124.113 20.5838H124.137ZM173.782 363.84L229.162 331.93V92.1135L189.067 115.217L133.675 147.139V386.956L173.782 363.84ZM467.875 85.4904L372.423 140.492L467.875 195.494L563.314 140.48L467.875 85.4904ZM458.325 212.046L402.933 180.123L362.838 157.02V265.902L418.218 297.812L458.325 320.927V212.046ZM238.689 457.411L378.694 377.409L448.68 337.431L353.3 282.465L243.481 345.749L143.392 403.424L238.689 457.411Z" fill="#19697B"/>
<g clip-path="url(#clip0_42_17)">
<path d="M757.6 277H887L563.5 835.494L240 277H367.783H487.477L563.5 406.506L637.905 277H757.6Z" fill="#45AFBE"/>
<path d="M240 277L563.5 835.494L887 277H757.6L563.5 612.096L367.783 277H240Z" fill="#45AFBE"/>
<path d="M367.783 277L563.5 613.715L757.6 277H637.905L563.5 406.506L487.478 277H367.783Z" fill="#19697B"/>
</g>
<defs>
<clipPath id="clip0_42_17">
<rect width="647" height="559" fill="white" transform="translate(240 277)"/>
</clipPath>
</defs>
</svg>
