<svg width="1024" height="1024" viewBox="0 0 1024 1024" fill="none" xmlns="http://www.w3.org/2000/svg">
<rect width="1024" height="1024" fill="#FAFAFA"/>
<g clip-path="url(#clip0_42_363)">
<path d="M239.611 504.001C239.611 608.249 300.154 698.34 387.947 741.033L262.398 396.816C247.794 429.571 239.611 465.819 239.611 504.001ZM680.487 490.711C680.487 458.161 668.803 435.62 658.781 418.075C645.44 396.38 632.934 378.008 632.934 356.314C632.934 332.104 651.284 309.567 677.131 309.567C678.298 309.567 679.405 309.712 680.542 309.778C633.716 266.85 571.329 240.64 502.808 240.64C410.859 240.64 329.962 287.847 282.901 359.351C289.076 359.536 294.896 359.667 299.839 359.667C327.368 359.667 369.982 356.324 369.982 356.324C384.17 355.487 385.843 376.34 371.67 378.018C371.67 378.018 357.412 379.697 341.546 380.529L437.392 665.806L494.99 492.946L453.984 380.519C439.811 379.687 426.384 378.008 426.384 378.008C412.201 377.177 413.864 355.477 428.047 356.314C428.047 356.314 471.512 359.656 497.374 359.656C524.899 359.656 567.518 356.314 567.518 356.314C581.716 355.477 583.384 376.33 569.206 378.008C569.206 378.008 554.918 379.687 539.082 380.519L634.196 663.636L660.449 575.85C671.827 539.422 680.487 513.257 680.487 490.711ZM507.426 527.039L428.457 756.658C452.036 763.594 476.971 767.388 502.808 767.388C533.458 767.388 562.851 762.086 590.21 752.459C589.504 751.331 588.863 750.133 588.337 748.83L507.426 527.039ZM733.753 377.643C734.885 386.032 735.526 395.037 735.526 404.724C735.526 431.45 730.538 461.494 715.513 499.06L635.118 731.656C713.365 685.997 765.995 601.168 765.995 504.006C766 458.217 754.311 415.158 733.753 377.643ZM502.808 197C333.638 197 196 334.72 196 504.001C196 673.303 333.638 811.017 502.808 811.017C671.973 811.017 809.631 673.303 809.631 504.001C809.626 334.72 671.973 197 502.808 197ZM502.808 796.945C341.396 796.945 210.068 665.53 210.068 504.001C210.068 342.482 341.391 211.077 502.808 211.077C664.215 211.077 795.533 342.482 795.533 504.001C795.533 665.53 664.215 796.945 502.808 796.945Z" fill="#45AFBE"/>
</g>
<defs>
<clipPath id="clip0_42_363">
<rect width="616" height="614" fill="white" transform="translate(196 197)"/>
</clipPath>
</defs>
</svg>
