<svg width="1024" height="1024" viewBox="0 0 1024 1024" fill="none" xmlns="http://www.w3.org/2000/svg">
<rect width="1024" height="1024" fill="#FAFAFA"/>
<g clip-path="url(#clip0_42_363)">
<path d="M221.124 507.001C221.124 626.87 290.71 730.459 391.614 779.549L247.314 383.756C230.53 421.419 221.124 463.098 221.124 507.001ZM727.845 491.72C727.845 454.293 714.416 428.374 702.898 408.2C687.564 383.255 673.191 362.13 673.191 337.185C673.191 309.347 694.281 283.434 723.988 283.434C725.329 283.434 726.602 283.601 727.908 283.676C674.089 234.316 602.385 204.179 523.63 204.179C417.948 204.179 324.97 258.46 270.88 340.677C277.977 340.89 284.666 341.04 290.347 341.04C321.988 341.04 370.967 337.197 370.967 337.197C387.274 336.234 389.196 360.211 372.907 362.142C372.907 362.142 356.519 364.072 338.284 365.029L448.444 693.05L514.645 494.29L467.514 365.017C451.224 364.061 435.792 362.13 435.792 362.13C419.491 361.174 421.402 336.223 437.703 337.185C437.703 337.185 487.66 341.028 517.385 341.028C549.02 341.028 598.005 337.185 598.005 337.185C614.323 336.223 616.24 360.2 599.944 362.13C599.944 362.13 583.522 364.061 565.321 365.017L674.641 690.555L704.815 589.616C717.893 547.73 727.845 517.644 727.845 491.72ZM528.937 533.491L438.175 797.516C465.275 805.491 493.934 809.853 523.63 809.853C558.857 809.853 592.64 803.756 624.085 792.687C623.274 791.391 622.537 790.013 621.933 788.515L528.937 533.491ZM789.067 361.71C790.368 371.356 791.104 381.711 791.104 392.849C791.104 423.58 785.371 458.125 768.103 501.32L675.7 768.768C765.634 716.267 826.124 618.728 826.124 507.007C826.13 454.357 812.695 404.846 789.067 361.71ZM523.63 154C329.195 154 171 312.355 171 507.001C171 701.671 329.195 860.02 523.63 860.02C718.059 860.02 876.277 701.671 876.277 507.001C876.272 312.355 718.059 154 523.63 154ZM523.63 843.839C338.111 843.839 187.169 692.733 187.169 507.001C187.169 321.281 338.105 170.186 523.63 170.186C709.143 170.186 860.074 321.281 860.074 507.001C860.074 692.733 709.143 843.839 523.63 843.839Z" fill="#45AFBE"/>
</g>
<defs>
<clipPath id="clip0_42_363">
<rect width="708" height="706" fill="white" transform="translate(171 154)"/>
</clipPath>
</defs>
</svg>
