<svg width="636" height="634" viewBox="0 0 636 634" fill="none" xmlns="http://www.w3.org/2000/svg">
<g clip-path="url(#clip0_42_363)">
<path d="M45.0267 317.001C45.0267 424.645 107.536 517.67 198.179 561.753L68.5536 206.325C53.4757 240.147 45.0267 277.575 45.0267 317.001ZM500.217 303.278C500.217 269.668 488.153 246.393 477.807 228.276C464.032 205.875 451.12 186.904 451.12 164.503C451.12 139.504 470.066 116.234 496.752 116.234C497.957 116.234 499.1 116.384 500.273 116.451C451.927 72.1248 387.515 45.0612 316.769 45.0612C221.835 45.0612 138.312 93.8067 89.7225 167.639C96.098 167.831 102.106 167.965 107.21 167.965C135.633 167.965 179.631 164.514 179.631 164.514C194.28 163.649 196.007 185.181 181.374 186.915C181.374 186.915 166.653 188.648 150.272 189.507L249.229 484.076L308.698 305.586L266.36 189.497C251.727 188.638 237.864 186.904 237.864 186.904C223.22 186.045 224.937 163.639 239.581 164.503C239.581 164.503 284.457 167.955 311.159 167.955C339.577 167.955 383.58 164.503 383.58 164.503C398.239 163.639 399.961 185.171 385.323 186.904C385.323 186.904 370.571 188.638 354.221 189.497L452.424 481.836L479.529 391.191C491.276 353.576 500.217 326.559 500.217 303.278ZM321.537 340.789L240.005 577.888C264.348 585.05 290.094 588.967 316.769 588.967C348.414 588.967 378.761 583.492 407.009 573.552C406.28 572.387 405.618 571.151 405.075 569.805L321.537 340.789ZM555.212 186.527C556.381 195.189 557.043 204.488 557.043 214.491C557.043 242.087 551.893 273.11 536.381 311.899L453.375 552.072C534.162 504.925 588.502 417.333 588.502 317.006C588.507 269.725 576.438 225.264 555.212 186.527ZM316.769 0C142.107 0 0 142.206 0 317.001C0 491.818 142.107 634.018 316.769 634.018C491.426 634.018 633.554 491.818 633.554 317.001C633.549 142.206 491.426 0 316.769 0ZM316.769 619.487C150.117 619.487 14.5246 483.792 14.5246 317.001C14.5246 150.221 150.112 14.5357 316.769 14.5357C483.417 14.5357 618.999 150.221 618.999 317.001C618.999 483.792 483.417 619.487 316.769 619.487Z" fill="#45AFBE"/>
</g>
<defs>
<clipPath id="clip0_42_363">
<rect width="636" height="634" fill="white"/>
</clipPath>
</defs>
</svg>
